<?xml version="1.0" standalone="no"?>
<!DOCTYPE svg PUBLIC "-//W3C//DTD SVG 1.1//EN" "http://www.w3.org/Graphics/SVG/1.1/DTD/svg11.dtd" >
<svg xmlns="http://www.w3.org/2000/svg" xmlns:xlink="http://www.w3.org/1999/xlink" version="1.1">
<metadata>
Created by FontForge 20170731 at Mon Nov 29 15:14:19 2021
 By Aleksey,,,
Copyright (c) 2014 by Kimmy Design. All rights reserved.
</metadata>
<defs>
<font id="BourtonBase" horiz-adv-x="1179" >
  <font-face 
    font-family="Bourton Base"
    font-weight="400"
    font-stretch="normal"
    units-per-em="2048"
    panose-1="2 0 0 0 0 0 0 0 0 0"
    ascent="1495"
    descent="-553"
    x-height="1352"
    cap-height="1352"
    bbox="31 -692 2226 1948"
    underline-thickness="102"
    underline-position="-307"
    unicode-range="U+000D-2265"
  />
<missing-glyph horiz-adv-x="1093" 
 />
    <glyph glyph-name=".notdef" horiz-adv-x="1093" 
 />
    <glyph glyph-name=".null" horiz-adv-x="0" 
 />
    <glyph glyph-name="nonmarkingreturn" horiz-adv-x="682" 
 />
    <glyph glyph-name="NULL" horiz-adv-x="0" 
 />
    <glyph glyph-name="NULL" horiz-adv-x="0" 
 />
    <glyph glyph-name="CR" unicode="&#xd;" horiz-adv-x="765" 
 />
    <glyph glyph-name="space" unicode=" " horiz-adv-x="765" 
 />
    <glyph glyph-name="exclam" unicode="!" horiz-adv-x="684" 
d="M453 403h-226q-7 0 -12.5 5.5t-5.5 13.5l-55 913q0 19 18 19h334q18 0 18 -19l-53 -913q0 -8 -5.5 -13.5t-12.5 -5.5zM348 342q77 0 129.5 -51.5t52.5 -126.5t-53 -128.5t-129 -53.5q-73 0 -124.5 53.5t-51.5 128.5t51 126.5t125 51.5z" />
    <glyph glyph-name="quotedbl" unicode="&#x22;" horiz-adv-x="636" 
d="M203 1405h119q10 0 15 -6.5t3 -14.5l-25 -182q0 -4 -4.5 -8t-11.5 -4h-74q-16 0 -18 12l-25 182q-3 9 3 15t18 6zM510 1384l-25 -182q-2 -12 -20 -12h-68q-18 0 -20 12l-25 182q-1 9 5 15t14 6h121q9 0 14.5 -6.5t3.5 -14.5z" />
    <glyph glyph-name="numbersign" unicode="#" horiz-adv-x="1445" 
d="M1298 1096q17 0 17 -21l-35 -233q-4 -19 -20 -19h-123l-50 -288h119q9 0 15.5 -7t5.5 -16l-39 -233q-3 -13 -19 -13h-127l-41 -252q-9 -14 -16 -14h-235q-8 0 -14 7t-5 16l39 243h-203l-41 -252q-2 -14 -20 -14h-232q-8 0 -12.5 7t-3.5 16l39 243h-94q-21 0 -21 21
l37 233q6 15 21 15h102l47 288h-98q-6 0 -13 8t-4 17l37 235q0 13 19 13h102l39 239q1 7 8 12t13 5h233q8 0 14.5 -6t5.5 -15l-45 -235h209l37 239q0 6 6.5 11.5t12.5 5.5h235q6 0 12.5 -6t6.5 -15l-39 -235h118zM813 535l49 288h-205l-45 -288h201z" />
    <glyph glyph-name="dollar" unicode="$" horiz-adv-x="1259" 
d="M750 829q58 -26 104 -50t100 -62t89.5 -78t60 -95t24.5 -116q0 -168 -81 -281q-95 -138 -285 -159v-111q0 -8 -6 -14t-11 -6h-174q-7 0 -13.5 6.5t-6.5 13.5v111q-119 19 -215.5 86.5t-132.5 181.5q-4 8 6 18l203 158q16 13 26 -4l23 -47q26 -52 81 -89.5t115 -37.5
q62 0 111 33t49 100q0 33 -21 62t-60 51.5t-68 35.5t-72 29q-179 69 -281 154q-133 115 -133 266q0 152 104.5 248.5t264.5 126.5v115q0 14 16 14h178q17 0 17 -14v-115q202 -38 321 -266q7 -15 -8 -21l-190 -127q-4 -3 -13 -1.5t-12 7.5l-26 39q-80 109 -197 109
q-20 0 -43 -4t-49 -13t-43 -28.5t-17 -46.5q0 -26 18 -49.5t52 -42.5t63.5 -32.5t72 -30t59.5 -24.5z" />
    <glyph glyph-name="percent" unicode="%" horiz-adv-x="2004" 
d="M944 1018q0 -155 -110 -268t-271 -113q-158 0 -269.5 111t-111.5 268q0 147 110 248.5t271 101.5q155 0 268 -96.5t113 -251.5zM1489 711q99 0 185.5 -42t142 -123t55.5 -184q0 -153 -112.5 -267.5t-270.5 -114.5q-156 0 -267.5 112t-111.5 270q0 146 109.5 247.5
t269.5 101.5zM1147 1360h235q8 0 13.5 -8t1.5 -19l-502 -1351q-3 -11 -16 -11h-232q-8 0 -14.5 7t-3.5 16l501 1352q7 14 17 14zM563 911q44 0 75.5 32t31.5 75q0 44 -30.5 71t-76.5 27q-44 0 -74 -27t-30 -71q0 -43 31 -75t73 -32zM1489 256q45 0 77.5 31.5t32.5 74.5
q0 42 -32.5 70.5t-77.5 28.5q-38 0 -72.5 -28.5t-34.5 -70.5q0 -43 32 -74.5t75 -31.5z" />
    <glyph glyph-name="ampersand" unicode="&#x26;" horiz-adv-x="1574" 
d="M1438 31q10 -7 5.5 -19t-16.5 -12h-337q-11 0 -15 8l-51 72q-121 -100 -299 -100h-66q-140 0 -235 32q-91 32 -145 92q-97 105 -97 306q0 127 37 208q40 81 119 138q-100 122 -100 276q0 171 118 252q117 88 344 88q192 0 312 -90q56 -50 84 -104q28 -52 28 -129
q0 -23 -8 -27l-242 -150q-9 -6 -17.5 -0.5t-8.5 17.5v76q0 64 -37.5 98.5t-93.5 34.5h-53q-50 0 -86.5 -18.5t-51.5 -51.5q-13 -33 4 -82q18 -55 74 -108l350 -336v80v108q0 14 9 17l247 155q9 6 18 1.5t9 -13.5v-236q0 -170 -61 -325zM694 256q48 0 115 29l-283 270
q-65 -54 -65 -127t43 -122.5t119 -49.5h71z" />
    <glyph glyph-name="quotesingle" unicode="'" horiz-adv-x="464" 
d="M203 1425h119q8 0 13.5 -6.5t4.5 -17.5l-25 -174q-5 -19 -16 -19h-74q-15 0 -18 19l-25 176q-3 9 3.5 15.5t17.5 6.5z" />
    <glyph glyph-name="parenleft" unicode="(" horiz-adv-x="870" 
d="M408 694q0 -166 68 -320.5t194 -271.5q29 -29 47 -41q10 -14 2 -22l-121 -189q-6 -17 -27 -4q-98 64 -174 161.5t-121.5 211.5t-68.5 235.5t-23 245.5q0 163 38.5 315.5t127.5 295.5t221 237q18 14 27 -8l119 -184q7 -10 -2 -23l-45 -41q-9 -7 -26 -25.5t-47 -57
t-56 -81.5q-133 -211 -133 -434z" />
    <glyph glyph-name="parenright" unicode=")" horiz-adv-x="870" 
d="M356 1548q193 -139 289 -367.5t96 -480.5q0 -167 -39 -325t-128 -301t-218 -228q-22 -13 -28 4l-121 189q-6 9 2 22q14 8 47 41q126 117 195 271.5t69 320.5q0 217 -133 434q-27 43 -57.5 81.5t-47.5 57t-26 25.5l-43 41q-12 12 -4 23l119 184q12 21 28 8z" />
    <glyph glyph-name="asterisk" unicode="*" horiz-adv-x="673" 
d="M305 1434q0 20 17 20h79q17 0 17 -20v-58l47 35q6 3 16 1.5t13 -7.5l43 -66q9 -15 -5 -26l-71 -45l71 -49q17 -14 5 -29l-45 -64q-11 -14 -27 -2l-47 31v-57q0 -15 -17 -15h-79q-17 0 -17 15v59l-49 -31q-17 -10 -27 2l-45 64q-10 12 9 27l67 49l-67 47q-14 11 -7 24
l43 66q10 17 29 6l47 -35v58z" />
    <glyph glyph-name="plus" unicode="+" horiz-adv-x="839" 
d="M336 461v141h-133q-21 0 -21 14v181q0 14 15 14h139v139q0 7 6 12t14 5h185q14 0 14 -17v-139h139q15 0 15 -14v-181q0 -14 -15 -14h-139v-141q0 -19 -14 -19h-185q-8 0 -14 6t-6 13z" />
    <glyph glyph-name="comma" unicode="," horiz-adv-x="563" 
d="M287 342q74 0 128 -50t54 -124q0 -16 -10 -51l-117 -303q-4 -15 -16 -15h-140q-13 0 -17 8.5t-1 18.5l65 164q-55 18 -93 66.5t-38 107.5q0 74 54.5 126t130.5 52z" />
    <glyph glyph-name="hyphen" unicode="-" horiz-adv-x="837" 
d="M203 811h491q4 0 9.5 -5.5t5.5 -8.5v-181q0 -14 -15 -14h-491q-21 0 -21 14v181q0 14 21 14z" />
    <glyph glyph-name="period" unicode="." horiz-adv-x="598" 
d="M299 -18q-72 0 -125 53.5t-53 128.5q0 74 52.5 126t125.5 52q76 0 130 -52t54 -126q0 -75 -54.5 -128.5t-129.5 -53.5z" />
    <glyph glyph-name="slash" unicode="/" horiz-adv-x="1083" 
d="M952 1333l-499 -1351q-3 -11 -19 -11h-237q-8 0 -12.5 7t-0.5 16l502 1352q4 14 14 14h236q10 0 14.5 -8.5t1.5 -18.5z" />
    <glyph glyph-name="zero" unicode="0" horiz-adv-x="1343" 
d="M700 1370q245 0 382 -171.5t137 -446.5v-156q0 -121 -31.5 -229.5t-93 -196t-163 -139t-231.5 -51.5q-127 0 -227 48.5t-163 133.5t-95.5 195.5t-32.5 238.5v156q0 148 35 264q48 163 177 258.5t306 95.5zM700 254q244 0 244 420q0 42 -1.5 76.5t-7.5 79.5t-16 80.5
t-28.5 71.5t-43.5 60t-62.5 39t-84.5 15q-59 0 -104 -28.5t-71 -71.5t-42.5 -102t-22 -111.5t-5.5 -108.5q0 -52 5 -102.5t21 -110.5t42 -104t71.5 -73.5t105.5 -29.5z" />
    <glyph glyph-name="one" unicode="1" horiz-adv-x="776" 
d="M332 1339q9 11 20 11h240q16 0 16 -19v-1313q0 -18 -16 -18h-234q-8 0 -13 5t-5 13v996l-127 -135q-7 -8 -19 -4t-12 16v229q0 4 1 7l1 3z" />
    <glyph glyph-name="two" unicode="2" horiz-adv-x="1202" 
d="M811 512q-19 -13 -76.5 -45.5t-102 -59t-84 -65t-42.5 -72.5h500q18 0 18 -16v-236q0 -8 -5 -13t-13 -5h-797q-7 0 -11.5 5.5t-4.5 12.5v232q0 72 23.5 137.5t59 114.5t91.5 97t107 81t120 72q103 59 142 98q83 83 24 168q-51 78 -144 78q-70 0 -115.5 -57.5
t-45.5 -137.5v-37q0 -10 -8.5 -15t-16.5 1l-237 141q-9 3 -9 21q0 108 64 191.5t161 125t205 41.5q192 0 320 -113q126 -117 141 -307q15 -249 -264 -438z" />
    <glyph glyph-name="three" unicode="3" horiz-adv-x="1150" 
d="M592 1370q186 0 309 -123t123 -315q0 -138 -98 -254q48 -46 73 -114.5t25 -141.5q0 -191 -119.5 -316.5t-312.5 -125.5q-129 0 -234.5 67.5t-173.5 192.5q-9 11 4 24l172 129q6 6 14 5t13 -7q61 -84 107 -110.5t104 -26.5q48 0 93.5 41.5t45.5 107.5t-44 122.5t-122 56.5
h-36q-8 0 -14.5 6.5t-6.5 13.5v189q0 6 5.5 11t12.5 5h31q69 0 121.5 41t52.5 98q0 67 -48 109.5t-118 42.5q-58 0 -105.5 -39.5t-72.5 -97.5q-8 -20 -24 -7l-181 136q-7 7 -4 20q20 81 85.5 142t149.5 89.5t173 28.5z" />
    <glyph glyph-name="four" unicode="4" horiz-adv-x="1249" 
d="M942 1352q8 0 13.5 -6t5.5 -13v-715h143q16 0 16 -16v-221q0 -19 -16 -19h-143v-344q0 -7 -5.5 -12.5t-13.5 -5.5h-233q-8 0 -13.5 5.5t-5.5 12.5v344h-491q-7 0 -12 5.5t-5 13.5v223q0 9 6 21l498 718q3 9 12 9h244zM690 618v312l-201 -312h201z" />
    <glyph glyph-name="five" unicode="5" horiz-adv-x="1167" 
d="M623 903q203 0 312 -107.5t103 -312.5v-34q0 -93 -30.5 -178t-85 -150.5t-137.5 -104.5t-181 -39q-319 0 -418 291q-5 22 2 29l205 137q8 6 16.5 4t10.5 -10l8 -29q16 -64 58.5 -104.5t107.5 -40.5q151 0 151 207q0 89 -46 141.5t-136 52.5q-27 0 -56.5 -2.5t-68 -9.5
t-58.5 -10.5t-69 -14t-57 -12.5q-21 -3 -21 17v710q0 8 4.5 13.5t10.5 5.5h657q7 0 13 -6t6 -13v-219q0 -7 -5.5 -12.5t-13.5 -5.5h-401v-197q82 4 119 4z" />
    <glyph glyph-name="six" unicode="6" horiz-adv-x="1243" 
d="M670 924q188 0 318 -126.5t130 -322.5v-47q0 -102 -31 -190q-30 -83 -97.5 -142.5t-152.5 -87.5t-180 -28h-12q-216 0 -339.5 120t-123.5 342v502q0 188 126 307t331 119h14q66 0 130.5 -14.5t126 -44.5t111 -83.5t73.5 -123.5q3 -16 -9 -21l-231 -118q-15 -6 -23 8
l-22 41q-41 80 -156 80q-165 0 -184 -195q102 25 201 25zM653 254q79 0 137 59.5t58 141.5q0 85 -54.5 142.5t-140.5 57.5t-142 -56t-56 -144t53.5 -144.5t144.5 -56.5z" />
    <glyph glyph-name="seven" unicode="7" horiz-adv-x="1042" 
d="M199 1096q-17 0 -17 18v219q0 8 5 13.5t12 5.5h696q7 0 12.5 -5.5t5.5 -13.5v-237l-432 -1086q-3 -10 -16 -10h-260q-9 0 -14.5 7.5t-2.5 15.5l428 1073h-417z" />
    <glyph glyph-name="eight" unicode="8" horiz-adv-x="1243" 
d="M965 801q153 -125 153 -352v-25q0 -103 -31 -188q-65 -164 -239 -226q-86 -30 -195 -30q-218 0 -344.5 118.5t-126.5 339.5v17q0 230 148 356q-62 97 -62 207q0 151 114 251.5t271 100.5q156 0 269 -96q61 -61 82 -109q28 -63 28 -147q0 -119 -67 -217zM653 1118
q-47 0 -77.5 -25.5t-30.5 -74.5q0 -43 32 -75t76 -32q41 0 73 32t32 75q0 41 -31 70.5t-74 29.5zM653 254q79 0 137 56.5t58 138.5q0 80 -55.5 134t-139.5 54q-86 0 -147 -55q-51 -45 -51 -133q0 -86 54 -140.5t144 -54.5z" />
    <glyph glyph-name="nine" unicode="9" horiz-adv-x="1243" 
d="M217 270l232 113q13 8 22 -6l23 -39q21 -38 55.5 -59t103.5 -21q162 0 181 193q-103 -27 -201 -27q-188 0 -322 119q-129 123 -129 329v50q0 195 129 321.5t334 126.5h12q217 0 339 -120.5t122 -344.5v-497q0 -193 -124 -310.5t-341 -117.5q-139 0 -264.5 70.5
t-179.5 197.5q-6 16 8 22zM649 696q84 0 141.5 56.5t57.5 142.5q0 84 -54 141.5t-141 57.5q-83 0 -141.5 -56.5t-58.5 -142.5q0 -83 55 -141t141 -58z" />
    <glyph glyph-name="colon" unicode=":" horiz-adv-x="618" 
d="M307 -18q-72 0 -125 53.5t-53 128.5q0 74 52.5 126t125.5 52q76 0 130.5 -52t54.5 -126q0 -75 -55 -128.5t-130 -53.5zM307 504q-72 0 -125 53.5t-53 128.5q0 74 52.5 126t125.5 52q76 0 130.5 -52t54.5 -126q0 -75 -55 -128.5t-130 -53.5z" />
    <glyph glyph-name="semicolon" unicode=";" horiz-adv-x="622" 
d="M309 504q-72 0 -125 53.5t-53 128.5q0 74 52.5 126t125.5 52q76 0 130.5 -52t54.5 -126q0 -75 -55 -128.5t-130 -53.5zM311 342q74 0 128.5 -50t54.5 -124q0 -12 -11 -51l-116 -303q-4 -15 -17 -15h-139q-13 0 -17 8.5t-1 18.5l65 164q-55 18 -93 66.5t-38 107.5
q0 74 54 126t130 52z" />
    <glyph glyph-name="less" unicode="&#x3c;" horiz-adv-x="860" 
d="M195 492q-13 3 -13 18v246q0 12 11 16l512 324q7 6 16.5 1.5t9.5 -14.5v-235q0 -14 -6 -17l-322 -184l318 -133q10 -3 10 -12v-236q0 -12 -8.5 -18t-17.5 0z" />
    <glyph glyph-name="equal" unicode="=" horiz-adv-x="837" 
d="M694 930q5 0 10 -7.5t5 -17.5v-174q0 -7 -5 -13.5t-10 -6.5h-491q-8 0 -14.5 6.5t-6.5 13.5v174q0 10 6.5 17.5t14.5 7.5h491zM694 657q5 0 10 -5.5t5 -12.5v-176q0 -7 -5 -13t-10 -6h-491q-8 0 -14.5 6t-6.5 13v176q0 7 6.5 12.5t14.5 5.5h491z" />
    <glyph glyph-name="greater" unicode="&#x3e;" horiz-adv-x="860" 
d="M729 510q0 -15 -8 -18l-514 -244q-9 -3 -17 1.5t-8 16.5v236q0 9 13 12l315 133l-317 184q-11 8 -11 17v235q0 6 9.5 12t17.5 1l510 -320q10 -6 10 -20v-246z" />
    <glyph glyph-name="question" unicode="?" horiz-adv-x="1191" 
d="M500 342q76 0 128 -51.5t52 -126.5q0 -76 -52 -129t-128 -53q-73 0 -125.5 53.5t-52.5 128.5t52 126.5t126 51.5zM578 1370q77 0 154 -23t142.5 -66t110 -113t51.5 -156q12 -104 -45 -203q-54 -89 -162 -154q-127 -73 -165 -129q-18 -19 -23.5 -39.5t-5.5 -58.5
q0 -7 -5.5 -12.5t-13.5 -5.5h-249q-17 0 -17 22q0 82 10 123q28 105 115 164q12 9 78 52.5t105.5 79t56.5 73.5q28 71 -10 121.5t-119 50.5q-74 0 -120 -57.5t-44 -135.5v-51q0 -9 -8 -13.5t-17 -0.5l-231 116q-10 2 -10 19q-7 79 27.5 154t95 127.5t140 84t159.5 31.5z" />
    <glyph glyph-name="at" unicode="@" horiz-adv-x="1517" 
d="M1188 1284q203 -123 203 -432v-295q0 -146 -60 -231q-76 -99 -211 -99q-102 0 -174 43q-59 49 -78 133q-40 -52 -80 -77t-102 -25q-97 0 -143.5 74.5t-46.5 185.5v225q0 101 55 164q59 72 160 72q90 0 143 -41l20 -20v43q0 18 19 18h149q17 0 17 -18q-6 -171 -6 -443
q0 -69 10.5 -90.5t42.5 -21.5q33 0 48 25t15 83v295q0 172 -100 242q-91 61 -276 61h-43q-177 0 -261 -90q-100 -100 -100 -356v-195q0 -172 94 -254q75 -63 183 -63q91 0 168 67q15 7 26 -4l127 -149q9 -12 0 -27q-8 -19 -57 -49q-94 -55 -256 -55q-236 0 -355 131
q-137 143 -137 483v182q0 160 35 279q36 118 102 184q133 127 426 127h78q119 0 183 -14q114 -20 182 -68zM852 606v144q0 22 -37.5 40.5t-64.5 18.5q-19 0 -33 -3.5t-29 -14.5t-23 -36.5t-8 -64.5v-33q0 -34 7.5 -64.5t31 -55.5t60.5 -25q31 0 58.5 29.5t37.5 64.5z" />
    <glyph glyph-name="A" unicode="A" 
d="M449 1339q4 13 14 13h254q10 0 14 -13l354 -1316q2 -9 -3.5 -16t-14.5 -7h-233q-12 0 -15 12l-80 287h-299l-78 -287q-3 -12 -14 -12h-235q-9 0 -15 7t-4 16zM506 553h170l-88 309z" />
    <glyph glyph-name="B" unicode="B" horiz-adv-x="1177" 
d="M965 1001q0 -128 -41 -200q110 -104 110 -359q0 -271 -121 -366q-97 -76 -305 -76h-399q-16 0 -16 18v1315q0 19 16 19h328q211 0 303 -60q125 -79 125 -291zM463 1083v-184h125q52 0 76 20t24 72q0 51 -35.5 71.5t-107.5 20.5h-82zM541 268q94 0 156.5 44.5t62.5 136.5
q0 75 -48.5 125.5t-125.5 50.5h-123v-357h78z" />
    <glyph glyph-name="C" unicode="C" horiz-adv-x="1257" 
d="M834 473v64q0 7 5 12.5t13 5.5h233q8 0 13.5 -5.5t5.5 -12.5v-129q0 -222 -117 -325t-350 -103q-226 0 -348.5 101t-122.5 327v538q0 222 118 323t353 101q228 0 347.5 -99t119.5 -325v-43q0 -7 -5.5 -12.5t-13.5 -5.5h-235q-8 0 -13.5 5.5t-5.5 12.5v33q0 80 -51.5 120
t-132.5 40h-24q-99 0 -144 -60q-39 -52 -39 -157v-406q0 -63 16.5 -108t45 -67.5t58 -32t63.5 -9.5h24q101 0 146 59q41 56 41 158z" />
    <glyph glyph-name="D" unicode="D" horiz-adv-x="1292" 
d="M721 1352q207 0 313 -115q92 -103 92 -291v-543q0 -188 -105.5 -295.5t-299.5 -107.5h-512q-16 0 -16 18v1315q0 19 16 19h512zM858 465v420q0 99 -53 155t-158 56h-184v-840h184q94 0 152.5 57t58.5 152z" />
    <glyph glyph-name="E" unicode="E" horiz-adv-x="1077" 
d="M209 0q-16 0 -16 18v1315q0 19 16 19h696q7 0 13 -6t6 -13v-219q0 -7 -5.5 -12.5t-13.5 -5.5h-442v-279h344q16 0 16 -18v-224q0 -18 -16 -18h-344v-301h442q8 0 13.5 -5.5t5.5 -12.5v-220q0 -7 -5.5 -12.5t-13.5 -5.5h-696z" />
    <glyph glyph-name="F" unicode="F" horiz-adv-x="1017" 
d="M444 0h-235q-16 0 -16 18v1315q0 19 16 19h696q7 0 13 -6t6 -13v-219q0 -7 -5.5 -12.5t-13.5 -5.5h-442v-279h344q16 0 16 -18v-224q0 -18 -16 -18h-344v-539q0 -7 -5.5 -12.5t-13.5 -5.5z" />
    <glyph glyph-name="G" unicode="G" horiz-adv-x="1259" 
d="M616 492q-8 0 -13 5t-5 13v219q0 8 5.5 13.5t12.5 5.5h469q7 0 13 -6t6 -13v-321q0 -222 -117 -325t-350 -103q-226 0 -348.5 101t-122.5 327v538q0 219 118.5 321.5t352.5 102.5q227 0 347 -99.5t120 -324.5v-43q0 -7 -5.5 -12.5t-13.5 -5.5h-235q-8 0 -13.5 5.5
t-5.5 12.5v27q0 166 -184 166h-24q-99 0 -144 -60q-39 -52 -39 -157v-406q0 -64 16 -108.5t44 -67t57.5 -32t65.5 -9.5h24q91 0 137.5 58t46.5 159v19h-215z" />
    <glyph glyph-name="H" unicode="H" horiz-adv-x="1253" 
d="M793 819v514q0 8 5.5 13.5t12.5 5.5h233q8 0 13.5 -6t5.5 -13v-1315q0 -7 -5.5 -12.5t-13.5 -5.5h-233q-7 0 -12.5 5t-5.5 13v545h-332v-545q0 -7 -5.5 -12.5t-13.5 -5.5h-233q-16 0 -16 18v1315q0 19 16 19h233q8 0 13.5 -6t5.5 -13v-514h332z" />
    <glyph glyph-name="I" unicode="I" horiz-adv-x="645" 
d="M209 0q-16 0 -16 18v1315q0 19 16 19h233q8 0 13.5 -6t5.5 -13v-1315q0 -7 -5.5 -12.5t-13.5 -5.5h-233z" />
    <glyph glyph-name="J" unicode="J" horiz-adv-x="1042" 
d="M614 1352h236q7 0 12.5 -5.5t5.5 -13.5v-981q0 -151 -106.5 -260.5t-261.5 -109.5h-51q-129 0 -244 92q-105 98 -160 217q-6 15 6 24l215 150q6 5 14 3.5t11 -9.5q11 -31 20.5 -53.5t26.5 -53t35 -49.5t45 -33t57 -14q36 0 61.5 22.5t37.5 59.5t17 72t5 73v850
q0 8 5.5 13.5t12.5 5.5z" />
    <glyph glyph-name="K" unicode="K" horiz-adv-x="1189" 
d="M1053 1352q10 0 15 -10t-1 -19l-322 -444l340 -856q3 -8 -1.5 -15.5t-14.5 -7.5h-276q-12 0 -15 12l-213 613l-104 -144v-463q0 -7 -5.5 -12.5t-13.5 -5.5h-233q-16 0 -16 18v1315q0 19 16 19h233q8 0 13.5 -6t5.5 -13v-424l321 434q7 9 17 9h254z" />
    <glyph glyph-name="L" unicode="L" horiz-adv-x="1015" 
d="M442 1352q8 0 13.5 -6t5.5 -13v-1075h442q8 0 13.5 -5.5t5.5 -12.5v-222q0 -7 -5.5 -12.5t-13.5 -5.5h-694q-16 0 -16 18v1315q0 19 16 19h233z" />
    <glyph glyph-name="M" unicode="M" horiz-adv-x="1533" 
d="M1323 1352q7 0 12.5 -5.5t5.5 -13.5v-1315q0 -8 -5.5 -13t-12.5 -5h-223q-5 0 -11 5.5t-6 12.5v758l-225 -764q-6 -12 -16 -12h-162q-13 0 -16 12l-211 779v-773q0 -7 -5.5 -12.5t-13.5 -5.5h-227q-14 0 -14 18v1315q0 19 14 19h287q14 0 18 -13l248 -829l272 829
q0 5 4.5 9t10.5 4h276z" />
    <glyph glyph-name="N" unicode="N" horiz-adv-x="1216" 
d="M752 1333q0 8 5.5 13.5t12.5 5.5h236q7 0 12.5 -5.5t5.5 -13.5v-1315q0 -8 -5 -13t-13 -5h-228q-15 0 -18 10l-299 674v-666q0 -7 -5.5 -12.5t-13.5 -5.5h-233q-16 0 -16 18v1315q0 19 16 19h242q9 0 14 -11l287 -661v653z" />
    <glyph glyph-name="O" unicode="O" horiz-adv-x="1269" 
d="M637 1370q263 0 377 -123q90 -100 90 -301v-538q0 -209 -90 -306q-119 -122 -377 -122q-263 0 -379 122q-92 103 -92 306v538q0 200 92 303q112 121 379 121zM831 469v410q0 217 -184 217h-24q-183 0 -183 -217v-410q0 -64 16 -109.5t44 -68t57.5 -32t65.5 -9.5h24
q181 0 184 219z" />
    <glyph glyph-name="P" unicode="P" horiz-adv-x="1093" 
d="M633 1352q172 0 268 -95.5t96 -273.5v-258q0 -166 -97 -266.5t-267 -100.5h-172v-340q0 -7 -5.5 -12.5t-13.5 -5.5h-235q-14 0 -14 18v1315q0 19 14 19h426zM729 786v136q0 52 -11.5 83.5t-40.5 47t-63 20t-94 4.5h-59v-450h59q48 0 81.5 5.5t64.5 21.5t47 49t16 83z" />
    <glyph glyph-name="Q" unicode="Q" horiz-adv-x="1251" 
d="M623 1370q224 0 344 -100t120 -324v-538q0 -180 -76 -283t-253 -137v-127q0 -7 -7 -14t-14 -7h-233q-8 0 -14.5 7t-6.5 14v127q-171 32 -251 134.5t-80 285.5v538q0 222 118 323t353 101zM817 473v406q0 217 -184 217h-27q-92 0 -137 -57t-45 -160v-406q0 -64 16 -108.5
t44 -67t57.5 -32t64.5 -9.5h27q92 0 138 57.5t46 159.5z" />
    <glyph glyph-name="R" unicode="R" horiz-adv-x="1167" 
d="M961 535q-46 -94 -127 -132l172 -378q4 -9 -1 -17t-14 -8h-252q-11 0 -14 10l-160 348h-104v-340q0 -7 -5.5 -12.5t-13.5 -5.5h-235q-14 0 -14 18v1315q0 19 14 19h426q172 0 268 -95.5t96 -273.5v-258q0 -117 -36 -190zM729 788v134q0 43 -7.5 71t-20.5 45.5t-40.5 26.5
t-58 11.5t-82.5 2.5h-59v-452h59h41t36.5 1.5t33.5 4.5t27.5 8.5t24.5 13.5t18 20t15 28t8.5 37.5t4.5 47.5z" />
    <glyph glyph-name="S" unicode="S" horiz-adv-x="1126" 
d="M653 829q55 -26 98 -50t95 -62t85.5 -78t57 -95t23.5 -116q0 -166 -78 -281q-112 -167 -359 -167q-91 0 -177 28t-159.5 91.5t-103.5 154.5q-3 10 6 16l189 162q16 12 26 -4q2 -5 23 -47q25 -51 76.5 -89t109.5 -38q57 0 103.5 33t46.5 100q0 27 -15 52t-34.5 42t-52 35
t-54 27.5t-53.5 21.5q-167 67 -266 154q-125 116 -125 266q0 92 40 167.5t106 121.5t146 71t166 25q265 0 394 -274q7 -14 -6 -23l-183 -127q-11 -5 -20 6q-54 77 -103.5 112.5t-109.5 35.5q-19 0 -41 -4t-46.5 -13t-40.5 -28.5t-16 -46.5q0 -26 17 -49.5t49 -43t60.5 -32.5
t69 -30t56.5 -24z" />
    <glyph glyph-name="T" unicode="T" horiz-adv-x="1079" 
d="M113 1096q-8 0 -13.5 5.5t-5.5 12.5v219q0 7 6 13t13 6h854q7 0 12.5 -5.5t5.5 -13.5v-219q0 -8 -5.5 -13t-12.5 -5h-291v-1078q0 -7 -5.5 -12.5t-13.5 -5.5h-235q-8 0 -13.5 5.5t-5.5 12.5v1078h-290z" />
    <glyph glyph-name="U" unicode="U" horiz-adv-x="1290" 
d="M844 473v860q0 8 5.5 13.5t12.5 5.5h234q7 0 12.5 -5.5t5.5 -13.5v-925q0 -218 -117.5 -323t-349.5 -105q-227 0 -348 101t-121 327v925q0 7 6 13t13 6h235q8 0 13.5 -6t5.5 -13v-860q0 -64 16.5 -108.5t44.5 -67t58 -32t65 -9.5h24q93 0 139 57.5t46 159.5z" />
    <glyph glyph-name="V" unicode="V" horiz-adv-x="1181" 
d="M592 492l231 847q9 13 17 13h233q9 0 14.5 -7t2.5 -16l-355 -1317q-6 -12 -16 -12h-254q-11 0 -14 12l-355 1317q-2 9 4 16t15 7h235q8 0 17 -13z" />
    <glyph glyph-name="W" unicode="W" horiz-adv-x="1789" 
d="M1647 1352q9 0 14 -7t2 -16l-352 -1317q-3 -12 -19 -12h-225q-12 0 -18 12l-140 518l-188 -520q-3 -10 -14 -10h-218q-13 0 -16 12l-350 1319q-2 8 3 14.5t15 6.5h236q10 0 14 -13l227 -868l170 514l-94 344q-3 9 3 16t14 7h254q11 0 16 -13l188 -835l226 835q4 13 16 13
h236z" />
    <glyph glyph-name="X" unicode="X" horiz-adv-x="1159" 
d="M995 1352q9 0 14.5 -8.5t2.5 -18.5l-267 -600l322 -700q4 -9 -0.5 -17t-13.5 -8h-232q-11 0 -14 10l-225 479l-226 -479q-6 -10 -16 -10h-234q-9 0 -13.5 8t-0.5 17l320 700l-265 600q-3 10 2.5 18.5t14.5 8.5h237q6 0 17 -11l164 -364l166 364q6 11 14 11h233z" />
    <glyph glyph-name="Y" unicode="Y" horiz-adv-x="1046" 
d="M524 997l174 344q7 11 17 11h229q9 0 14.5 -7.5t2.5 -15.5l-297 -690v-621q0 -7 -5.5 -12.5t-13.5 -5.5h-242q-5 0 -9.5 5.5t-4.5 12.5v621l-305 686q-3 11 1.5 19t14.5 8h230q9 0 16 -11z" />
    <glyph glyph-name="Z" unicode="Z" horiz-adv-x="1208" 
d="M522 256h482q8 0 13 -5t5 -13v-220q0 -8 -5 -13t-13 -5h-791q-18 0 -18 18v228q0 2 2 8l493 842h-483q-8 0 -13.5 5.5t-5.5 12.5v219q0 7 6 13t13 6h797q14 0 14 -17v-229q0 -6 -2 -8z" />
    <glyph glyph-name="bracketleft" unicode="[" horiz-adv-x="813" 
d="M489 121h179q7 0 12.5 -5.5t5.5 -13.5v-235q0 -8 -5.5 -13.5t-12.5 -5.5h-430q-8 0 -13.5 6t-5.5 13v1620q0 7 5.5 12.5t13.5 5.5h430q8 0 13 -5.5t5 -12.5v-234q0 -16 -18 -16h-179v-1116z" />
    <glyph glyph-name="backslash" unicode="\" horiz-adv-x="1085" 
d="M952 8q7 -26 -12 -26h-240q-10 0 -14 12l-502 1349q-4 9 2 18t17 9h231q16 0 19 -10z" />
    <glyph glyph-name="bracketright" unicode="]" horiz-adv-x="813" 
d="M637 1505q7 0 12.5 -5.5t5.5 -12.5v-1622q0 -8 -5.5 -13.5t-12.5 -5.5h-430q-7 0 -13 6t-6 13v237q0 8 6 13.5t13 5.5h176v1116h-176q-19 0 -19 16v234q0 7 5.5 12.5t13.5 5.5h430z" />
    <glyph glyph-name="asciicircum" unicode="^" horiz-adv-x="1161" 
d="M776 1352q12 0 15 -9l243 -514q3 -10 -1.5 -19t-14.5 -9h-236q-4 0 -9 5t-7 11l-131 318l-182 -322q-12 -12 -15 -12h-235q-11 0 -17.5 10.5t0.5 19.5l320 512q7 9 18 9h252z" />
    <glyph glyph-name="underscore" unicode="_" horiz-adv-x="1329" 
d="M1200 -193q0 -8 -5.5 -13t-12.5 -5h-979q-21 0 -21 18v177q0 6 7 12t14 6h979q8 0 13 -5t5 -13v-177z" />
    <glyph glyph-name="grave" unicode="`" horiz-adv-x="505" 
d="M281 1206l-95 174q-3 8 2 16.5t15 8.5h133q12 0 16 -19l27 -169q3 -21 -19 -21h-63q-9 0 -16 10z" />
    <glyph glyph-name="a" unicode="a" 
d="M449 1339q4 13 14 13h254q10 0 14 -13l354 -1316q2 -9 -3.5 -16t-14.5 -7h-233q-12 0 -15 12l-80 287h-299l-78 -287q-3 -12 -14 -12h-235q-9 0 -15 7t-4 16zM506 553h170l-88 309z" />
    <glyph glyph-name="b" unicode="b" horiz-adv-x="1177" 
d="M965 1001q0 -128 -41 -200q110 -104 110 -359q0 -271 -121 -366q-97 -76 -305 -76h-399q-16 0 -16 18v1315q0 19 16 19h328q211 0 303 -60q125 -79 125 -291zM463 1083v-184h125q52 0 76 20t24 72q0 51 -35.5 71.5t-107.5 20.5h-82zM541 268q94 0 156.5 44.5t62.5 136.5
q0 75 -48.5 125.5t-125.5 50.5h-123v-357h78z" />
    <glyph glyph-name="c" unicode="c" horiz-adv-x="1257" 
d="M834 473v64q0 7 5 12.5t13 5.5h233q8 0 13.5 -5.5t5.5 -12.5v-129q0 -222 -117 -325t-350 -103q-226 0 -348.5 101t-122.5 327v538q0 222 118 323t353 101q228 0 347.5 -99t119.5 -325v-43q0 -7 -5.5 -12.5t-13.5 -5.5h-235q-8 0 -13.5 5.5t-5.5 12.5v33q0 80 -51.5 120
t-132.5 40h-24q-99 0 -144 -60q-39 -52 -39 -157v-406q0 -63 16.5 -108t45 -67.5t58 -32t63.5 -9.5h24q101 0 146 59q41 56 41 158z" />
    <glyph glyph-name="d" unicode="d" horiz-adv-x="1292" 
d="M721 1352q207 0 313 -115q92 -103 92 -291v-543q0 -188 -105.5 -295.5t-299.5 -107.5h-512q-16 0 -16 18v1315q0 19 16 19h512zM858 465v420q0 99 -53 155t-158 56h-184v-840h184q94 0 152.5 57t58.5 152z" />
    <glyph glyph-name="e" unicode="e" horiz-adv-x="1077" 
d="M209 0q-16 0 -16 18v1315q0 19 16 19h696q7 0 13 -6t6 -13v-219q0 -7 -5.5 -12.5t-13.5 -5.5h-442v-279h344q16 0 16 -18v-224q0 -18 -16 -18h-344v-301h442q8 0 13.5 -5.5t5.5 -12.5v-220q0 -7 -5.5 -12.5t-13.5 -5.5h-696z" />
    <glyph glyph-name="f" unicode="f" horiz-adv-x="1017" 
d="M444 0h-235q-16 0 -16 18v1315q0 19 16 19h696q7 0 13 -6t6 -13v-219q0 -7 -5.5 -12.5t-13.5 -5.5h-442v-279h344q16 0 16 -18v-224q0 -18 -16 -18h-344v-539q0 -7 -5.5 -12.5t-13.5 -5.5z" />
    <glyph glyph-name="g" unicode="g" horiz-adv-x="1259" 
d="M616 492q-8 0 -13 5t-5 13v219q0 8 5.5 13.5t12.5 5.5h469q7 0 13 -6t6 -13v-321q0 -222 -117 -325t-350 -103q-226 0 -348.5 101t-122.5 327v538q0 219 118.5 321.5t352.5 102.5q227 0 347 -99.5t120 -324.5v-43q0 -7 -5.5 -12.5t-13.5 -5.5h-235q-8 0 -13.5 5.5
t-5.5 12.5v27q0 166 -184 166h-24q-99 0 -144 -60q-39 -52 -39 -157v-406q0 -64 16 -108.5t44 -67t57.5 -32t65.5 -9.5h24q91 0 137.5 58t46.5 159v19h-215z" />
    <glyph glyph-name="h" unicode="h" horiz-adv-x="1253" 
d="M793 819v514q0 8 5.5 13.5t12.5 5.5h233q8 0 13.5 -6t5.5 -13v-1315q0 -7 -5.5 -12.5t-13.5 -5.5h-233q-7 0 -12.5 5t-5.5 13v545h-332v-545q0 -7 -5.5 -12.5t-13.5 -5.5h-233q-16 0 -16 18v1315q0 19 16 19h233q8 0 13.5 -6t5.5 -13v-514h332z" />
    <glyph glyph-name="i" unicode="i" horiz-adv-x="645" 
d="M209 0q-16 0 -16 18v1315q0 19 16 19h233q8 0 13.5 -6t5.5 -13v-1315q0 -7 -5.5 -12.5t-13.5 -5.5h-233z" />
    <glyph glyph-name="j" unicode="j" horiz-adv-x="1042" 
d="M614 1352h236q7 0 12.5 -5.5t5.5 -13.5v-981q0 -151 -106.5 -260.5t-261.5 -109.5h-51q-129 0 -244 92q-105 98 -160 217q-6 15 6 24l215 150q6 5 14 3.5t11 -9.5q11 -31 20.5 -53.5t26.5 -53t35 -49.5t45 -33t57 -14q36 0 61.5 22.5t37.5 59.5t17 72t5 73v850
q0 8 5.5 13.5t12.5 5.5z" />
    <glyph glyph-name="k" unicode="k" horiz-adv-x="1189" 
d="M1053 1352q10 0 15 -10t-1 -19l-322 -444l340 -856q3 -8 -1.5 -15.5t-14.5 -7.5h-276q-12 0 -15 12l-213 613l-104 -144v-463q0 -7 -5.5 -12.5t-13.5 -5.5h-233q-16 0 -16 18v1315q0 19 16 19h233q8 0 13.5 -6t5.5 -13v-424l321 434q7 9 17 9h254z" />
    <glyph glyph-name="l" unicode="l" horiz-adv-x="1015" 
d="M442 1352q8 0 13.5 -6t5.5 -13v-1075h442q8 0 13.5 -5.5t5.5 -12.5v-222q0 -7 -5.5 -12.5t-13.5 -5.5h-694q-16 0 -16 18v1315q0 19 16 19h233z" />
    <glyph glyph-name="m" unicode="m" horiz-adv-x="1533" 
d="M1323 1352q7 0 12.5 -5.5t5.5 -13.5v-1315q0 -8 -5.5 -13t-12.5 -5h-223q-5 0 -11 5.5t-6 12.5v758l-225 -764q-6 -12 -16 -12h-162q-13 0 -16 12l-211 779v-773q0 -7 -5.5 -12.5t-13.5 -5.5h-227q-14 0 -14 18v1315q0 19 14 19h287q14 0 18 -13l248 -829l272 829
q0 5 4.5 9t10.5 4h276z" />
    <glyph glyph-name="n" unicode="n" horiz-adv-x="1216" 
d="M752 1333q0 8 5.5 13.5t12.5 5.5h236q7 0 12.5 -5.5t5.5 -13.5v-1315q0 -8 -5 -13t-13 -5h-228q-15 0 -18 10l-299 674v-666q0 -7 -5.5 -12.5t-13.5 -5.5h-233q-16 0 -16 18v1315q0 19 16 19h242q9 0 14 -11l287 -661v653z" />
    <glyph glyph-name="o" unicode="o" horiz-adv-x="1269" 
d="M637 1370q263 0 377 -123q90 -100 90 -301v-538q0 -209 -90 -306q-119 -122 -377 -122q-263 0 -379 122q-92 103 -92 306v538q0 200 92 303q112 121 379 121zM831 469v410q0 217 -184 217h-24q-183 0 -183 -217v-410q0 -64 16 -109.5t44 -68t57.5 -32t65.5 -9.5h24
q181 0 184 219z" />
    <glyph glyph-name="p" unicode="p" horiz-adv-x="1093" 
d="M633 1352q172 0 268 -95.5t96 -273.5v-258q0 -166 -97 -266.5t-267 -100.5h-172v-340q0 -7 -5.5 -12.5t-13.5 -5.5h-235q-14 0 -14 18v1315q0 19 14 19h426zM729 786v136q0 52 -11.5 83.5t-40.5 47t-63 20t-94 4.5h-59v-450h59q48 0 81.5 5.5t64.5 21.5t47 49t16 83z" />
    <glyph glyph-name="q" unicode="q" horiz-adv-x="1251" 
d="M623 1370q224 0 344 -100t120 -324v-538q0 -180 -76 -283t-253 -137v-127q0 -7 -7 -14t-14 -7h-233q-8 0 -14.5 7t-6.5 14v127q-171 32 -251 134.5t-80 285.5v538q0 222 118 323t353 101zM817 473v406q0 217 -184 217h-27q-92 0 -137 -57t-45 -160v-406q0 -64 16 -108.5
t44 -67t57.5 -32t64.5 -9.5h27q92 0 138 57.5t46 159.5z" />
    <glyph glyph-name="r" unicode="r" horiz-adv-x="1167" 
d="M961 535q-46 -94 -127 -132l172 -378q4 -9 -1 -17t-14 -8h-252q-11 0 -14 10l-160 348h-104v-340q0 -7 -5.5 -12.5t-13.5 -5.5h-235q-14 0 -14 18v1315q0 19 14 19h426q172 0 268 -95.5t96 -273.5v-258q0 -117 -36 -190zM729 788v134q0 43 -7.5 71t-20.5 45.5t-40.5 26.5
t-58 11.5t-82.5 2.5h-59v-452h59h41t36.5 1.5t33.5 4.5t27.5 8.5t24.5 13.5t18 20t15 28t8.5 37.5t4.5 47.5z" />
    <glyph glyph-name="s" unicode="s" horiz-adv-x="1126" 
d="M653 829q55 -26 98 -50t95 -62t85.5 -78t57 -95t23.5 -116q0 -166 -78 -281q-112 -167 -359 -167q-91 0 -177 28t-159.5 91.5t-103.5 154.5q-3 10 6 16l189 162q16 12 26 -4q2 -5 23 -47q25 -51 76.5 -89t109.5 -38q57 0 103.5 33t46.5 100q0 27 -15 52t-34.5 42t-52 35
t-54 27.5t-53.5 21.5q-167 67 -266 154q-125 116 -125 266q0 92 40 167.5t106 121.5t146 71t166 25q265 0 394 -274q7 -14 -6 -23l-183 -127q-11 -5 -20 6q-54 77 -103.5 112.5t-109.5 35.5q-19 0 -41 -4t-46.5 -13t-40.5 -28.5t-16 -46.5q0 -26 17 -49.5t49 -43t60.5 -32.5
t69 -30t56.5 -24z" />
    <glyph glyph-name="t" unicode="t" horiz-adv-x="1079" 
d="M113 1096q-8 0 -13.5 5.5t-5.5 12.5v219q0 7 6 13t13 6h854q7 0 12.5 -5.5t5.5 -13.5v-219q0 -8 -5.5 -13t-12.5 -5h-291v-1078q0 -7 -5.5 -12.5t-13.5 -5.5h-235q-8 0 -13.5 5.5t-5.5 12.5v1078h-290z" />
    <glyph glyph-name="u" unicode="u" horiz-adv-x="1290" 
d="M844 473v860q0 8 5.5 13.5t12.5 5.5h234q7 0 12.5 -5.5t5.5 -13.5v-925q0 -218 -117.5 -323t-349.5 -105q-227 0 -348 101t-121 327v925q0 7 6 13t13 6h235q8 0 13.5 -6t5.5 -13v-860q0 -64 16.5 -108.5t44.5 -67t58 -32t65 -9.5h24q93 0 139 57.5t46 159.5z" />
    <glyph glyph-name="v" unicode="v" horiz-adv-x="1181" 
d="M592 492l231 847q9 13 17 13h233q9 0 14.5 -7t2.5 -16l-355 -1317q-6 -12 -16 -12h-254q-11 0 -14 12l-355 1317q-2 9 4 16t15 7h235q8 0 17 -13z" />
    <glyph glyph-name="w" unicode="w" horiz-adv-x="1789" 
d="M1647 1352q9 0 14 -7t2 -16l-352 -1317q-3 -12 -19 -12h-225q-12 0 -18 12l-140 518l-188 -520q-3 -10 -14 -10h-218q-13 0 -16 12l-350 1319q-2 8 3 14.5t15 6.5h236q10 0 14 -13l227 -868l170 514l-94 344q-3 9 3 16t14 7h254q11 0 16 -13l188 -835l226 835q4 13 16 13
h236z" />
    <glyph glyph-name="x" unicode="x" horiz-adv-x="1159" 
d="M995 1352q9 0 14.5 -8.5t2.5 -18.5l-267 -600l322 -700q4 -9 -0.5 -17t-13.5 -8h-232q-11 0 -14 10l-225 479l-226 -479q-6 -10 -16 -10h-234q-9 0 -13.5 8t-0.5 17l320 700l-265 600q-3 10 2.5 18.5t14.5 8.5h237q6 0 17 -11l164 -364l166 364q6 11 14 11h233z" />
    <glyph glyph-name="y" unicode="y" horiz-adv-x="1046" 
d="M524 997l174 344q7 11 17 11h229q9 0 14.5 -7.5t2.5 -15.5l-297 -690v-621q0 -7 -5.5 -12.5t-13.5 -5.5h-242q-5 0 -9.5 5.5t-4.5 12.5v621l-305 686q-3 11 1.5 19t14.5 8h230q9 0 16 -11z" />
    <glyph glyph-name="z" unicode="z" horiz-adv-x="1208" 
d="M522 256h482q8 0 13 -5t5 -13v-220q0 -8 -5 -13t-13 -5h-791q-18 0 -18 18v228q0 2 2 8l493 842h-483q-8 0 -13.5 5.5t-5.5 12.5v219q0 7 6 13t13 6h797q14 0 14 -17v-229q0 -6 -2 -8z" />
    <glyph glyph-name="braceleft" unicode="{" horiz-adv-x="796" 
d="M217 1311q15 93 86 149t170 56h180q7 0 12 -5.5t5 -13.5q-2 -51 -2 -244q0 -7 -5 -11.5t-10 -4.5h-88q-33 0 -53.5 -22t-26 -52.5t-0.5 -62.5q3 -25 24 -105.5t21 -132.5q0 -104 -69 -198q69 -90 69 -201q0 -35 -7.5 -73t-19.5 -85t-18 -80q-9 -48 10.5 -90.5t69.5 -42.5
h88q5 0 10 -5.5t5 -12.5v-244q0 -7 -5 -11.5t-10 -4.5h-180q-95 0 -167 53.5t-89 146.5q-13 74 2 148q37 209 35 293q-6 151 -61 192q-7 6 -8.5 15.5t3.5 15.5q60 54 66 194q2 56 -24 211t-13 228z" />
    <glyph glyph-name="bar" unicode="|" horiz-adv-x="581" 
d="M199 1442h239q3 0 9.5 -5.5t7.5 -11.5v-1519q0 -6 -6 -12.5t-11 -6.5h-239q-5 0 -11 6.5t-6 12.5v1519q0 6 6 11.5t11 5.5z" />
    <glyph glyph-name="braceright" unicode="}" horiz-adv-x="796" 
d="M668 678q16 -16 0 -29q-64 -52 -64 -194q0 -45 24 -208t9 -233q-13 -71 -51 -114q-66 -86 -203 -86h-176q-19 0 -19 16v244q0 7 5.5 12.5t13.5 5.5h82q50 0 72.5 39.5t9.5 93.5q-4 23 -16.5 71t-19.5 88.5t-7 78.5q0 112 65 201q-65 92 -65 198q0 30 6 62t17.5 82.5
t19.5 93.5q9 53 -10 95t-72 42h-82q-19 0 -19 16v244q0 7 6 13t13 6h176q130 0 203 -89q39 -51 51 -116q18 -77 -7.5 -231.5t-25.5 -207.5q0 -140 64 -194z" />
    <glyph glyph-name="asciitilde" unicode="~" horiz-adv-x="1196" 
d="M727 565q-31 0 -78 -35q-65 -61 -176 -61q-143 0 -227 127q-28 40 -45 93.5t-19 103.5q0 6 5 11t12 5h223q7 0 12.5 -5t5.5 -11q7 -26 12.5 -40t22 -29t41.5 -15q35 0 68 30q78 72 196 72q140 0 224 -123q61 -96 61 -196q0 -8 -5.5 -13.5t-12.5 -5.5h-224q-13 0 -16 16
q-19 45 -37 60.5t-43 15.5z" />
    <glyph glyph-name="exclamdown" unicode="&#xa1;" horiz-adv-x="684" 
d="M178 627h225q7 0 13 -5.5t6 -13.5l57 -913q0 -19 -18 -19h-336q-8 0 -13.5 6t-5.5 13l56 913q0 19 16 19zM285 688q-76 0 -129.5 52.5t-53.5 127.5q0 74 53.5 127.5t129.5 53.5q72 0 124 -53.5t52 -127.5q0 -75 -52 -127.5t-124 -52.5z" />
    <glyph glyph-name="cent" unicode="&#xa2;" horiz-adv-x="1130" 
d="M895 1026q57 -74 57 -227v-31q0 -8 -5 -13t-13 -5h-195q-7 0 -12.5 5t-5.5 13v20q0 63 -40.5 98.5t-102.5 35.5h-23q-76 0 -113 -43q-34 -36 -34 -134v-157q0 -176 147 -176h23q75 0 113 47t38 129v49q0 7 5.5 12.5t13.5 5.5h186q8 0 13 -5.5t5 -12.5v-102
q0 -152 -64 -235.5t-214 -113.5v-155q0 -6 -6 -12.5t-13 -6.5h-176q-7 0 -13.5 6.5t-6.5 12.5v155q-156 28 -221 121q-60 78 -60 228v264q0 142 60 227q70 94 221 115v149q0 8 6.5 14.5t13.5 6.5h176q7 0 13 -5.5t6 -13.5v-151q154 -21 221 -115z" />
    <glyph glyph-name="sterling" unicode="&#xa3;" horiz-adv-x="1288" 
d="M1032 1090l-192 -136q-17 -8 -27 9q-15 28 -21 39t-23.5 33.5t-33.5 32t-44 18t-62 8.5h-15q-129 0 -129 -226v-67h181q6 0 12 -6t6 -13v-231q0 -10 -5.5 -15.5t-12.5 -5.5h-181v-276h170q102 0 144 61q43 64 43 156v64q0 7 5 12.5t13 5.5h230q8 0 13 -5.5t5 -12.5v-132
q0 -197 -90 -290q-110 -113 -375 -113h-410q-7 0 -12.5 6t-5.5 12v512h-70q-7 0 -12.5 5.5t-5.5 15.5v231q0 7 6 13t12 6h70v196q0 150 107 263q106 106 262 106h51q142 0 250 -62.5t153 -193.5q6 -8 -6 -20z" />
    <glyph glyph-name="currency" unicode="&#xa4;" horiz-adv-x="1423" 
d="M963 219q-101 -37 -252 -37q-154 0 -252 37l-123 -123q-5 -3 -13.5 -3.5t-13.5 3.5l-123 123q-16 16 0 29l111 110q-53 87 -53 248v129q0 160 53 250l-111 111q-15 15 0 24q111 111 125 127q13 8 25 -4l123 -119q100 35 252 35q149 0 252 -35l124 119q13 13 27 0
l123 -123q10 -10 0 -24l-111 -111q54 -97 54 -250v-129q0 -148 -54 -248l111 -110q11 -14 0 -29l-123 -123q-14 -10 -27 0zM909 676q-5 93 -49 151t-135 58h-27q-89 0 -136 -56t-50 -153v-10q2 -90 49 -148.5t137 -58.5h27q88 0 136 56t48 151v10z" />
    <glyph glyph-name="yen" unicode="&#xa5;" horiz-adv-x="1046" 
d="M524 997l174 344q8 11 17 11h227q9 0 15 -7.5t4 -15.5l-244 -569h53q7 0 12.5 -5.5t5.5 -13.5v-174q0 -16 -18 -16h-111v-59h111q7 0 12.5 -5.5t5.5 -13.5v-176q0 -7 -5 -12.5t-13 -5.5h-111v-261q0 -18 -16 -18h-240q-5 0 -9.5 5.5t-4.5 12.5v261h-113q-6 0 -11 5.5
t-5 12.5v176q0 7 5 13t11 6h113v59h-113q-16 0 -16 16v174q0 7 5 13t11 6h62l-254 565q-3 11 1.5 19t14.5 8h230q10 0 16 -11z" />
    <glyph glyph-name="brokenbar" unicode="&#xa6;" horiz-adv-x="632" 
d="M432 731h-235q-19 0 -19 19v677q0 5 6.5 11t12.5 6h235q21 0 21 -21v-673q0 -7 -6.5 -13t-14.5 -6zM178 -92v678q0 8 6 13t13 5h235q21 0 21 -18v-678q0 -7 -6.5 -13t-14.5 -6h-235q-7 0 -13 6.5t-6 12.5z" />
    <glyph glyph-name="section" unicode="&#xa7;" horiz-adv-x="1335" 
d="M1073 823l23 -24q62 -71 59 -174q0 -74 -35 -162q-46 -112 -157 -166q2 -20 2 -64q0 -127 -66 -223q-100 -139 -313 -139q-126 0 -197 35q-67 30 -119 78t-71 112q0 20 6 25l172 129q7 6 16 3t10 -13q3 -9 11 -35q7 -21 27 -43.5t42 -36.5q47 -29 95 -29q50 0 85 24.5
t42 76.5q3 41 -27 71q-52 48 -172 92q-142 63 -211 121l-27 23q-92 98 -86 203q3 102 62 176q51 68 149 104q-22 48 -22 113q3 147 114 229q104 82 287 82q146 0 236 -78q12 -6 20 -14q14 -14 28.5 -33.5t21.5 -30t21.5 -36.5t16.5 -29q3 -6 1 -14t-9 -11l-162 -108
q-8 -5 -14.5 -2.5t-9.5 10.5q-18 42 -41 65q-68 60 -133 60q-42 0 -82 -21t-43 -49q-3 -18 2.5 -29.5t27.5 -31.5q30 -22 191 -92q149 -64 229 -144zM895 592q6 37 -31 67q-58 58 -142.5 99t-164.5 41q-40 0 -79.5 -21.5t-43.5 -48.5q-3 -45 31 -72q18 -18 158.5 -81.5
t175.5 -63.5q39 0 66 25t30 55z" />
    <glyph glyph-name="dieresis" unicode="&#xa8;" horiz-adv-x="741" 
d="M182 1292q0 40 30.5 69.5t72.5 29.5q39 0 67.5 -29.5t28.5 -69.5t-28.5 -71t-67.5 -31q-42 0 -72.5 31t-30.5 71zM514 1190q-39 0 -67.5 31t-28.5 71t28.5 69.5t67.5 29.5q42 0 71 -29.5t29 -69.5q0 -41 -29 -71.5t-71 -30.5z" />
    <glyph glyph-name="copyright" unicode="&#xa9;" horiz-adv-x="1318" 
d="M698 1190q114 0 215.5 -58t163.5 -159.5t62 -220.5v-129q0 -115 -58 -217.5t-160.5 -165t-222.5 -62.5h-75q-115 0 -217.5 59.5t-165 163t-62.5 222.5v129q0 175 132 306.5t313 131.5h75zM967 637v113q0 114 -82.5 198t-198.5 84h-51q-110 0 -196.5 -84t-86.5 -198v-113
q0 -112 83.5 -196.5t199.5 -84.5h51q116 0 198.5 80.5t82.5 200.5zM653 829q-48 0 -72 -30.5t-24 -83.5v-47q0 -46 24 -78.5t72 -32.5h15q54 0 76 20.5t22 71.5v29q0 18 16 18h113q7 0 13.5 -5.5t6.5 -12.5v-64q0 -213 -256 -213q-115 0 -183 57t-68 175v119q0 112 66 171.5
t185 59.5q133 0 194 -49t62 -178q0 -6 -6.5 -12.5t-13.5 -6.5h-115q-7 0 -12.5 5t-5.5 10q0 4 -1 12t-1 12q-2 16 -15 33q-23 20 -77 20h-15z" />
    <glyph glyph-name="ordfeminine" unicode="&#xaa;" horiz-adv-x="598" 
d="M211 1530q6 6 8 6h127q6 0 6 -6l178 -660q0 -10 -10 -10h-117q-6 0 -6 6l-41 144h-149l-39 -144q0 -6 -6 -6h-119q-11 0 -8 10zM240 1137h86l-45 153z" />
    <glyph glyph-name="guillemotleft" unicode="&#xab;" horiz-adv-x="1351" 
d="M700 254l-507 334q-11 8 -11 16v144q0 8 11 14l507 336q11 5 21 0t10 -15v-233q0 -9 -10 -16l-344 -158l344 -160q10 -2 10 -12v-236q0 -11 -10.5 -15.5t-20.5 1.5zM1196 254l-510 334q-10 8 -10 16v144q0 9 10 14l510 336q9 5 20 0t11 -15v-233q0 -6 -10 -16l-347 -158
l347 -160q10 -3 10 -12v-236q0 -10 -11 -15t-20 1z" />
    <glyph glyph-name="logicalnot" unicode="&#xac;" horiz-adv-x="1005" 
d="M860 885q9 0 14 -6.5t5 -14.5v-338q0 -16 -19 -16h-176q-7 0 -12.5 4.5t-5.5 11.5v144h-463q-8 0 -14.5 5.5t-6.5 12.5v176q0 8 7 14.5t14 6.5h657z" />
    <glyph glyph-name="uni00AD" unicode="&#xad;" horiz-adv-x="837" 
d="M203 811h491q4 0 9.5 -5.5t5.5 -8.5v-181q0 -14 -15 -14h-491q-21 0 -21 14v181q0 14 21 14z" />
    <glyph glyph-name="registered" unicode="&#xae;" horiz-adv-x="1110" 
d="M182 956q0 107 51.5 204.5t145 159.5t205.5 62q168 0 284.5 -125t116.5 -301q0 -105 -51.5 -201t-145 -157t-204.5 -61q-108 0 -201 57.5t-147 154t-54 207.5zM317 975v-23q0 -104 80 -200q50 -41 93 -61.5t94 -20.5q104 0 194 90q72 85 72 192v23q0 115 -80 201
q-78 81 -186 81q-84 0 -154 -51q-52 -38 -82.5 -100.5t-30.5 -130.5zM688 879l51 -109q4 -9 -0.5 -17t-13.5 -8h-82q-12 0 -16 11l-41 94h-35v-88q0 -7 -5.5 -12t-13.5 -5h-73q-6 0 -11.5 5t-5.5 12v407q0 7 5.5 13t11.5 6h137q71 0 104 -39q37 -34 37 -105v-51
q0 -80 -49 -114zM629 1022v10q0 32 -15 45t-53 13h-10v-127h10q37 0 52.5 12.5t15.5 46.5z" />
    <glyph glyph-name="macron" unicode="&#xaf;" horiz-adv-x="837" 
d="M201 1413h491q4 0 9.5 -5.5t5.5 -8.5v-180q0 -7 -5 -11t-10 -4h-491q-21 0 -21 15v180q0 14 21 14z" />
    <glyph glyph-name="degree" unicode="&#xb0;" horiz-adv-x="720" 
d="M596 1292v-53q0 -93 -53.5 -141.5t-151.5 -48.5q-201 0 -209 190v53q0 95 54.5 143t154.5 48q194 0 205 -191zM459 1268q0 65 -62 71h-14q-61 0 -61 -71q0 -70 61 -76h14q62 0 62 76z" />
    <glyph glyph-name="plusminus" unicode="&#xb1;" horiz-adv-x="884" 
d="M707 317q0 -5 -5.5 -10.5t-11.5 -5.5h-491q-7 0 -14 5.5t-7 10.5v179q0 16 21 16h491q17 0 17 -16v-179zM178 909q0 9 6.5 15t14.5 6h133v137q0 7 6 12.5t14 5.5h185q16 0 16 -18v-137h137q6 0 11.5 -6t5.5 -15v-178q0 -5 -5.5 -10.5t-11.5 -5.5h-137v-137q0 -21 -16 -21
h-185q-8 0 -14 6t-6 15v137h-133q-7 0 -14 5.5t-7 10.5v178z" />
    <glyph glyph-name="twosuperior" unicode="&#xb2;" horiz-adv-x="806" 
d="M479 1116q-7 -5 -51.5 -29.5t-71.5 -47t-30 -44.5h249q11 0 11 -8v-119q0 -8 -11 -8h-397q-8 0 -8 8v117q0 84 54 141.5t147 108.5q60 37 77 57q32 38 5 76q-22 39 -72 39q-34 0 -57 -28.5t-23 -67.5v-19q0 -6 -4.5 -8.5t-7.5 0.5l-119 72q-4 0 -4 10q0 81 65 129.5
t150 48.5q96 0 160 -55q63 -60 69 -154q9 -126 -131 -219z" />
    <glyph glyph-name="threesuperior" unicode="&#xb3;" horiz-adv-x="780" 
d="M371 1544q93 0 155 -61.5t62 -157.5q0 -69 -49 -127q49 -46 49 -127q0 -95 -60 -158t-157 -63q-132 0 -203 129q-7 7 2 12l86 66q7 7 12 -2q32 -41 55 -54.5t52 -13.5q23 0 46 21t23 53q0 33 -22.5 61.5t-61.5 28.5h-18q-10 0 -10 10v94q0 9 10 9h14q35 0 61.5 20
t26.5 49q0 33 -24 54.5t-60 21.5q-29 0 -53 -20t-35 -50q-5 -9 -12 -2l-90 68q-5 2 -2 10q14 60 74 94.5t129 34.5z" />
    <glyph glyph-name="acute" unicode="&#xb4;" horiz-adv-x="540" 
d="M184 1217l33 165q3 13 19 13h157q14 0 19.5 -7.5t-2.5 -21.5l-109 -156q-7 -14 -20 -14h-78q-7 0 -13.5 5.5t-5.5 15.5z" />
    <glyph glyph-name="mu" unicode="&#xb5;" horiz-adv-x="1423" 
d="M1311 1352q7 0 12.5 -5.5t5.5 -13.5v-1315q0 -8 -5.5 -13t-12.5 -5h-224q-5 0 -10.5 5.5t-5.5 12.5v758l-225 -764q-6 -12 -17 -12h-161q-14 0 -17 12l-211 779v-773q0 -8 -5 -13t-13 -5h-227q-6 0 -10.5 5.5t-4.5 12.5v1315q0 8 4.5 13.5t10.5 5.5h286q15 0 19 -13
l248 -829l272 829q0 5 4 9t10 4h277z" />
    <glyph glyph-name="paragraph" unicode="&#xb6;" horiz-adv-x="1390" 
d="M256 1237q93 115 260 115h694q8 0 13.5 -6t5.5 -13v-1315q0 -7 -5.5 -12.5t-13.5 -5.5h-237q-8 0 -13.5 5.5t-5.5 12.5v1078h-120v-1078q0 -18 -17 -18h-233q-8 0 -13.5 5.5t-5.5 12.5v340h-12q-164 0 -267.5 99t-103.5 268v258q0 162 74 254z" />
    <glyph glyph-name="periodcentered" unicode="&#xb7;" horiz-adv-x="673" 
d="M299 526q-72 0 -125 54t-53 129q0 74 52.5 126t125.5 52q76 0 130 -52t54 -126q0 -75 -54.5 -129t-129.5 -54z" />
    <glyph glyph-name="cedilla" unicode="&#xb8;" horiz-adv-x="675" 
d="M387 -31q101 0 133 -47q27 -36 27 -135v-39q0 -96 -51 -146.5t-150 -50.5h-102q-10 0 -15.5 6.5t-5.5 14.5v149q0 15 43 15h14q24 0 34.5 0.5t23.5 3t17.5 8.5t4.5 16q0 21 -30 21h-11q-89 0 -110 29q-27 29 -27 135v94q0 7 6.5 12.5t14.5 5.5h147q8 0 13.5 -5.5
t5.5 -12.5v-74h18z" />
    <glyph glyph-name="onesuperior" unicode="&#xb9;" horiz-adv-x="380" 
d="M166 1530q4 4 10 4h119q8 0 8 -8v-658q0 -8 -8 -8h-117q-8 0 -8 8v498l-64 -68q-4 -3 -10 -1t-6 8v114q0 2 1 3.5t1 2.5z" />
    <glyph glyph-name="ordmasculine" unicode="&#xba;" horiz-adv-x="720" 
d="M596 1292v-53q0 -93 -53.5 -141.5t-151.5 -48.5q-201 0 -209 190v53q0 95 54.5 143t154.5 48q194 0 205 -191zM459 1268q0 65 -62 71h-14q-61 0 -61 -71q0 -70 61 -76h14q62 0 62 76z" />
    <glyph glyph-name="guillemotright" unicode="&#xbb;" horiz-adv-x="1351" 
d="M731 604q0 -10 -6 -16l-512 -334q-7 -7 -19 -3t-12 17v236q0 9 13 12l342 160l-342 158q-13 9 -13 16v233q0 12 10 17t21 -2l512 -336q6 -6 6 -12v-146zM686 516l346 160l-352 164q-4 2 -4 10v233q0 8 8.5 14.5t15.5 0.5l517 -336q10 -5 10 -14v-144q0 -6 -10 -16
l-517 -334q-4 -6 -14 -2t-10 16v236q0 9 10 12z" />
    <glyph glyph-name="onequarter" unicode="&#xbc;" horiz-adv-x="2140" 
d="M1384 1333l-499 -1351q-3 -11 -19 -11h-237q-8 0 -12.5 7t-0.5 16l502 1352q4 14 15 14h235q10 0 14.5 -8.5t1.5 -18.5zM248 1343q7 9 16 9h180q5 0 9 -4.5t4 -10.5v-983q0 -6 -4 -10t-9 -4h-176q-14 0 -14 14v746l-94 -101q-6 -6 -14.5 -3t-8.5 12v172v8zM1913 1014
q14 0 14 -15v-536h107q12 0 12 -12v-166q0 -13 -12 -13h-107v-258q0 -14 -14 -14h-176q-5 0 -9 4t-4 10v258h-368q-13 0 -13 13v168q0 8 5 16l372 539q3 6 11 6h182zM1724 463v233l-151 -233h151z" />
    <glyph glyph-name="onehalf" unicode="&#xbd;" horiz-adv-x="2222" 
d="M1384 1333l-499 -1351q-3 -11 -19 -11h-237q-8 0 -12.5 7t-0.5 16l502 1352q4 14 15 14h235q10 0 14.5 -8.5t1.5 -18.5zM248 1343q7 9 16 9h180q5 0 9 -4.5t4 -10.5v-983q0 -6 -4 -10t-9 -4h-176q-14 0 -14 14v746l-94 -101q-6 -6 -14.5 -3t-8.5 12v172v8zM1931 383
q-10 -7 -77 -43.5t-107.5 -70t-44.5 -66.5h375q14 0 14 -13v-176q0 -14 -14 -14h-598q-4 0 -8.5 4.5t-4.5 9.5v172q0 67 24.5 125t71.5 104t93 78.5t112 69.5q21 12 26 15t27.5 17t30.5 22t25 23t22 27.5t10.5 29t0.5 33.5t-17 34q-37 57 -106 57q-54 0 -88.5 -42.5
t-34.5 -102.5v-29q0 -8 -6 -11t-12 1l-179 106q-6 3 -6 15q0 81 48.5 144.5t121.5 94.5t154 31q140 0 239 -86q95 -85 107 -229q9 -187 -199 -330z" />
    <glyph glyph-name="threequarters" unicode="&#xbe;" horiz-adv-x="2322" 
d="M1575 1333l-500 -1351q-3 -11 -18 -11h-238q-8 0 -12 7t0 16l502 1352q4 14 14 14h236q10 0 14.5 -8.5t1.5 -18.5zM444 1368q139 0 231.5 -92.5t92.5 -237.5q0 -101 -74 -190q74 -71 74 -193q0 -142 -89.5 -236.5t-234.5 -94.5q-97 0 -176.5 51t-130.5 145q-4 6 4 19
l129 96q10 9 21 -2q46 -63 80.5 -83t77.5 -20q36 0 70 31t34 82q0 48 -33.5 90.5t-91.5 42.5h-27q-6 0 -11 5t-5 10v141q0 12 14 12h23q52 0 91.5 31.5t39.5 73.5q0 50 -36 82t-89 32q-43 0 -78.5 -29.5t-54.5 -72.5q-7 -15 -19 -6l-135 102q-4 4 -4 14q22 92 112.5 144.5
t194.5 52.5zM2093 1014q14 0 14 -15v-536h107q12 0 12 -12v-166q0 -13 -12 -13h-107v-258q0 -14 -14 -14h-176q-12 0 -12 14v258h-369q-12 0 -12 13v168q0 10 4 16l373 539q3 6 10 6h182zM1905 463v233l-152 -233h152z" />
    <glyph glyph-name="questiondown" unicode="&#xbf;" horiz-adv-x="1191" 
d="M641 621q-76 0 -128 51.5t-52 126.5q0 76 52 129t128 53q73 0 125.5 -53.5t52.5 -128.5t-52 -126.5t-126 -51.5zM563 -408q-77 0 -154 23t-143 66.5t-110.5 113.5t-51.5 156q-11 103 46 203q54 88 161 153q129 74 166 129q18 19 23.5 40t5.5 59q0 7 5 12.5t13 5.5h250
q17 0 17 -23q0 -77 -11 -122q-28 -106 -114 -164q-12 -9 -78 -52.5t-105.5 -79t-56.5 -73.5q-28 -71 10 -121.5t119 -50.5q74 0 120 57t44 135v52q0 9 7.5 13.5t16.5 0.5l232 -117q10 -2 10 -18q10 -105 -51.5 -198.5t-162.5 -146.5t-208 -53z" />
    <glyph glyph-name="Agrave" unicode="&#xc0;" 
d="M449 1339q4 13 14 13h254q10 0 14 -13l354 -1316q2 -9 -3.5 -16t-14.5 -7h-233q-12 0 -15 12l-80 287h-299l-78 -287q-3 -12 -14 -12h-235q-9 0 -15 7t-4 16zM506 553h170l-88 309zM592 1575l-94 174q-3 8 1.5 16.5t14.5 8.5h133q13 0 17 -19l26 -170q3 -20 -18 -20h-64
q-9 0 -16 10z" />
    <glyph glyph-name="Aacute" unicode="&#xc1;" 
d="M449 1339q4 13 14 13h254q10 0 14 -13l354 -1316q2 -9 -3.5 -16t-14.5 -7h-233q-12 0 -15 12l-80 287h-299l-78 -287q-3 -12 -14 -12h-235q-9 0 -15 7t-4 16zM506 553h170l-88 309zM522 1585l33 166q3 12 18 12h158q14 0 19.5 -7.5t-2.5 -20.5l-109 -156q-7 -14 -21 -14
h-77q-7 0 -13.5 5.5t-5.5 14.5z" />
    <glyph glyph-name="Acircumflex" unicode="&#xc2;" 
d="M449 1339q4 13 14 13h254q10 0 14 -13l354 -1316q2 -9 -3.5 -16t-14.5 -7h-233q-12 0 -15 12l-80 287h-299l-78 -287q-3 -12 -14 -12h-235q-9 0 -15 7t-4 16zM506 553h170l-88 309zM309 1536q-12 0 -17.5 10t3.5 21l180 196q9 9 12 9h218q5 0 16 -11l135 -198q5 -5 1 -16
t-15 -11h-164q-13 0 -16 10l-74 123l-109 -127q-3 -6 -12 -6h-158z" />
    <glyph glyph-name="Atilde" unicode="&#xc3;" 
d="M449 1339q4 13 14 13h254q10 0 14 -13l354 -1316q2 -9 -3.5 -16t-14.5 -7h-233q-12 0 -15 12l-80 287h-299l-78 -287q-3 -12 -14 -12h-235q-9 0 -15 7t-4 16zM506 553h170l-88 309zM688 1800q76 0 130 -68t54 -151q0 -20 -18 -20h-135q-19 0 -19 16q0 17 -13 30t-32 13
q-18 0 -41.5 -20t-54.5 -40t-67 -20q-87 0 -136 66t-49 153q0 8 5.5 14.5t15.5 6.5h133q16 0 16 -17q0 -13 11.5 -31t35.5 -18q13 0 37 20t57.5 41.5t69.5 24.5z" />
    <glyph glyph-name="Adieresis" unicode="&#xc4;" 
d="M449 1339q4 13 14 13h254q10 0 14 -13l354 -1316q2 -9 -3.5 -16t-14.5 -7h-233q-12 0 -15 12l-80 287h-299l-78 -287q-3 -12 -14 -12h-235q-9 0 -15 7t-4 16zM506 553h170l-88 309zM377 1661q0 40 30 69t72 29q40 0 68 -29t28 -69t-28.5 -71t-67.5 -31q-42 0 -72 31
t-30 71zM709 1559q-39 0 -68 31t-29 71t28.5 69t68.5 29q42 0 71 -29t29 -69q0 -41 -29 -71.5t-71 -30.5z" />
    <glyph glyph-name="Aring" unicode="&#xc5;" horiz-adv-x="1181" 
d="M799 1401q0 -94 -43 -137l331 -1244q2 -8 -2.5 -14t-11.5 -6h-239q-14 0 -17 12l-76 287h-301l-78 -287q-3 -12 -14 -12h-237q-10 0 -15.5 6t-3.5 14l338 1242q-41 52 -41 139v53q0 91 52 139.5t151 48.5q94 0 150.5 -46t56.5 -142v-53zM586 1499q-60 0 -60 -67
q0 -33 14.5 -55.5t45.5 -22.5h10q38 0 49.5 21.5t11.5 56.5q0 67 -61 67h-10zM510 555h166l-84 307z" />
    <glyph glyph-name="AE" unicode="&#xc6;" horiz-adv-x="1773" 
d="M1626 1352q7 0 11.5 -5.5t4.5 -11.5v-221q0 -18 -16 -18h-440v-279h340q8 0 13 -5.5t5 -12.5v-224q0 -7 -5 -12.5t-13 -5.5h-340v-301h440q16 0 16 -18v-220q0 -7 -4.5 -12.5t-11.5 -5.5h-694q-8 0 -13.5 5.5t-5.5 12.5v281h-321l-121 -289q-3 -10 -16 -10h-236
q-9 0 -13.5 8t-0.5 15l547 1318q11 11 16 11h858zM913 555v522l-217 -522h217z" />
    <glyph glyph-name="Ccedilla" unicode="&#xc7;" horiz-adv-x="1257" 
d="M850 895q-8 0 -13.5 5.5t-5.5 12.5v33q0 80 -51.5 120t-132.5 40h-24q-93 0 -138 -58t-45 -159v-406q0 -63 16.5 -108t45 -67.5t58 -32t63.5 -9.5h24q94 0 140.5 57.5t46.5 159.5v64q0 7 5 12.5t13 5.5h233q8 0 13.5 -5.5t5.5 -12.5v-129q0 -203 -97 -307t-292 -119v-51
h16q94 0 133 -45q13 -14 19 -37.5t7 -43t1 -57.5v-34q0 -197 -203 -197h-100q-8 0 -14.5 5t-6.5 9v150q0 16 21 16h24q95 0 95 27q0 22 -41 22q-47 0 -72 5t-41 24q-27 27 -27 137v76q-360 44 -360 420v538q0 222 118 323t353 101q228 0 347.5 -99t119.5 -325v-43
q0 -7 -5.5 -12.5t-13.5 -5.5h-235z" />
    <glyph glyph-name="Egrave" unicode="&#xc8;" horiz-adv-x="1077" 
d="M209 0q-16 0 -16 18v1315q0 19 16 19h696q7 0 13 -6t6 -13v-219q0 -7 -5.5 -12.5t-13.5 -5.5h-442v-279h344q16 0 16 -18v-224q0 -18 -16 -18h-344v-301h442q8 0 13.5 -5.5t5.5 -12.5v-220q0 -7 -5.5 -12.5t-13.5 -5.5h-696zM537 1575l-95 174q-3 8 2 16.5t15 8.5h133
q12 0 16 -19l27 -170q3 -20 -19 -20h-63q-9 0 -16 10z" />
    <glyph glyph-name="Eacute" unicode="&#xc9;" horiz-adv-x="1077" 
d="M209 0q-16 0 -16 18v1315q0 19 16 19h696q7 0 13 -6t6 -13v-219q0 -7 -5.5 -12.5t-13.5 -5.5h-442v-279h344q16 0 16 -18v-224q0 -18 -16 -18h-344v-301h442q8 0 13.5 -5.5t5.5 -12.5v-220q0 -7 -5.5 -12.5t-13.5 -5.5h-696zM512 1585l33 166q3 12 18 12h158
q14 0 19 -7.5t-3 -20.5l-108 -156q-7 -14 -21 -14h-78q-7 0 -13 5t-5 15z" />
    <glyph glyph-name="Ecircumflex" unicode="&#xca;" horiz-adv-x="1077" 
d="M209 0q-16 0 -16 18v1315q0 19 16 19h696q7 0 13 -6t6 -13v-219q0 -7 -5.5 -12.5t-13.5 -5.5h-442v-279h344q16 0 16 -18v-224q0 -18 -16 -18h-344v-301h442q8 0 13.5 -5.5t5.5 -12.5v-220q0 -7 -5.5 -12.5t-13.5 -5.5h-696zM272 1536q-12 0 -17.5 10t3.5 21l180 196
q9 9 13 9h217q5 0 16 -11l135 -198q5 -5 1 -16t-15 -11h-164q-13 0 -16 10l-74 123l-109 -127q-3 -6 -12 -6h-158z" />
    <glyph glyph-name="Edieresis" unicode="&#xcb;" horiz-adv-x="1077" 
d="M209 0q-16 0 -16 18v1315q0 19 16 19h696q7 0 13 -6t6 -13v-219q0 -7 -5.5 -12.5t-13.5 -5.5h-442v-279h344q16 0 16 -18v-224q0 -18 -16 -18h-344v-301h442q8 0 13.5 -5.5t5.5 -12.5v-220q0 -7 -5.5 -12.5t-13.5 -5.5h-696zM365 1661q0 40 30 69t72 29q40 0 68 -29
t28 -69t-28.5 -71t-67.5 -31q-42 0 -72 31t-30 71zM696 1559q-39 0 -67.5 31t-28.5 71t28 69t68 29q42 0 71.5 -29t29.5 -69q0 -41 -29.5 -71.5t-71.5 -30.5z" />
    <glyph glyph-name="Igrave" unicode="&#xcc;" horiz-adv-x="645" 
d="M209 0q-16 0 -16 18v1315q0 19 16 19h233q8 0 13.5 -6t5.5 -13v-1315q0 -7 -5.5 -12.5t-13.5 -5.5h-233zM299 1575l-94 174q-3 8 1.5 16.5t14.5 8.5h133q13 0 17 -19l26 -170q3 -20 -18 -20h-64q-9 0 -16 10z" />
    <glyph glyph-name="Iacute" unicode="&#xcd;" horiz-adv-x="645" 
d="M209 0q-16 0 -16 18v1315q0 19 16 19h233q8 0 13.5 -6t5.5 -13v-1315q0 -7 -5.5 -12.5t-13.5 -5.5h-233zM274 1585l33 166q3 12 19 12h157q14 0 19.5 -7.5t-2.5 -20.5l-109 -156q-7 -14 -20 -14h-78q-7 0 -13.5 5.5t-5.5 14.5z" />
    <glyph glyph-name="Icircumflex" unicode="&#xce;" horiz-adv-x="645" 
d="M209 0q-16 0 -16 18v1315q0 19 16 19h233q8 0 13.5 -6t5.5 -13v-1315q0 -7 -5.5 -12.5t-13.5 -5.5h-233zM63 1536q-12 0 -17.5 10t3.5 21l180 196q9 9 13 9h217q5 0 16 -11l135 -198q5 -5 1 -16t-15 -11h-164q-13 0 -16 10l-74 123l-109 -127q-3 -6 -12 -6h-158z" />
    <glyph glyph-name="Idieresis" unicode="&#xcf;" horiz-adv-x="645" 
d="M209 0q-16 0 -16 18v1315q0 19 16 19h233q8 0 13.5 -6t5.5 -13v-1315q0 -7 -5.5 -12.5t-13.5 -5.5h-233zM125 1661q0 40 30 69t72 29q40 0 68.5 -29t28.5 -69t-29 -71t-68 -31q-42 0 -72 31t-30 71zM457 1559q-39 0 -68 31t-29 71t28.5 69t68.5 29q42 0 71 -29t29 -69
q0 -41 -29 -71.5t-71 -30.5z" />
    <glyph glyph-name="Eth" unicode="&#xd0;" horiz-adv-x="1396" 
d="M823 1352q191 0 299.5 -105t108.5 -301v-543q0 -188 -106.5 -295.5t-301.5 -107.5h-512q-16 0 -16 18v566h-86q-4 0 -10 5.5t-6 12.5v176q0 7 5.5 14t10.5 7h86v534q0 19 16 19h512zM956 465v420q0 99 -51 155t-153 56h-187v-297h228q6 0 11 -6t5 -15v-176q0 -18 -16 -18
h-228v-328h187q92 0 148 56.5t56 152.5z" />
    <glyph glyph-name="Ntilde" unicode="&#xd1;" horiz-adv-x="1220" 
d="M739 1333q0 7 5.5 13t13.5 6h235q7 0 13 -6t6 -13v-1315q0 -7 -5.5 -12.5t-13.5 -5.5h-227q-15 0 -18 10l-299 674v-666q0 -7 -5.5 -12.5t-13.5 -5.5h-233q-17 0 -17 18v1315q0 8 5 13.5t12 5.5h241q10 0 15 -11l286 -661v653zM698 1823q76 0 130.5 -68.5t54.5 -150.5
q0 -8 -5 -14.5t-14 -6.5h-135q-18 0 -18 16q0 17 -13 30t-32 13q-15 0 -33 -12.5t-34 -27t-42.5 -27t-54.5 -12.5q-87 0 -136 66t-49 153q0 20 21 20h133q16 0 16 -16q0 -13 12 -31t36 -18q13 0 36.5 20t57 41.5t69.5 24.5z" />
    <glyph glyph-name="Ograve" unicode="&#xd2;" horiz-adv-x="1269" 
d="M637 1370q263 0 377 -123q90 -100 90 -301v-538q0 -209 -90 -306q-119 -122 -377 -122q-263 0 -379 122q-92 103 -92 306v538q0 200 92 303q112 121 379 121zM831 469v410q0 217 -184 217h-24q-183 0 -183 -217v-410q0 -64 16 -109.5t44 -68t57.5 -32t65.5 -9.5h24
q181 0 184 219zM616 1575l-94 174q-3 8 2 16.5t15 8.5h133q12 0 16 -19l27 -170q3 -20 -19 -20h-63q-10 0 -17 10z" />
    <glyph glyph-name="Oacute" unicode="&#xd3;" horiz-adv-x="1269" 
d="M637 1370q263 0 377 -123q90 -100 90 -301v-538q0 -209 -90 -306q-119 -122 -377 -122q-263 0 -379 122q-92 103 -92 306v538q0 200 92 303q112 121 379 121zM831 469v410q0 217 -184 217h-24q-183 0 -183 -217v-410q0 -64 16 -109.5t44 -68t57.5 -32t65.5 -9.5h24
q181 0 184 219zM594 1585l33 166q3 12 18 12h158q14 0 19 -7.5t-3 -20.5l-108 -156q-7 -14 -21 -14h-78q-7 0 -13 5t-5 15z" />
    <glyph glyph-name="Ocircumflex" unicode="&#xd4;" horiz-adv-x="1269" 
d="M369 1536q-12 0 -18 10t3 21l181 196q9 9 12 9h217q5 0 16 -11l135 -198q5 -5 1 -16t-15 -11h-164q-13 0 -16 10l-74 123l-108 -127q-3 -6 -13 -6h-157zM637 1370q263 0 377 -123q90 -100 90 -301v-538q0 -209 -90 -306q-119 -122 -377 -122q-263 0 -379 122
q-92 103 -92 306v538q0 200 92 303q112 121 379 121zM831 469v410q0 217 -184 217h-24q-183 0 -183 -217v-410q0 -64 16 -109.5t44 -68t57.5 -32t65.5 -9.5h24q181 0 184 219z" />
    <glyph glyph-name="Otilde" unicode="&#xd5;" horiz-adv-x="1269" 
d="M637 1370q263 0 377 -123q90 -100 90 -301v-538q0 -209 -90 -306q-119 -122 -377 -122q-263 0 -379 122q-92 103 -92 306v538q0 200 92 303q112 121 379 121zM831 469v410q0 217 -184 217h-24q-183 0 -183 -217v-410q0 -64 16 -109.5t44 -68t57.5 -32t65.5 -9.5h24
q181 0 184 219zM758 1823q76 0 130 -68t54 -151q0 -21 -18 -21h-136q-18 0 -18 16q0 17 -13 30t-32 13q-15 0 -33 -12.5t-34 -27t-42.5 -27t-54.5 -12.5q-87 0 -135.5 66t-48.5 153q0 20 20 20h133q17 0 17 -16q0 -13 11.5 -31t35.5 -18q13 0 37 20t57.5 41.5t69.5 24.5z
" />
    <glyph glyph-name="Odieresis" unicode="&#xd6;" horiz-adv-x="1269" 
d="M637 1370q263 0 377 -123q90 -100 90 -301v-538q0 -209 -90 -306q-119 -122 -377 -122q-263 0 -379 122q-92 103 -92 306v538q0 200 92 303q112 121 379 121zM831 469v410q0 217 -184 217h-24q-183 0 -183 -217v-410q0 -64 16 -109.5t44 -68t57.5 -32t65.5 -9.5h24
q181 0 184 219zM442 1683q0 40 30.5 69.5t72.5 29.5q39 0 67.5 -29.5t28.5 -69.5t-28.5 -71t-67.5 -31q-42 0 -72.5 31t-30.5 71zM774 1581q-39 0 -67.5 31t-28.5 71t28.5 69.5t67.5 29.5q42 0 71 -29.5t29 -69.5q0 -41 -29 -71.5t-71 -30.5z" />
    <glyph glyph-name="multiply" unicode="&#xd7;" horiz-adv-x="798" 
d="M301 952l96 -94l97 96q13 13 26 0l129 -131q13 -9 0 -22l-96 -96l94 -99q5 -3 5.5 -11t-5.5 -13l-125 -123q-13 -13 -26 0l-95 94l-96 -100q-15 -15 -29 0l-129 131q-10 14 0 24l99 99l-94 94q-14 14 0 28l122 123q12 15 27 0z" />
    <glyph glyph-name="Oslash" unicode="&#xd8;" horiz-adv-x="1269" 
d="M553 -16l-37 -107q-3 -12 -16 -12h-232q-9 0 -15.5 7t-4.5 15l59 174q-73 52 -107 145t-34 202v538q0 426 471 426q55 0 98 -6l17 49q8 17 20 17h232q9 0 15 -9t3 -18l-45 -125q127 -98 127 -334v-538q0 -428 -467 -428q-34 0 -84 4zM643 258q94 0 141 56t47 159v365z
M440 690v-217v-12l207 637h-24q-96 0 -144 -60q-39 -50 -39 -157v-191z" />
    <glyph glyph-name="Ugrave" unicode="&#xd9;" horiz-adv-x="1290" 
d="M844 473v860q0 8 5.5 13.5t12.5 5.5h234q7 0 12.5 -5.5t5.5 -13.5v-925q0 -218 -117.5 -323t-349.5 -105q-227 0 -348 101t-121 327v925q0 7 6 13t13 6h235q8 0 13.5 -6t5.5 -13v-860q0 -64 16.5 -108.5t44.5 -67t58 -32t65 -9.5h24q93 0 139 57.5t46 159.5zM606 1575
l-94 174q-3 8 1.5 16.5t14.5 8.5h134q12 0 16 -19l27 -170q3 -20 -19 -20h-63q-10 0 -17 10z" />
    <glyph glyph-name="Uacute" unicode="&#xda;" horiz-adv-x="1290" 
d="M844 473v860q0 8 5.5 13.5t12.5 5.5h234q7 0 12.5 -5.5t5.5 -13.5v-925q0 -218 -117.5 -323t-349.5 -105q-227 0 -348 101t-121 327v925q0 7 6 13t13 6h235q8 0 13.5 -6t5.5 -13v-860q0 -64 16.5 -108.5t44.5 -67t58 -32t65 -9.5h24q93 0 139 57.5t46 159.5zM578 1585
l32 166q3 12 19 12h157q14 0 19.5 -7.5t-2.5 -20.5l-109 -156q-7 -14 -20 -14h-78q-7 0 -13 5t-5 15z" />
    <glyph glyph-name="Ucircumflex" unicode="&#xdb;" horiz-adv-x="1290" 
d="M844 473v860q0 8 5.5 13.5t12.5 5.5h234q7 0 12.5 -5.5t5.5 -13.5v-925q0 -218 -117.5 -323t-349.5 -105q-227 0 -348 101t-121 327v925q0 7 6 13t13 6h235q8 0 13.5 -6t5.5 -13v-860q0 -64 16.5 -108.5t44.5 -67t58 -32t65 -9.5h24q93 0 139 57.5t46 159.5zM379 1536
q-12 0 -17.5 10t3.5 21l180 196q9 9 12 9h217q6 0 17 -11l135 -198q5 -5 0.5 -16t-15.5 -11h-163q-14 0 -17 10l-74 123l-108 -127q-3 -6 -12 -6h-158z" />
    <glyph glyph-name="Udieresis" unicode="&#xdc;" horiz-adv-x="1290" 
d="M844 473v860q0 8 5.5 13.5t12.5 5.5h234q7 0 12.5 -5.5t5.5 -13.5v-925q0 -218 -117.5 -323t-349.5 -105q-227 0 -348 101t-121 327v925q0 7 6 13t13 6h235q8 0 13.5 -6t5.5 -13v-860q0 -64 16.5 -108.5t44.5 -67t58 -32t65 -9.5h24q93 0 139 57.5t46 159.5zM432 1661
q0 40 30 69t73 29q40 0 68 -29t28 -69t-28.5 -71t-67.5 -31q-42 0 -72.5 31t-30.5 71zM764 1559q-39 0 -67.5 31t-28.5 71t28 69t68 29q42 0 71 -29t29 -69q0 -41 -29 -71.5t-71 -30.5z" />
    <glyph glyph-name="Yacute" unicode="&#xdd;" horiz-adv-x="1046" 
d="M524 997l174 344q7 11 17 11h229q9 0 14.5 -7.5t2.5 -15.5l-297 -690v-621q0 -7 -5.5 -12.5t-13.5 -5.5h-242q-5 0 -9.5 5.5t-4.5 12.5v621l-305 686q-3 11 1.5 19t14.5 8h230q9 0 16 -11zM455 1585l32 166q3 12 19 12h158q14 0 19 -7.5t-3 -20.5l-109 -156
q-7 -14 -20 -14h-78q-7 0 -13 5t-5 15z" />
    <glyph glyph-name="Thorn" unicode="&#xde;" horiz-adv-x="1134" 
d="M633 1233q173 0 268.5 -96.5t95.5 -274.5v-256q0 -166 -97.5 -268t-266.5 -102h-144v-218q0 -8 -5.5 -13t-12.5 -5h-235q-8 0 -13.5 5.5t-5.5 12.5v1315q0 7 5.5 13t13.5 6h235q7 0 12.5 -5.5t5.5 -13.5v-100h144zM729 666v135q0 96 -51 135t-158 39h-31v-483h31
q97 0 153 38.5t56 135.5z" />
    <glyph glyph-name="germandbls" unicode="&#xdf;" horiz-adv-x="1243" 
d="M922 707q173 -106 188 -308q8 -91 -7 -165.5t-54 -132t-109.5 -89.5t-167.5 -32q-70 0 -158 14q-12 4 -12 18v242q0 16 16 16q8 0 26 -1t24 -1q68 0 106.5 35.5t38.5 106.5q0 80 -43.5 117.5t-132.5 45.5q-80 5 -102 123q-6 57 20.5 104.5t81.5 61.5q45 12 69 46t21 83
q-4 47 -46.5 69.5t-98.5 22.5h-93v-1069q0 -5 -5 -10.5t-13 -5.5h-233q-19 0 -19 16v1317q0 7 5.5 13t13.5 6h327q80 0 152.5 -17.5t136 -53.5t101.5 -101t38 -152q0 -54 -7.5 -94.5t-25 -68t-28 -39.5t-31.5 -31q-27 -21 -27 -41q0 -17 48 -45z" />
    <glyph glyph-name="agrave" unicode="&#xe0;" 
d="M449 1339q4 13 14 13h254q10 0 14 -13l354 -1316q2 -9 -3.5 -16t-14.5 -7h-233q-12 0 -15 12l-80 287h-299l-78 -287q-3 -12 -14 -12h-235q-9 0 -15 7t-4 16zM506 553h170l-88 309zM592 1575l-94 174q-3 8 1.5 16.5t14.5 8.5h133q13 0 17 -19l26 -170q3 -20 -18 -20h-64
q-9 0 -16 10z" />
    <glyph glyph-name="aacute" unicode="&#xe1;" 
d="M449 1339q4 13 14 13h254q10 0 14 -13l354 -1316q2 -9 -3.5 -16t-14.5 -7h-233q-12 0 -15 12l-80 287h-299l-78 -287q-3 -12 -14 -12h-235q-9 0 -15 7t-4 16zM506 553h170l-88 309zM522 1585l33 166q3 12 18 12h158q14 0 19.5 -7.5t-2.5 -20.5l-109 -156q-7 -14 -21 -14
h-77q-7 0 -13.5 5.5t-5.5 14.5z" />
    <glyph glyph-name="acircumflex" unicode="&#xe2;" 
d="M449 1339q4 13 14 13h254q10 0 14 -13l354 -1316q2 -9 -3.5 -16t-14.5 -7h-233q-12 0 -15 12l-80 287h-299l-78 -287q-3 -12 -14 -12h-235q-9 0 -15 7t-4 16zM506 553h170l-88 309zM309 1536q-12 0 -17.5 10t3.5 21l180 196q9 9 12 9h218q5 0 16 -11l135 -198q5 -5 1 -16
t-15 -11h-164q-13 0 -16 10l-74 123l-109 -127q-3 -6 -12 -6h-158z" />
    <glyph glyph-name="atilde" unicode="&#xe3;" 
d="M449 1339q4 13 14 13h254q10 0 14 -13l354 -1316q2 -9 -3.5 -16t-14.5 -7h-233q-12 0 -15 12l-80 287h-299l-78 -287q-3 -12 -14 -12h-235q-9 0 -15 7t-4 16zM506 553h170l-88 309zM688 1800q76 0 130 -68t54 -151q0 -20 -18 -20h-135q-19 0 -19 16q0 17 -13 30t-32 13
q-18 0 -41.5 -20t-54.5 -40t-67 -20q-87 0 -136 66t-49 153q0 8 5.5 14.5t15.5 6.5h133q16 0 16 -17q0 -13 11.5 -31t35.5 -18q13 0 37 20t57.5 41.5t69.5 24.5z" />
    <glyph glyph-name="adieresis" unicode="&#xe4;" 
d="M449 1339q4 13 14 13h254q10 0 14 -13l354 -1316q2 -9 -3.5 -16t-14.5 -7h-233q-12 0 -15 12l-80 287h-299l-78 -287q-3 -12 -14 -12h-235q-9 0 -15 7t-4 16zM506 553h170l-88 309zM377 1661q0 40 30 69t72 29q40 0 68 -29t28 -69t-28.5 -71t-67.5 -31q-42 0 -72 31
t-30 71zM709 1559q-39 0 -68 31t-29 71t28.5 69t68.5 29q42 0 71 -29t29 -69q0 -41 -29 -71.5t-71 -30.5z" />
    <glyph glyph-name="aring" unicode="&#xe5;" horiz-adv-x="1181" 
d="M799 1401q0 -94 -43 -137l331 -1244q2 -8 -2.5 -14t-11.5 -6h-239q-14 0 -17 12l-76 287h-301l-78 -287q-3 -12 -14 -12h-237q-10 0 -15.5 6t-3.5 14l338 1242q-41 52 -41 139v53q0 91 52 139.5t151 48.5q94 0 150.5 -46t56.5 -142v-53zM586 1499q-60 0 -60 -67
q0 -33 14.5 -55.5t45.5 -22.5h10q38 0 49.5 21.5t11.5 56.5q0 67 -61 67h-10zM510 555h166l-84 307z" />
    <glyph glyph-name="ae" unicode="&#xe6;" horiz-adv-x="1773" 
d="M1626 1352q7 0 11.5 -5.5t4.5 -11.5v-221q0 -18 -16 -18h-440v-279h340q8 0 13 -5.5t5 -12.5v-224q0 -7 -5 -12.5t-13 -5.5h-340v-301h440q16 0 16 -18v-220q0 -7 -4.5 -12.5t-11.5 -5.5h-694q-8 0 -13.5 5.5t-5.5 12.5v281h-321l-121 -289q-3 -10 -16 -10h-236
q-9 0 -13.5 8t-0.5 15l547 1318q11 11 16 11h858zM913 555v522l-217 -522h217z" />
    <glyph glyph-name="ccedilla" unicode="&#xe7;" horiz-adv-x="1257" 
d="M850 895q-8 0 -13.5 5.5t-5.5 12.5v33q0 80 -51.5 120t-132.5 40h-24q-93 0 -138 -58t-45 -159v-406q0 -63 16.5 -108t45 -67.5t58 -32t63.5 -9.5h24q94 0 140.5 57.5t46.5 159.5v64q0 7 5 12.5t13 5.5h233q8 0 13.5 -5.5t5.5 -12.5v-129q0 -203 -97 -307t-292 -119v-51
h16q94 0 133 -45q13 -14 19 -37.5t7 -43t1 -57.5v-34q0 -197 -203 -197h-100q-8 0 -14.5 5t-6.5 9v150q0 16 21 16h24q95 0 95 27q0 22 -41 22q-47 0 -72 5t-41 24q-27 27 -27 137v76q-360 44 -360 420v538q0 222 118 323t353 101q228 0 347.5 -99t119.5 -325v-43
q0 -7 -5.5 -12.5t-13.5 -5.5h-235z" />
    <glyph glyph-name="egrave" unicode="&#xe8;" horiz-adv-x="1077" 
d="M209 0q-16 0 -16 18v1315q0 19 16 19h696q7 0 13 -6t6 -13v-219q0 -7 -5.5 -12.5t-13.5 -5.5h-442v-279h344q16 0 16 -18v-224q0 -18 -16 -18h-344v-301h442q8 0 13.5 -5.5t5.5 -12.5v-220q0 -7 -5.5 -12.5t-13.5 -5.5h-696zM537 1575l-95 174q-3 8 2 16.5t15 8.5h133
q12 0 16 -19l27 -170q3 -20 -19 -20h-63q-9 0 -16 10z" />
    <glyph glyph-name="eacute" unicode="&#xe9;" horiz-adv-x="1077" 
d="M209 0q-16 0 -16 18v1315q0 19 16 19h696q7 0 13 -6t6 -13v-219q0 -7 -5.5 -12.5t-13.5 -5.5h-442v-279h344q16 0 16 -18v-224q0 -18 -16 -18h-344v-301h442q8 0 13.5 -5.5t5.5 -12.5v-220q0 -7 -5.5 -12.5t-13.5 -5.5h-696zM512 1585l33 166q3 12 18 12h158
q14 0 19 -7.5t-3 -20.5l-108 -156q-7 -14 -21 -14h-78q-7 0 -13 5t-5 15z" />
    <glyph glyph-name="ecircumflex" unicode="&#xea;" horiz-adv-x="1077" 
d="M209 0q-16 0 -16 18v1315q0 19 16 19h696q7 0 13 -6t6 -13v-219q0 -7 -5.5 -12.5t-13.5 -5.5h-442v-279h344q16 0 16 -18v-224q0 -18 -16 -18h-344v-301h442q8 0 13.5 -5.5t5.5 -12.5v-220q0 -7 -5.5 -12.5t-13.5 -5.5h-696zM272 1536q-12 0 -17.5 10t3.5 21l180 196
q9 9 13 9h217q5 0 16 -11l135 -198q5 -5 1 -16t-15 -11h-164q-13 0 -16 10l-74 123l-109 -127q-3 -6 -12 -6h-158z" />
    <glyph glyph-name="edieresis" unicode="&#xeb;" horiz-adv-x="1077" 
d="M209 0q-16 0 -16 18v1315q0 19 16 19h696q7 0 13 -6t6 -13v-219q0 -7 -5.5 -12.5t-13.5 -5.5h-442v-279h344q16 0 16 -18v-224q0 -18 -16 -18h-344v-301h442q8 0 13.5 -5.5t5.5 -12.5v-220q0 -7 -5.5 -12.5t-13.5 -5.5h-696zM365 1661q0 40 30 69t72 29q40 0 68 -29
t28 -69t-28.5 -71t-67.5 -31q-42 0 -72 31t-30 71zM696 1559q-39 0 -67.5 31t-28.5 71t28 69t68 29q42 0 71.5 -29t29.5 -69q0 -41 -29.5 -71.5t-71.5 -30.5z" />
    <glyph glyph-name="igrave" unicode="&#xec;" horiz-adv-x="645" 
d="M209 0q-16 0 -16 18v1315q0 19 16 19h233q8 0 13.5 -6t5.5 -13v-1315q0 -7 -5.5 -12.5t-13.5 -5.5h-233zM299 1575l-94 174q-3 8 1.5 16.5t14.5 8.5h133q13 0 17 -19l26 -170q3 -20 -18 -20h-64q-9 0 -16 10z" />
    <glyph glyph-name="iacute" unicode="&#xed;" horiz-adv-x="645" 
d="M209 0q-16 0 -16 18v1315q0 19 16 19h233q8 0 13.5 -6t5.5 -13v-1315q0 -7 -5.5 -12.5t-13.5 -5.5h-233zM274 1585l33 166q3 12 19 12h157q14 0 19.5 -7.5t-2.5 -20.5l-109 -156q-7 -14 -20 -14h-78q-7 0 -13.5 5.5t-5.5 14.5z" />
    <glyph glyph-name="icircumflex" unicode="&#xee;" horiz-adv-x="645" 
d="M209 0q-16 0 -16 18v1315q0 19 16 19h233q8 0 13.5 -6t5.5 -13v-1315q0 -7 -5.5 -12.5t-13.5 -5.5h-233zM63 1536q-12 0 -17.5 10t3.5 21l180 196q9 9 13 9h217q5 0 16 -11l135 -198q5 -5 1 -16t-15 -11h-164q-13 0 -16 10l-74 123l-109 -127q-3 -6 -12 -6h-158z" />
    <glyph glyph-name="idieresis" unicode="&#xef;" horiz-adv-x="645" 
d="M209 0q-16 0 -16 18v1315q0 19 16 19h233q8 0 13.5 -6t5.5 -13v-1315q0 -7 -5.5 -12.5t-13.5 -5.5h-233zM125 1661q0 40 30 69t72 29q40 0 68.5 -29t28.5 -69t-29 -71t-68 -31q-42 0 -72 31t-30 71zM457 1559q-39 0 -68 31t-29 71t28.5 69t68.5 29q42 0 71 -29t29 -69
q0 -41 -29 -71.5t-71 -30.5z" />
    <glyph glyph-name="eth" unicode="&#xf0;" horiz-adv-x="1396" 
d="M823 1352q191 0 299.5 -105t108.5 -301v-543q0 -188 -106.5 -295.5t-301.5 -107.5h-512q-16 0 -16 18v566h-86q-4 0 -10 5.5t-6 12.5v176q0 7 5.5 14t10.5 7h86v534q0 19 16 19h512zM956 465v420q0 99 -51 155t-153 56h-187v-297h228q6 0 11 -6t5 -15v-176q0 -18 -16 -18
h-228v-328h187q92 0 148 56.5t56 152.5z" />
    <glyph glyph-name="ntilde" unicode="&#xf1;" horiz-adv-x="1220" 
d="M739 1333q0 7 5.5 13t13.5 6h235q7 0 13 -6t6 -13v-1315q0 -7 -5.5 -12.5t-13.5 -5.5h-227q-15 0 -18 10l-299 674v-666q0 -7 -5.5 -12.5t-13.5 -5.5h-233q-17 0 -17 18v1315q0 8 5 13.5t12 5.5h241q10 0 15 -11l286 -661v653zM698 1823q76 0 130.5 -68.5t54.5 -150.5
q0 -8 -5 -14.5t-14 -6.5h-135q-18 0 -18 16q0 17 -13 30t-32 13q-15 0 -33 -12.5t-34 -27t-42.5 -27t-54.5 -12.5q-87 0 -136 66t-49 153q0 20 21 20h133q16 0 16 -16q0 -13 12 -31t36 -18q13 0 36.5 20t57 41.5t69.5 24.5z" />
    <glyph glyph-name="ograve" unicode="&#xf2;" horiz-adv-x="1269" 
d="M637 1370q263 0 377 -123q90 -100 90 -301v-538q0 -209 -90 -306q-119 -122 -377 -122q-263 0 -379 122q-92 103 -92 306v538q0 200 92 303q112 121 379 121zM831 469v410q0 217 -184 217h-24q-183 0 -183 -217v-410q0 -64 16 -109.5t44 -68t57.5 -32t65.5 -9.5h24
q181 0 184 219zM616 1575l-94 174q-3 8 2 16.5t15 8.5h133q12 0 16 -19l27 -170q3 -20 -19 -20h-63q-10 0 -17 10z" />
    <glyph glyph-name="oacute" unicode="&#xf3;" horiz-adv-x="1269" 
d="M637 1370q263 0 377 -123q90 -100 90 -301v-538q0 -209 -90 -306q-119 -122 -377 -122q-263 0 -379 122q-92 103 -92 306v538q0 200 92 303q112 121 379 121zM831 469v410q0 217 -184 217h-24q-183 0 -183 -217v-410q0 -64 16 -109.5t44 -68t57.5 -32t65.5 -9.5h24
q181 0 184 219zM594 1585l33 166q3 12 18 12h158q14 0 19 -7.5t-3 -20.5l-108 -156q-7 -14 -21 -14h-78q-7 0 -13 5t-5 15z" />
    <glyph glyph-name="ocircumflex" unicode="&#xf4;" horiz-adv-x="1269" 
d="M369 1536q-12 0 -18 10t3 21l181 196q9 9 12 9h217q5 0 16 -11l135 -198q5 -5 1 -16t-15 -11h-164q-13 0 -16 10l-74 123l-108 -127q-3 -6 -13 -6h-157zM637 1370q263 0 377 -123q90 -100 90 -301v-538q0 -209 -90 -306q-119 -122 -377 -122q-263 0 -379 122
q-92 103 -92 306v538q0 200 92 303q112 121 379 121zM831 469v410q0 217 -184 217h-24q-183 0 -183 -217v-410q0 -64 16 -109.5t44 -68t57.5 -32t65.5 -9.5h24q181 0 184 219z" />
    <glyph glyph-name="otilde" unicode="&#xf5;" horiz-adv-x="1269" 
d="M637 1370q263 0 377 -123q90 -100 90 -301v-538q0 -209 -90 -306q-119 -122 -377 -122q-263 0 -379 122q-92 103 -92 306v538q0 200 92 303q112 121 379 121zM831 469v410q0 217 -184 217h-24q-183 0 -183 -217v-410q0 -64 16 -109.5t44 -68t57.5 -32t65.5 -9.5h24
q181 0 184 219zM758 1823q76 0 130 -68t54 -151q0 -21 -18 -21h-136q-18 0 -18 16q0 17 -13 30t-32 13q-15 0 -33 -12.5t-34 -27t-42.5 -27t-54.5 -12.5q-87 0 -135.5 66t-48.5 153q0 20 20 20h133q17 0 17 -16q0 -13 11.5 -31t35.5 -18q13 0 37 20t57.5 41.5t69.5 24.5z
" />
    <glyph glyph-name="odieresis" unicode="&#xf6;" horiz-adv-x="1269" 
d="M637 1370q263 0 377 -123q90 -100 90 -301v-538q0 -209 -90 -306q-119 -122 -377 -122q-263 0 -379 122q-92 103 -92 306v538q0 200 92 303q112 121 379 121zM831 469v410q0 217 -184 217h-24q-183 0 -183 -217v-410q0 -64 16 -109.5t44 -68t57.5 -32t65.5 -9.5h24
q181 0 184 219zM442 1683q0 40 30.5 69.5t72.5 29.5q39 0 67.5 -29.5t28.5 -69.5t-28.5 -71t-67.5 -31q-42 0 -72.5 31t-30.5 71zM774 1581q-39 0 -67.5 31t-28.5 71t28.5 69.5t67.5 29.5q42 0 71 -29.5t29 -69.5q0 -41 -29 -71.5t-71 -30.5z" />
    <glyph glyph-name="divide" unicode="&#xf7;" horiz-adv-x="808" 
d="M514 961q0 -44 -31.5 -77.5t-74.5 -33.5q-45 0 -78 33t-33 78q0 43 33 75.5t78 32.5q43 0 74.5 -32.5t31.5 -75.5zM514 449q0 -44 -31.5 -76.5t-74.5 -32.5q-46 0 -78.5 32.5t-32.5 76.5q0 45 32.5 76.5t78.5 31.5q43 0 74.5 -31.5t31.5 -76.5zM668 616q0 -14 -15 -14
h-491q-21 0 -21 14v181q0 3 7 8.5t14 5.5h491q4 0 9.5 -5.5t5.5 -8.5v-181z" />
    <glyph glyph-name="oslash" unicode="&#xf8;" horiz-adv-x="1269" 
d="M553 -16l-37 -107q-3 -12 -16 -12h-232q-9 0 -15.5 7t-4.5 15l59 174q-73 52 -107 145t-34 202v538q0 426 471 426q55 0 98 -6l17 49q8 17 20 17h232q9 0 15 -9t3 -18l-45 -125q127 -98 127 -334v-538q0 -428 -467 -428q-34 0 -84 4zM643 258q94 0 141 56t47 159v365z
M440 690v-217v-12l207 637h-24q-96 0 -144 -60q-39 -50 -39 -157v-191z" />
    <glyph glyph-name="ugrave" unicode="&#xf9;" horiz-adv-x="1290" 
d="M844 473v860q0 8 5.5 13.5t12.5 5.5h234q7 0 12.5 -5.5t5.5 -13.5v-925q0 -218 -117.5 -323t-349.5 -105q-227 0 -348 101t-121 327v925q0 7 6 13t13 6h235q8 0 13.5 -6t5.5 -13v-860q0 -64 16.5 -108.5t44.5 -67t58 -32t65 -9.5h24q93 0 139 57.5t46 159.5zM606 1575
l-94 174q-3 8 1.5 16.5t14.5 8.5h134q12 0 16 -19l27 -170q3 -20 -19 -20h-63q-10 0 -17 10z" />
    <glyph glyph-name="uacute" unicode="&#xfa;" horiz-adv-x="1290" 
d="M844 473v860q0 8 5.5 13.5t12.5 5.5h234q7 0 12.5 -5.5t5.5 -13.5v-925q0 -218 -117.5 -323t-349.5 -105q-227 0 -348 101t-121 327v925q0 7 6 13t13 6h235q8 0 13.5 -6t5.5 -13v-860q0 -64 16.5 -108.5t44.5 -67t58 -32t65 -9.5h24q93 0 139 57.5t46 159.5zM578 1585
l32 166q3 12 19 12h157q14 0 19.5 -7.5t-2.5 -20.5l-109 -156q-7 -14 -20 -14h-78q-7 0 -13 5t-5 15z" />
    <glyph glyph-name="ucircumflex" unicode="&#xfb;" horiz-adv-x="1290" 
d="M844 473v860q0 8 5.5 13.5t12.5 5.5h234q7 0 12.5 -5.5t5.5 -13.5v-925q0 -218 -117.5 -323t-349.5 -105q-227 0 -348 101t-121 327v925q0 7 6 13t13 6h235q8 0 13.5 -6t5.5 -13v-860q0 -64 16.5 -108.5t44.5 -67t58 -32t65 -9.5h24q93 0 139 57.5t46 159.5zM379 1536
q-12 0 -17.5 10t3.5 21l180 196q9 9 12 9h217q6 0 17 -11l135 -198q5 -5 0.5 -16t-15.5 -11h-163q-14 0 -17 10l-74 123l-108 -127q-3 -6 -12 -6h-158z" />
    <glyph glyph-name="udieresis" unicode="&#xfc;" horiz-adv-x="1290" 
d="M844 473v860q0 8 5.5 13.5t12.5 5.5h234q7 0 12.5 -5.5t5.5 -13.5v-925q0 -218 -117.5 -323t-349.5 -105q-227 0 -348 101t-121 327v925q0 7 6 13t13 6h235q8 0 13.5 -6t5.5 -13v-860q0 -64 16.5 -108.5t44.5 -67t58 -32t65 -9.5h24q93 0 139 57.5t46 159.5zM432 1661
q0 40 30 69t73 29q40 0 68 -29t28 -69t-28.5 -71t-67.5 -31q-42 0 -72.5 31t-30.5 71zM764 1559q-39 0 -67.5 31t-28.5 71t28 69t68 29q42 0 71 -29t29 -69q0 -41 -29 -71.5t-71 -30.5z" />
    <glyph glyph-name="yacute" unicode="&#xfd;" horiz-adv-x="1046" 
d="M524 997l174 344q7 11 17 11h229q9 0 14.5 -7.5t2.5 -15.5l-297 -690v-621q0 -7 -5.5 -12.5t-13.5 -5.5h-242q-5 0 -9.5 5.5t-4.5 12.5v621l-305 686q-3 11 1.5 19t14.5 8h230q9 0 16 -11zM455 1585l32 166q3 12 19 12h158q14 0 19 -7.5t-3 -20.5l-109 -156
q-7 -14 -20 -14h-78q-7 0 -13 5t-5 15z" />
    <glyph glyph-name="thorn" unicode="&#xfe;" horiz-adv-x="1134" 
d="M633 1233q173 0 268.5 -96.5t95.5 -274.5v-256q0 -166 -97.5 -268t-266.5 -102h-144v-218q0 -8 -5.5 -13t-12.5 -5h-235q-8 0 -13.5 5.5t-5.5 12.5v1315q0 7 5.5 13t13.5 6h235q7 0 12.5 -5.5t5.5 -13.5v-100h144zM729 666v135q0 96 -51 135t-158 39h-31v-483h31
q97 0 153 38.5t56 135.5z" />
    <glyph glyph-name="ydieresis" unicode="&#xff;" horiz-adv-x="1046" 
d="M524 997l174 344q7 11 17 11h229q9 0 14.5 -7.5t2.5 -15.5l-297 -690v-621q0 -7 -5.5 -12.5t-13.5 -5.5h-242q-5 0 -9.5 5.5t-4.5 12.5v621l-305 686q-3 11 1.5 19t14.5 8h230q9 0 16 -11zM305 1661q0 40 30 69t73 29q40 0 68 -29t28 -69t-28.5 -71t-67.5 -31
q-42 0 -72.5 31t-30.5 71zM637 1559q-39 0 -67.5 31t-28.5 71t28 69t68 29q42 0 71 -29t29 -69q0 -41 -29 -71.5t-71 -30.5z" />
    <glyph glyph-name="Amacron" unicode="&#x100;" 
d="M449 1339q4 13 14 13h254q10 0 14 -13l354 -1316q2 -9 -3.5 -16t-14.5 -7h-233q-12 0 -15 12l-80 287h-299l-78 -287q-3 -12 -14 -12h-235q-9 0 -15 7t-4 16zM506 553h170l-88 309zM346 1741h492q4 0 9 -6t5 -9v-180q0 -14 -14 -14h-492q-20 0 -20 14v180q0 15 20 15z
" />
    <glyph glyph-name="amacron" unicode="&#x101;" 
d="M449 1339q4 13 14 13h254q10 0 14 -13l354 -1316q2 -9 -3.5 -16t-14.5 -7h-233q-12 0 -15 12l-80 287h-299l-78 -287q-3 -12 -14 -12h-235q-9 0 -15 7t-4 16zM506 553h170l-88 309zM346 1741h492q4 0 9 -6t5 -9v-180q0 -14 -14 -14h-492q-20 0 -20 14v180q0 15 20 15z
" />
    <glyph glyph-name="Abreve" unicode="&#x102;" 
d="M449 1339q4 13 14 13h254q10 0 14 -13l354 -1316q2 -9 -3.5 -16t-14.5 -7h-233q-12 0 -15 12l-80 287h-299l-78 -287q-3 -12 -14 -12h-235q-9 0 -15 7t-4 16zM506 553h170l-88 309zM655 1821h164q9 0 14 -6.5t5 -14.5q0 -101 -70.5 -170t-173.5 -69q-99 0 -172.5 68.5
t-73.5 170.5q0 21 19 21h163q17 0 17 -17q0 -20 12 -33.5t35 -13.5q18 0 30.5 13t12.5 34q0 17 18 17z" />
    <glyph glyph-name="abreve" unicode="&#x103;" 
d="M449 1339q4 13 14 13h254q10 0 14 -13l354 -1316q2 -9 -3.5 -16t-14.5 -7h-233q-12 0 -15 12l-80 287h-299l-78 -287q-3 -12 -14 -12h-235q-9 0 -15 7t-4 16zM506 553h170l-88 309zM655 1821h164q9 0 14 -6.5t5 -14.5q0 -101 -70.5 -170t-173.5 -69q-99 0 -172.5 68.5
t-73.5 170.5q0 21 19 21h163q17 0 17 -17q0 -20 12 -33.5t35 -13.5q18 0 30.5 13t12.5 34q0 17 18 17z" />
    <glyph glyph-name="Aogonek" unicode="&#x104;" 
d="M1085 23q2 -8 -3.5 -15.5t-14.5 -7.5h-29v-78q0 -42 -0.5 -59.5t-6 -41.5t-17.5 -36q-32 -32 -113 -29q-41 0 -41 -22q0 -27 94 -27h23q20 0 20 -16v-150q0 -4 -5.5 -9t-14.5 -5h-98q-203 0 -203 197v34q0 106 24 138l11 10q35 35 123 35h18v59h-18q-13 0 -15 12l-80 287
h-299l-78 -287q-3 -12 -14 -12h-235q-9 0 -15 7.5t-4 15.5l355 1316q3 13 14 13h254q11 0 14 -13zM506 553h170l-88 309z" />
    <glyph glyph-name="aogonek" unicode="&#x105;" 
d="M1085 23q2 -8 -3.5 -15.5t-14.5 -7.5h-29v-78q0 -42 -0.5 -59.5t-6 -41.5t-17.5 -36q-32 -32 -113 -29q-41 0 -41 -22q0 -27 94 -27h23q20 0 20 -16v-150q0 -4 -5.5 -9t-14.5 -5h-98q-203 0 -203 197v34q0 106 24 138l11 10q35 35 123 35h18v59h-18q-13 0 -15 12l-80 287
h-299l-78 -287q-3 -12 -14 -12h-235q-9 0 -15 7.5t-4 15.5l355 1316q3 13 14 13h254q11 0 14 -13zM506 553h170l-88 309z" />
    <glyph glyph-name="Cacute" unicode="&#x106;" horiz-adv-x="1257" 
d="M834 473v64q0 7 5 12.5t13 5.5h233q8 0 13.5 -5.5t5.5 -12.5v-129q0 -222 -117 -325t-350 -103q-226 0 -348.5 101t-122.5 327v538q0 222 118 323t353 101q228 0 347.5 -99t119.5 -325v-43q0 -7 -5.5 -12.5t-13.5 -5.5h-235q-8 0 -13.5 5.5t-5.5 12.5v33q0 80 -51.5 120
t-132.5 40h-24q-99 0 -144 -60q-39 -52 -39 -157v-406q0 -63 16.5 -108t45 -67.5t58 -32t63.5 -9.5h24q101 0 146 59q41 56 41 158zM584 1585l32 166q3 12 19 12h158q14 0 19 -7.5t-3 -20.5l-109 -156q-7 -14 -20 -14h-78q-7 0 -13 5t-5 15z" />
    <glyph glyph-name="cacute" unicode="&#x107;" horiz-adv-x="1257" 
d="M834 473v64q0 7 5 12.5t13 5.5h233q8 0 13.5 -5.5t5.5 -12.5v-129q0 -222 -117 -325t-350 -103q-226 0 -348.5 101t-122.5 327v538q0 222 118 323t353 101q228 0 347.5 -99t119.5 -325v-43q0 -7 -5.5 -12.5t-13.5 -5.5h-235q-8 0 -13.5 5.5t-5.5 12.5v33q0 80 -51.5 120
t-132.5 40h-24q-99 0 -144 -60q-39 -52 -39 -157v-406q0 -63 16.5 -108t45 -67.5t58 -32t63.5 -9.5h24q101 0 146 59q41 56 41 158zM584 1585l32 166q3 12 19 12h158q14 0 19 -7.5t-3 -20.5l-109 -156q-7 -14 -20 -14h-78q-7 0 -13 5t-5 15z" />
    <glyph glyph-name="Ccircumflex" unicode="&#x108;" horiz-adv-x="1257" 
d="M834 473v64q0 7 5 12.5t13 5.5h233q8 0 13.5 -5.5t5.5 -12.5v-129q0 -222 -117 -325t-350 -103q-226 0 -348.5 101t-122.5 327v538q0 222 118 323t353 101q228 0 347.5 -99t119.5 -325v-43q0 -7 -5.5 -12.5t-13.5 -5.5h-235q-8 0 -13.5 5.5t-5.5 12.5v33q0 80 -51.5 120
t-132.5 40h-24q-99 0 -144 -60q-39 -52 -39 -157v-406q0 -63 16.5 -108t45 -67.5t58 -32t63.5 -9.5h24q101 0 146 59q41 56 41 158zM369 1536q-12 0 -18 10t3 21l181 196q9 9 12 9h217q5 0 16 -11l135 -198q5 -5 1 -16t-15 -11h-164q-13 0 -16 10l-74 123l-108 -127
q-3 -6 -13 -6h-157z" />
    <glyph glyph-name="ccircumflex" unicode="&#x109;" horiz-adv-x="1257" 
d="M834 473v64q0 7 5 12.5t13 5.5h233q8 0 13.5 -5.5t5.5 -12.5v-129q0 -222 -117 -325t-350 -103q-226 0 -348.5 101t-122.5 327v538q0 222 118 323t353 101q228 0 347.5 -99t119.5 -325v-43q0 -7 -5.5 -12.5t-13.5 -5.5h-235q-8 0 -13.5 5.5t-5.5 12.5v33q0 80 -51.5 120
t-132.5 40h-24q-99 0 -144 -60q-39 -52 -39 -157v-406q0 -63 16.5 -108t45 -67.5t58 -32t63.5 -9.5h24q101 0 146 59q41 56 41 158zM369 1536q-12 0 -18 10t3 21l181 196q9 9 12 9h217q5 0 16 -11l135 -198q5 -5 1 -16t-15 -11h-164q-13 0 -16 10l-74 123l-108 -127
q-3 -6 -13 -6h-157z" />
    <glyph glyph-name="Cdotaccent" unicode="&#x10a;" horiz-adv-x="1257" 
d="M834 473v64q0 7 5 12.5t13 5.5h233q8 0 13.5 -5.5t5.5 -12.5v-129q0 -222 -117 -325t-350 -103q-226 0 -348.5 101t-122.5 327v538q0 222 118 323t353 101q228 0 347.5 -99t119.5 -325v-43q0 -7 -5.5 -12.5t-13.5 -5.5h-235q-8 0 -13.5 5.5t-5.5 12.5v33q0 80 -51.5 120
t-132.5 40h-24q-99 0 -144 -60q-39 -52 -39 -157v-406q0 -63 16.5 -108t45 -67.5t58 -32t63.5 -9.5h24q101 0 146 59q41 56 41 158zM647 1757q41 0 69.5 -29t28.5 -69q0 -41 -29 -72t-69 -31q-41 0 -71.5 31.5t-30.5 71.5t30.5 69t71.5 29z" />
    <glyph glyph-name="cdotaccent" unicode="&#x10b;" horiz-adv-x="1257" 
d="M834 473v64q0 7 5 12.5t13 5.5h233q8 0 13.5 -5.5t5.5 -12.5v-129q0 -222 -117 -325t-350 -103q-226 0 -348.5 101t-122.5 327v538q0 222 118 323t353 101q228 0 347.5 -99t119.5 -325v-43q0 -7 -5.5 -12.5t-13.5 -5.5h-235q-8 0 -13.5 5.5t-5.5 12.5v33q0 80 -51.5 120
t-132.5 40h-24q-99 0 -144 -60q-39 -52 -39 -157v-406q0 -63 16.5 -108t45 -67.5t58 -32t63.5 -9.5h24q101 0 146 59q41 56 41 158zM647 1757q41 0 69.5 -29t28.5 -69q0 -41 -29 -72t-69 -31q-41 0 -71.5 31.5t-30.5 71.5t30.5 69t71.5 29z" />
    <glyph glyph-name="Ccaron" unicode="&#x10c;" horiz-adv-x="1257" 
d="M834 473v64q0 7 5 12.5t13 5.5h233q8 0 13.5 -5.5t5.5 -12.5v-129q0 -222 -117 -325t-350 -103q-226 0 -348.5 101t-122.5 327v538q0 222 118 323t353 101q228 0 347.5 -99t119.5 -325v-43q0 -7 -5.5 -12.5t-13.5 -5.5h-235q-8 0 -13.5 5.5t-5.5 12.5v33q0 80 -51.5 120
t-132.5 40h-24q-99 0 -144 -60q-39 -52 -39 -157v-406q0 -63 16.5 -108t45 -67.5t58 -32t63.5 -9.5h24q101 0 146 59q41 56 41 158zM913 1780q9 0 14.5 -11t-1.5 -20l-156 -199q-9 -6 -16 -6h-217q-7 0 -13 6l-159 199q-6 7 -2 19t14 12h160q7 0 18 -11l88 -122l90 122
q11 11 17 11h163z" />
    <glyph glyph-name="ccaron" unicode="&#x10d;" horiz-adv-x="1257" 
d="M834 473v64q0 7 5 12.5t13 5.5h233q8 0 13.5 -5.5t5.5 -12.5v-129q0 -222 -117 -325t-350 -103q-226 0 -348.5 101t-122.5 327v538q0 222 118 323t353 101q228 0 347.5 -99t119.5 -325v-43q0 -7 -5.5 -12.5t-13.5 -5.5h-235q-8 0 -13.5 5.5t-5.5 12.5v33q0 80 -51.5 120
t-132.5 40h-24q-99 0 -144 -60q-39 -52 -39 -157v-406q0 -63 16.5 -108t45 -67.5t58 -32t63.5 -9.5h24q101 0 146 59q41 56 41 158zM913 1780q9 0 14.5 -11t-1.5 -20l-156 -199q-9 -6 -16 -6h-217q-7 0 -13 6l-159 199q-6 7 -2 19t14 12h160q7 0 18 -11l88 -122l90 122
q11 11 17 11h163z" />
    <glyph glyph-name="Dcaron" unicode="&#x10e;" horiz-adv-x="1284" 
d="M709 1352q207 0 313 -115q92 -103 92 -291v-543q0 -188 -105.5 -295.5t-299.5 -107.5h-512q-17 0 -17 18v1315q0 8 5 13.5t12 5.5h512zM846 465v420q0 99 -53 155t-158 56h-184v-840h184q94 0 152.5 57t58.5 152zM891 1780q9 0 14 -11t-2 -20l-155 -199q-9 -6 -17 -6
h-217q-6 0 -12 6l-160 199q-6 7 -2 19t14 12h160q7 0 18 -11l89 -122l90 122q11 11 16 11h164z" />
    <glyph glyph-name="dcaron" unicode="&#x10f;" horiz-adv-x="1284" 
d="M709 1352q207 0 313 -115q92 -103 92 -291v-543q0 -188 -105.5 -295.5t-299.5 -107.5h-512q-17 0 -17 18v1315q0 8 5 13.5t12 5.5h512zM846 465v420q0 99 -53 155t-158 56h-184v-840h184q94 0 152.5 57t58.5 152zM891 1780q9 0 14 -11t-2 -20l-155 -199q-9 -6 -17 -6
h-217q-6 0 -12 6l-160 199q-6 7 -2 19t14 12h160q7 0 18 -11l89 -122l90 122q11 11 16 11h164z" />
    <glyph glyph-name="Dcroat" unicode="&#x110;" horiz-adv-x="1396" 
d="M823 1352q191 0 299.5 -105t108.5 -301v-543q0 -188 -106.5 -295.5t-301.5 -107.5h-512q-16 0 -16 18v566h-86q-4 0 -10 5.5t-6 12.5v176q0 7 5.5 14t10.5 7h86v534q0 19 16 19h512zM956 465v420q0 99 -51 155t-153 56h-187v-297h228q6 0 11 -6t5 -15v-176q0 -18 -16 -18
h-228v-328h187q92 0 148 56.5t56 152.5z" />
    <glyph glyph-name="dcroat" unicode="&#x111;" horiz-adv-x="1396" 
d="M823 1352q191 0 299.5 -105t108.5 -301v-543q0 -188 -106.5 -295.5t-301.5 -107.5h-512q-16 0 -16 18v566h-86q-4 0 -10 5.5t-6 12.5v176q0 7 5.5 14t10.5 7h86v534q0 19 16 19h512zM956 465v420q0 99 -51 155t-153 56h-187v-297h228q6 0 11 -6t5 -15v-176q0 -18 -16 -18
h-228v-328h187q92 0 148 56.5t56 152.5z" />
    <glyph glyph-name="Emacron" unicode="&#x112;" horiz-adv-x="1077" 
d="M209 0q-16 0 -16 18v1315q0 19 16 19h696q7 0 13 -6t6 -13v-219q0 -7 -5.5 -12.5t-13.5 -5.5h-442v-279h344q16 0 16 -18v-224q0 -18 -16 -18h-344v-301h442q8 0 13.5 -5.5t5.5 -12.5v-220q0 -7 -5.5 -12.5t-13.5 -5.5h-696zM313 1741h492q4 0 9 -6t5 -9v-180
q0 -14 -14 -14h-492q-20 0 -20 14v180q0 15 20 15z" />
    <glyph glyph-name="emacron" unicode="&#x113;" horiz-adv-x="1077" 
d="M209 0q-16 0 -16 18v1315q0 19 16 19h696q7 0 13 -6t6 -13v-219q0 -7 -5.5 -12.5t-13.5 -5.5h-442v-279h344q16 0 16 -18v-224q0 -18 -16 -18h-344v-301h442q8 0 13.5 -5.5t5.5 -12.5v-220q0 -7 -5.5 -12.5t-13.5 -5.5h-696zM313 1741h492q4 0 9 -6t5 -9v-180
q0 -14 -14 -14h-492q-20 0 -20 14v180q0 15 20 15z" />
    <glyph glyph-name="Ebreve" unicode="&#x114;" horiz-adv-x="1077" 
d="M209 0q-16 0 -16 18v1315q0 19 16 19h696q7 0 13 -6t6 -13v-219q0 -7 -5.5 -12.5t-13.5 -5.5h-442v-279h344q16 0 16 -18v-224q0 -18 -16 -18h-344v-301h442q8 0 13.5 -5.5t5.5 -12.5v-220q0 -7 -5.5 -12.5t-13.5 -5.5h-696zM604 1821h164q18 0 18 -21q0 -101 -70 -170
t-173 -69q-99 0 -172.5 68.5t-73.5 170.5q0 21 18 21h164q17 0 17 -17q0 -20 12 -33.5t35 -13.5q18 0 30.5 13t12.5 34q0 17 18 17z" />
    <glyph glyph-name="ebreve" unicode="&#x115;" horiz-adv-x="1077" 
d="M209 0q-16 0 -16 18v1315q0 19 16 19h696q7 0 13 -6t6 -13v-219q0 -7 -5.5 -12.5t-13.5 -5.5h-442v-279h344q16 0 16 -18v-224q0 -18 -16 -18h-344v-301h442q8 0 13.5 -5.5t5.5 -12.5v-220q0 -7 -5.5 -12.5t-13.5 -5.5h-696zM604 1821h164q18 0 18 -21q0 -101 -70 -170
t-173 -69q-99 0 -172.5 68.5t-73.5 170.5q0 21 18 21h164q17 0 17 -17q0 -20 12 -33.5t35 -13.5q18 0 30.5 13t12.5 34q0 17 18 17z" />
    <glyph glyph-name="Edotaccent" unicode="&#x116;" horiz-adv-x="1077" 
d="M209 0q-16 0 -16 18v1315q0 19 16 19h696q7 0 13 -6t6 -13v-219q0 -7 -5.5 -12.5t-13.5 -5.5h-442v-279h344q16 0 16 -18v-224q0 -18 -16 -18h-344v-301h442q8 0 13.5 -5.5t5.5 -12.5v-220q0 -7 -5.5 -12.5t-13.5 -5.5h-696zM569 1757q41 0 70 -29t29 -69t-29 -71.5
t-70 -31.5t-71.5 31.5t-30.5 71.5t30.5 69t71.5 29z" />
    <glyph glyph-name="edotaccent" unicode="&#x117;" horiz-adv-x="1077" 
d="M209 0q-16 0 -16 18v1315q0 19 16 19h696q7 0 13 -6t6 -13v-219q0 -7 -5.5 -12.5t-13.5 -5.5h-442v-279h344q16 0 16 -18v-224q0 -18 -16 -18h-344v-301h442q8 0 13.5 -5.5t5.5 -12.5v-220q0 -7 -5.5 -12.5t-13.5 -5.5h-696zM569 1757q41 0 70 -29t29 -69t-29 -71.5
t-70 -31.5t-71.5 31.5t-30.5 71.5t30.5 69t71.5 29z" />
    <glyph glyph-name="Eogonek" unicode="&#x118;" horiz-adv-x="1075" 
d="M193 1333q0 19 16 19h694q7 0 13 -6t6 -13v-219q0 -7 -5.5 -12.5t-13.5 -5.5h-442v-279h346q16 0 16 -18v-224q0 -18 -16 -18h-346v-301h442q8 0 13.5 -5.5t5.5 -12.5v-220q0 -7 -5.5 -12.5t-13.5 -5.5h-276v-80q0 -60 -4.5 -90.5t-20.5 -46.5q-18 -18 -45 -23.5
t-78 -5.5q-30 0 -30 -22q0 -27 94 -27h24q19 0 19 -18v-148q0 -6 -6 -11t-13 -5h-98q-205 0 -205 198v35q0 89 35 136t125 47h16v61h-231q-16 0 -16 18v1315z" />
    <glyph glyph-name="eogonek" unicode="&#x119;" horiz-adv-x="1075" 
d="M193 1333q0 19 16 19h694q7 0 13 -6t6 -13v-219q0 -7 -5.5 -12.5t-13.5 -5.5h-442v-279h346q16 0 16 -18v-224q0 -18 -16 -18h-346v-301h442q8 0 13.5 -5.5t5.5 -12.5v-220q0 -7 -5.5 -12.5t-13.5 -5.5h-276v-80q0 -60 -4.5 -90.5t-20.5 -46.5q-18 -18 -45 -23.5
t-78 -5.5q-30 0 -30 -22q0 -27 94 -27h24q19 0 19 -18v-148q0 -6 -6 -11t-13 -5h-98q-205 0 -205 198v35q0 89 35 136t125 47h16v61h-231q-16 0 -16 18v1315z" />
    <glyph glyph-name="Ecaron" unicode="&#x11a;" horiz-adv-x="1077" 
d="M209 0q-16 0 -16 18v1315q0 19 16 19h696q7 0 13 -6t6 -13v-219q0 -7 -5.5 -12.5t-13.5 -5.5h-442v-279h344q16 0 16 -18v-224q0 -18 -16 -18h-344v-301h442q8 0 13.5 -5.5t5.5 -12.5v-220q0 -7 -5.5 -12.5t-13.5 -5.5h-696zM868 1780q9 0 14.5 -11t-1.5 -20l-156 -199
q-9 -6 -16 -6h-217q-7 0 -13 6l-160 199q-6 7 -1.5 19t14.5 12h160q7 0 18 -11l88 -122l90 122q11 11 17 11h163z" />
    <glyph glyph-name="ecaron" unicode="&#x11b;" horiz-adv-x="1077" 
d="M209 0q-16 0 -16 18v1315q0 19 16 19h696q7 0 13 -6t6 -13v-219q0 -7 -5.5 -12.5t-13.5 -5.5h-442v-279h344q16 0 16 -18v-224q0 -18 -16 -18h-344v-301h442q8 0 13.5 -5.5t5.5 -12.5v-220q0 -7 -5.5 -12.5t-13.5 -5.5h-696zM868 1780q9 0 14.5 -11t-1.5 -20l-156 -199
q-9 -6 -16 -6h-217q-7 0 -13 6l-160 199q-6 7 -1.5 19t14.5 12h160q7 0 18 -11l88 -122l90 122q11 11 17 11h163z" />
    <glyph glyph-name="Gcircumflex" unicode="&#x11c;" horiz-adv-x="1259" 
d="M616 492q-8 0 -13 5t-5 13v219q0 8 5.5 13.5t12.5 5.5h469q7 0 13 -6t6 -13v-321q0 -222 -117 -325t-350 -103q-226 0 -348.5 101t-122.5 327v538q0 219 118.5 321.5t352.5 102.5q227 0 347 -99.5t120 -324.5v-43q0 -7 -5.5 -12.5t-13.5 -5.5h-235q-8 0 -13.5 5.5
t-5.5 12.5v27q0 166 -184 166h-24q-99 0 -144 -60q-39 -52 -39 -157v-406q0 -64 16 -108.5t44 -67t57.5 -32t65.5 -9.5h24q91 0 137.5 58t46.5 159v19h-215zM369 1536q-12 0 -18 10t3 21l181 196q9 9 12 9h217q5 0 16 -11l135 -198q5 -5 1 -16t-15 -11h-164q-13 0 -16 10
l-74 123l-108 -127q-3 -6 -13 -6h-157z" />
    <glyph glyph-name="gcircumflex" unicode="&#x11d;" horiz-adv-x="1259" 
d="M616 492q-8 0 -13 5t-5 13v219q0 8 5.5 13.5t12.5 5.5h469q7 0 13 -6t6 -13v-321q0 -222 -117 -325t-350 -103q-226 0 -348.5 101t-122.5 327v538q0 219 118.5 321.5t352.5 102.5q227 0 347 -99.5t120 -324.5v-43q0 -7 -5.5 -12.5t-13.5 -5.5h-235q-8 0 -13.5 5.5
t-5.5 12.5v27q0 166 -184 166h-24q-99 0 -144 -60q-39 -52 -39 -157v-406q0 -64 16 -108.5t44 -67t57.5 -32t65.5 -9.5h24q91 0 137.5 58t46.5 159v19h-215zM369 1536q-12 0 -18 10t3 21l181 196q9 9 12 9h217q5 0 16 -11l135 -198q5 -5 1 -16t-15 -11h-164q-13 0 -16 10
l-74 123l-108 -127q-3 -6 -13 -6h-157z" />
    <glyph glyph-name="Gbreve" unicode="&#x11e;" horiz-adv-x="1259" 
d="M616 492q-8 0 -13 5t-5 13v219q0 8 5.5 13.5t12.5 5.5h469q7 0 13 -6t6 -13v-321q0 -222 -117 -325t-350 -103q-226 0 -348.5 101t-122.5 327v538q0 219 118.5 321.5t352.5 102.5q227 0 347 -99.5t120 -324.5v-43q0 -7 -5.5 -12.5t-13.5 -5.5h-235q-8 0 -13.5 5.5
t-5.5 12.5v27q0 166 -184 166h-24q-99 0 -144 -60q-39 -52 -39 -157v-406q0 -64 16 -108.5t44 -67t57.5 -32t65.5 -9.5h24q91 0 137.5 58t46.5 159v19h-215zM707 1821h163q9 0 14 -6.5t5 -14.5q0 -101 -70.5 -170t-173.5 -69q-99 0 -172.5 68.5t-73.5 170.5q0 21 19 21h164
q16 0 16 -17q0 -20 12 -33.5t35 -13.5q18 0 30.5 13t12.5 34q0 17 19 17z" />
    <glyph glyph-name="gbreve" unicode="&#x11f;" horiz-adv-x="1259" 
d="M616 492q-8 0 -13 5t-5 13v219q0 8 5.5 13.5t12.5 5.5h469q7 0 13 -6t6 -13v-321q0 -222 -117 -325t-350 -103q-226 0 -348.5 101t-122.5 327v538q0 219 118.5 321.5t352.5 102.5q227 0 347 -99.5t120 -324.5v-43q0 -7 -5.5 -12.5t-13.5 -5.5h-235q-8 0 -13.5 5.5
t-5.5 12.5v27q0 166 -184 166h-24q-99 0 -144 -60q-39 -52 -39 -157v-406q0 -64 16 -108.5t44 -67t57.5 -32t65.5 -9.5h24q91 0 137.5 58t46.5 159v19h-215zM707 1821h163q9 0 14 -6.5t5 -14.5q0 -101 -70.5 -170t-173.5 -69q-99 0 -172.5 68.5t-73.5 170.5q0 21 19 21h164
q16 0 16 -17q0 -20 12 -33.5t35 -13.5q18 0 30.5 13t12.5 34q0 17 19 17z" />
    <glyph glyph-name="Gdotaccent" unicode="&#x120;" horiz-adv-x="1259" 
d="M616 492q-8 0 -13 5t-5 13v219q0 8 5.5 13.5t12.5 5.5h469q7 0 13 -6t6 -13v-321q0 -222 -117 -325t-350 -103q-226 0 -348.5 101t-122.5 327v538q0 219 118.5 321.5t352.5 102.5q227 0 347 -99.5t120 -324.5v-43q0 -7 -5.5 -12.5t-13.5 -5.5h-235q-8 0 -13.5 5.5
t-5.5 12.5v27q0 166 -184 166h-24q-99 0 -144 -60q-39 -52 -39 -157v-406q0 -64 16 -108.5t44 -67t57.5 -32t65.5 -9.5h24q91 0 137.5 58t46.5 159v19h-215zM647 1757q41 0 69.5 -29t28.5 -69q0 -41 -29 -72t-69 -31q-41 0 -71.5 31.5t-30.5 71.5t30.5 69t71.5 29z" />
    <glyph glyph-name="gdotaccent" unicode="&#x121;" horiz-adv-x="1259" 
d="M616 492q-8 0 -13 5t-5 13v219q0 8 5.5 13.5t12.5 5.5h469q7 0 13 -6t6 -13v-321q0 -222 -117 -325t-350 -103q-226 0 -348.5 101t-122.5 327v538q0 219 118.5 321.5t352.5 102.5q227 0 347 -99.5t120 -324.5v-43q0 -7 -5.5 -12.5t-13.5 -5.5h-235q-8 0 -13.5 5.5
t-5.5 12.5v27q0 166 -184 166h-24q-99 0 -144 -60q-39 -52 -39 -157v-406q0 -64 16 -108.5t44 -67t57.5 -32t65.5 -9.5h24q91 0 137.5 58t46.5 159v19h-215zM647 1757q41 0 69.5 -29t28.5 -69q0 -41 -29 -72t-69 -31q-41 0 -71.5 31.5t-30.5 71.5t30.5 69t71.5 29z" />
    <glyph glyph-name="uni0122" unicode="&#x122;" horiz-adv-x="1259" 
d="M616 492q-8 0 -13 5t-5 13v219q0 8 5.5 13.5t12.5 5.5h469q7 0 13 -6t6 -13v-321q0 -222 -117 -325t-350 -103q-226 0 -348.5 101t-122.5 327v538q0 219 118.5 321.5t352.5 102.5q227 0 347 -99.5t120 -324.5v-43q0 -7 -5.5 -12.5t-13.5 -5.5h-235q-8 0 -13.5 5.5
t-5.5 12.5v27q0 166 -184 166h-24q-99 0 -144 -60q-39 -52 -39 -157v-406q0 -64 16 -108.5t44 -67t57.5 -32t65.5 -9.5h24q91 0 137.5 58t46.5 159v19h-215zM616 -141q74 0 128.5 -50t54.5 -124q0 -13 -11 -52l-116 -303q-4 -14 -17 -14h-139q-13 0 -17 8.5t-1 18.5l65 163
q-55 18 -93 66.5t-38 108.5q0 74 54 126t130 52z" />
    <glyph glyph-name="uni0123" unicode="&#x123;" horiz-adv-x="1259" 
d="M616 492q-8 0 -13 5t-5 13v219q0 8 5.5 13.5t12.5 5.5h469q7 0 13 -6t6 -13v-321q0 -222 -117 -325t-350 -103q-226 0 -348.5 101t-122.5 327v538q0 219 118.5 321.5t352.5 102.5q227 0 347 -99.5t120 -324.5v-43q0 -7 -5.5 -12.5t-13.5 -5.5h-235q-8 0 -13.5 5.5
t-5.5 12.5v27q0 166 -184 166h-24q-99 0 -144 -60q-39 -52 -39 -157v-406q0 -64 16 -108.5t44 -67t57.5 -32t65.5 -9.5h24q91 0 137.5 58t46.5 159v19h-215zM616 -141q74 0 128.5 -50t54.5 -124q0 -13 -11 -52l-116 -303q-4 -14 -17 -14h-139q-13 0 -17 8.5t-1 18.5l65 163
q-55 18 -93 66.5t-38 108.5q0 74 54 126t130 52z" />
    <glyph glyph-name="Hcircumflex" unicode="&#x124;" horiz-adv-x="1253" 
d="M793 819v514q0 8 5.5 13.5t12.5 5.5h233q8 0 13.5 -6t5.5 -13v-1315q0 -7 -5.5 -12.5t-13.5 -5.5h-233q-7 0 -12.5 5t-5.5 13v545h-332v-545q0 -7 -5.5 -12.5t-13.5 -5.5h-233q-16 0 -16 18v1315q0 19 16 19h233q8 0 13.5 -6t5.5 -13v-514h332zM369 1536q-12 0 -18 10
t3 21l181 196q9 9 12 9h217q5 0 16 -11l135 -198q5 -5 1 -16t-15 -11h-164q-13 0 -16 10l-74 123l-108 -127q-3 -6 -13 -6h-157z" />
    <glyph glyph-name="hcircumflex" unicode="&#x125;" horiz-adv-x="1253" 
d="M793 819v514q0 8 5.5 13.5t12.5 5.5h233q8 0 13.5 -6t5.5 -13v-1315q0 -7 -5.5 -12.5t-13.5 -5.5h-233q-7 0 -12.5 5t-5.5 13v545h-332v-545q0 -7 -5.5 -12.5t-13.5 -5.5h-233q-16 0 -16 18v1315q0 19 16 19h233q8 0 13.5 -6t5.5 -13v-514h332zM369 1536q-12 0 -18 10
t3 21l181 196q9 9 12 9h217q5 0 16 -11l135 -198q5 -5 1 -16t-15 -11h-164q-13 0 -16 10l-74 123l-108 -127q-3 -6 -13 -6h-157z" />
    <glyph glyph-name="Hbar" unicode="&#x126;" horiz-adv-x="1488" 
d="M1182 1128h98q8 0 13 -5t5 -13v-176q0 -8 -5.5 -13.5t-12.5 -5.5h-98v-897q0 -18 -17 -18h-239q-17 0 -17 18v545h-327v-545q0 -7 -5.5 -12.5t-13.5 -5.5h-235q-8 0 -13.5 5.5t-5.5 12.5v897h-100q-16 0 -16 19v176q0 18 16 18h100v205q0 7 5.5 13t13.5 6h235q7 0 13 -6
t6 -13v-205h327v205q0 8 5 13.5t12 5.5h239q7 0 12 -5.5t5 -13.5v-205zM909 819v96h-327v-96h327z" />
    <glyph glyph-name="hbar" unicode="&#x127;" horiz-adv-x="1488" 
d="M1182 1128h98q8 0 13 -5t5 -13v-176q0 -8 -5.5 -13.5t-12.5 -5.5h-98v-897q0 -18 -17 -18h-239q-17 0 -17 18v545h-327v-545q0 -7 -5.5 -12.5t-13.5 -5.5h-235q-8 0 -13.5 5.5t-5.5 12.5v897h-100q-16 0 -16 19v176q0 18 16 18h100v205q0 7 5.5 13t13.5 6h235q7 0 13 -6
t6 -13v-205h327v205q0 8 5 13.5t12 5.5h239q7 0 12 -5.5t5 -13.5v-205zM909 819v96h-327v-96h327z" />
    <glyph glyph-name="Itilde" unicode="&#x128;" horiz-adv-x="645" 
d="M209 0q-16 0 -16 18v1315q0 19 16 19h233q8 0 13.5 -6t5.5 -13v-1315q0 -7 -5.5 -12.5t-13.5 -5.5h-233zM473 1800q76 0 130 -68t54 -151q0 -20 -18 -20h-135q-19 0 -19 16q0 17 -13 30t-32 13q-18 0 -41.5 -20t-55 -40t-67.5 -20q-87 0 -135.5 66t-48.5 153
q0 8 5.5 14.5t15.5 6.5h133q16 0 16 -17q0 -13 11.5 -31t35.5 -18q13 0 37 20t57.5 41.5t69.5 24.5z" />
    <glyph glyph-name="itilde" unicode="&#x129;" horiz-adv-x="645" 
d="M209 0q-16 0 -16 18v1315q0 19 16 19h233q8 0 13.5 -6t5.5 -13v-1315q0 -7 -5.5 -12.5t-13.5 -5.5h-233zM473 1800q76 0 130 -68t54 -151q0 -20 -18 -20h-135q-19 0 -19 16q0 17 -13 30t-32 13q-18 0 -41.5 -20t-55 -40t-67.5 -20q-87 0 -135.5 66t-48.5 153
q0 8 5.5 14.5t15.5 6.5h133q16 0 16 -17q0 -13 11.5 -31t35.5 -18q13 0 37 20t57.5 41.5t69.5 24.5z" />
    <glyph glyph-name="Imacron" unicode="&#x12a;" horiz-adv-x="645" 
d="M209 0q-16 0 -16 18v1315q0 19 16 19h233q8 0 13.5 -6t5.5 -13v-1315q0 -7 -5.5 -12.5t-13.5 -5.5h-233zM84 1741h491q4 0 9.5 -6t5.5 -9v-180q0 -14 -15 -14h-491q-21 0 -21 14v180q0 15 21 15z" />
    <glyph glyph-name="imacron" unicode="&#x12b;" horiz-adv-x="645" 
d="M209 0q-16 0 -16 18v1315q0 19 16 19h233q8 0 13.5 -6t5.5 -13v-1315q0 -7 -5.5 -12.5t-13.5 -5.5h-233zM84 1741h491q4 0 9.5 -6t5.5 -9v-180q0 -14 -15 -14h-491q-21 0 -21 14v180q0 15 21 15z" />
    <glyph glyph-name="Iogonek" unicode="&#x12e;" horiz-adv-x="647" 
d="M193 1333q0 19 16 19h235q8 0 13.5 -6t5.5 -13v-1315q0 -7 -5.5 -12.5t-13.5 -5.5h-16v-80q0 -48 -4.5 -75t-19.5 -50t-45 -32t-80 -9q-33 0 -33 -22q0 -27 94 -27h29q18 0 18 -18v-148q0 -5 -5 -10.5t-13 -5.5h-103q-97 0 -151 49t-54 149v35q0 183 162 183h17v61h-31
q-16 0 -16 18v1315z" />
    <glyph glyph-name="iogonek" unicode="&#x12f;" horiz-adv-x="647" 
d="M193 1333q0 19 16 19h235q8 0 13.5 -6t5.5 -13v-1315q0 -7 -5.5 -12.5t-13.5 -5.5h-16v-80q0 -48 -4.5 -75t-19.5 -50t-45 -32t-80 -9q-33 0 -33 -22q0 -27 94 -27h29q18 0 18 -18v-148q0 -5 -5 -10.5t-13 -5.5h-103q-97 0 -151 49t-54 149v35q0 183 162 183h17v61h-31
q-16 0 -16 18v1315z" />
    <glyph glyph-name="Idotaccent" unicode="&#x130;" horiz-adv-x="645" 
d="M209 0q-16 0 -16 18v1315q0 19 16 19h233q8 0 13.5 -6t5.5 -13v-1315q0 -7 -5.5 -12.5t-13.5 -5.5h-233zM332 1757q41 0 69.5 -29t28.5 -69q0 -41 -29 -72t-69 -31q-41 0 -72 31.5t-31 71.5t31 69t72 29z" />
    <glyph glyph-name="dotlessi" unicode="&#x131;" horiz-adv-x="645" 
d="M209 0q-16 0 -16 18v1315q0 19 16 19h233q8 0 13.5 -6t5.5 -13v-1315q0 -7 -5.5 -12.5t-13.5 -5.5h-233zM332 1757q41 0 69.5 -29t28.5 -69q0 -41 -29 -72t-69 -31q-41 0 -72 31.5t-31 71.5t31 69t72 29z" />
    <glyph glyph-name="IJ" unicode="&#x132;" horiz-adv-x="1513" 
d="M197 0q-17 0 -17 18v1315q0 8 5 13.5t12 5.5h233q8 0 13.5 -6t5.5 -13v-1315q0 -7 -5.5 -12.5t-13.5 -5.5h-233zM1090 1352h235q7 0 12.5 -5.5t5.5 -13.5v-981q0 -151 -106.5 -260.5t-261.5 -109.5h-51q-129 0 -244 92q-105 98 -160 217q-6 15 6 24l215 150q6 5 14 3.5
t11 -9.5q11 -31 20.5 -53.5t26.5 -53t35 -49.5t45 -33t57 -14q36 0 61.5 22.5t37.5 59.5t17 72t5 73v850q0 7 5.5 13t13.5 6z" />
    <glyph glyph-name="ij" unicode="&#x133;" horiz-adv-x="1513" 
d="M197 0q-17 0 -17 18v1315q0 8 5 13.5t12 5.5h233q8 0 13.5 -6t5.5 -13v-1315q0 -7 -5.5 -12.5t-13.5 -5.5h-233zM1090 1352h235q7 0 12.5 -5.5t5.5 -13.5v-981q0 -151 -106.5 -260.5t-261.5 -109.5h-51q-129 0 -244 92q-105 98 -160 217q-6 15 6 24l215 150q6 5 14 3.5
t11 -9.5q11 -31 20.5 -53.5t26.5 -53t35 -49.5t45 -33t57 -14q36 0 61.5 22.5t37.5 59.5t17 72t5 73v850q0 7 5.5 13t13.5 6z" />
    <glyph glyph-name="Jcircumflex" unicode="&#x134;" horiz-adv-x="1042" 
d="M614 1352h236q7 0 12.5 -5.5t5.5 -13.5v-981q0 -151 -106.5 -260.5t-261.5 -109.5h-51q-129 0 -244 92q-105 98 -160 217q-6 15 6 24l215 150q6 5 14 3.5t11 -9.5q11 -31 20.5 -53.5t26.5 -53t35 -49.5t45 -33t57 -14q36 0 61.5 22.5t37.5 59.5t17 72t5 73v850
q0 8 5.5 13.5t12.5 5.5zM324 1536q-12 0 -18 10t3 21l180 196q9 9 13 9h217q5 0 16 -11l135 -198q5 -5 1 -16t-15 -11h-164q-13 0 -16 10l-74 123l-108 -127q-3 -6 -13 -6h-157z" />
    <glyph glyph-name="jcircumflex" unicode="&#x135;" horiz-adv-x="1042" 
d="M614 1352h236q7 0 12.5 -5.5t5.5 -13.5v-981q0 -151 -106.5 -260.5t-261.5 -109.5h-51q-129 0 -244 92q-105 98 -160 217q-6 15 6 24l215 150q6 5 14 3.5t11 -9.5q11 -31 20.5 -53.5t26.5 -53t35 -49.5t45 -33t57 -14q36 0 61.5 22.5t37.5 59.5t17 72t5 73v850
q0 8 5.5 13.5t12.5 5.5zM324 1536q-12 0 -18 10t3 21l180 196q9 9 13 9h217q5 0 16 -11l135 -198q5 -5 1 -16t-15 -11h-164q-13 0 -16 10l-74 123l-108 -127q-3 -6 -13 -6h-157z" />
    <glyph glyph-name="uni0136" unicode="&#x136;" horiz-adv-x="1189" 
d="M1053 1352q10 0 15 -10t-1 -19l-322 -444l340 -856q3 -8 -1.5 -15.5t-14.5 -7.5h-276q-12 0 -15 12l-213 613l-104 -144v-463q0 -7 -5.5 -12.5t-13.5 -5.5h-233q-16 0 -16 18v1315q0 19 16 19h233q8 0 13.5 -6t5.5 -13v-424l321 434q7 9 17 9h254zM575 -150
q74 0 128.5 -50t54.5 -124q0 -16 -10 -51l-117 -303q-1 -6 -6.5 -10t-10.5 -4h-139q-13 0 -17 8t-1 18l65 164q-55 18 -93 66.5t-38 107.5q0 74 54 126t130 52z" />
    <glyph glyph-name="uni0137" unicode="&#x137;" horiz-adv-x="1189" 
d="M1053 1352q10 0 15 -10t-1 -19l-322 -444l340 -856q3 -8 -1.5 -15.5t-14.5 -7.5h-276q-12 0 -15 12l-213 613l-104 -144v-463q0 -7 -5.5 -12.5t-13.5 -5.5h-233q-16 0 -16 18v1315q0 19 16 19h233q8 0 13.5 -6t5.5 -13v-424l321 434q7 9 17 9h254zM575 -150
q74 0 128.5 -50t54.5 -124q0 -16 -10 -51l-117 -303q-1 -6 -6.5 -10t-10.5 -4h-139q-13 0 -17 8t-1 18l65 164q-55 18 -93 66.5t-38 107.5q0 74 54 126t130 52z" />
    <glyph glyph-name="kgreenlandic" unicode="&#x138;" horiz-adv-x="1189" 
d="M1053 1352q10 0 15 -10t-1 -19l-322 -444l340 -856q3 -8 -1.5 -15.5t-14.5 -7.5h-276q-12 0 -15 12l-213 613l-104 -144v-463q0 -7 -5.5 -12.5t-13.5 -5.5h-233q-16 0 -16 18v1315q0 19 16 19h233q8 0 13.5 -6t5.5 -13v-424l321 434q7 9 17 9h254z" />
    <glyph glyph-name="Lacute" unicode="&#x139;" horiz-adv-x="1015" 
d="M442 1352q8 0 13.5 -6t5.5 -13v-1075h442q8 0 13.5 -5.5t5.5 -12.5v-222q0 -7 -5.5 -12.5t-13.5 -5.5h-694q-16 0 -16 18v1315q0 19 16 19h233zM369 1585l32 166q3 12 19 12h158q14 0 19 -7.5t-3 -20.5l-109 -156q-7 -14 -20 -14h-78q-7 0 -13 5t-5 15z" />
    <glyph glyph-name="lacute" unicode="&#x13a;" horiz-adv-x="1015" 
d="M442 1352q8 0 13.5 -6t5.5 -13v-1075h442q8 0 13.5 -5.5t5.5 -12.5v-222q0 -7 -5.5 -12.5t-13.5 -5.5h-694q-16 0 -16 18v1315q0 19 16 19h233zM369 1585l32 166q3 12 19 12h158q14 0 19 -7.5t-3 -20.5l-109 -156q-7 -14 -20 -14h-78q-7 0 -13 5t-5 15z" />
    <glyph glyph-name="uni013B" unicode="&#x13b;" horiz-adv-x="1015" 
d="M442 1352q8 0 13.5 -6t5.5 -13v-1075h442q8 0 13.5 -5.5t5.5 -12.5v-222q0 -7 -5.5 -12.5t-13.5 -5.5h-694q-16 0 -16 18v1315q0 19 16 19h233zM492 -145q74 0 128 -50t54 -124q0 -17 -10 -52l-117 -303q-1 -6 -6.5 -10t-10.5 -4h-139q-13 0 -17 8t-1 18l65 164
q-55 18 -93 66.5t-38 107.5q0 74 54.5 126.5t130.5 52.5z" />
    <glyph glyph-name="uni013C" unicode="&#x13c;" horiz-adv-x="1015" 
d="M442 1352q8 0 13.5 -6t5.5 -13v-1075h442q8 0 13.5 -5.5t5.5 -12.5v-222q0 -7 -5.5 -12.5t-13.5 -5.5h-694q-16 0 -16 18v1315q0 19 16 19h233zM492 -145q74 0 128 -50t54 -124q0 -17 -10 -52l-117 -303q-1 -6 -6.5 -10t-10.5 -4h-139q-13 0 -17 8t-1 18l65 164
q-55 18 -93 66.5t-38 107.5q0 74 54.5 126.5t130.5 52.5z" />
    <glyph glyph-name="Lcaron" unicode="&#x13d;" horiz-adv-x="1015" 
d="M442 1352q8 0 13.5 -6t5.5 -13v-1075h442q8 0 13.5 -5.5t5.5 -12.5v-222q0 -7 -5.5 -12.5t-13.5 -5.5h-694q-16 0 -16 18v1315q0 19 16 19h233zM748 1769q9 0 14 -10.5t-2 -19.5l-156 -199q-9 -6 -16 -6h-217q-7 0 -13 6l-159 199q-6 7 -2 18.5t14 11.5h160q8 0 18 -10
l88 -123l90 123q10 10 17 10h164z" />
    <glyph glyph-name="lcaron" unicode="&#x13e;" horiz-adv-x="1015" 
d="M442 1352q8 0 13.5 -6t5.5 -13v-1075h442q8 0 13.5 -5.5t5.5 -12.5v-222q0 -7 -5.5 -12.5t-13.5 -5.5h-694q-16 0 -16 18v1315q0 19 16 19h233zM748 1769q9 0 14 -10.5t-2 -19.5l-156 -199q-9 -6 -16 -6h-217q-7 0 -13 6l-159 199q-6 7 -2 18.5t14 11.5h160q8 0 18 -10
l88 -123l90 123q10 10 17 10h164z" />
    <glyph glyph-name="Ldot" unicode="&#x13f;" horiz-adv-x="1083" 
d="M442 1352q8 0 13.5 -6t5.5 -13v-1075h442q8 0 13.5 -5.5t5.5 -12.5v-222q0 -7 -5.5 -12.5t-13.5 -5.5h-694q-16 0 -16 18v1315q0 19 16 19h233zM762 1055q-41 0 -72 -29.5t-31 -69.5t31 -71t72 -31t69.5 31t28.5 71t-28.5 69.5t-69.5 29.5z" />
    <glyph glyph-name="ldot" unicode="&#x140;" horiz-adv-x="1083" 
d="M442 1352q8 0 13.5 -6t5.5 -13v-1075h442q8 0 13.5 -5.5t5.5 -12.5v-222q0 -7 -5.5 -12.5t-13.5 -5.5h-694q-16 0 -16 18v1315q0 19 16 19h233zM762 1055q-41 0 -72 -29.5t-31 -69.5t31 -71t72 -31t69.5 31t28.5 71t-28.5 69.5t-69.5 29.5z" />
    <glyph glyph-name="Lslash" unicode="&#x141;" horiz-adv-x="1191" 
d="M637 258h442q8 0 13.5 -5.5t5.5 -12.5v-220q0 -7 -6.5 -13.5t-12.5 -6.5h-700q-6 0 -11.5 5.5t-5.5 12.5v318l-20 -35q-8 -12 -20 -12h-232q-9 0 -12.5 7t2.5 19l282 424v594q0 7 5.5 13t11.5 6h239q8 0 13.5 -6t5.5 -13v-192l12 24q8 13 21 13h233q13 0 17.5 -7
t-0.5 -14l-283 -420v-479z" />
    <glyph glyph-name="lslash" unicode="&#x142;" horiz-adv-x="1191" 
d="M637 258h442q8 0 13.5 -5.5t5.5 -12.5v-220q0 -7 -6.5 -13.5t-12.5 -6.5h-700q-6 0 -11.5 5.5t-5.5 12.5v318l-20 -35q-8 -12 -20 -12h-232q-9 0 -12.5 7t2.5 19l282 424v594q0 7 5.5 13t11.5 6h239q8 0 13.5 -6t5.5 -13v-192l12 24q8 13 21 13h233q13 0 17.5 -7
t-0.5 -14l-283 -420v-479z" />
    <glyph glyph-name="Nacute" unicode="&#x143;" horiz-adv-x="1216" 
d="M752 1333q0 8 5.5 13.5t12.5 5.5h236q7 0 12.5 -5.5t5.5 -13.5v-1315q0 -8 -5 -13t-13 -5h-228q-15 0 -18 10l-299 674v-666q0 -7 -5.5 -12.5t-13.5 -5.5h-233q-16 0 -16 18v1315q0 19 16 19h242q9 0 14 -11l287 -661v653zM584 1585l32 166q3 12 19 12h158q14 0 19 -7.5
t-3 -20.5l-109 -156q-7 -14 -20 -14h-78q-7 0 -13 5t-5 15z" />
    <glyph glyph-name="nacute" unicode="&#x144;" horiz-adv-x="1216" 
d="M752 1333q0 8 5.5 13.5t12.5 5.5h236q7 0 12.5 -5.5t5.5 -13.5v-1315q0 -8 -5 -13t-13 -5h-228q-15 0 -18 10l-299 674v-666q0 -7 -5.5 -12.5t-13.5 -5.5h-233q-16 0 -16 18v1315q0 19 16 19h242q9 0 14 -11l287 -661v653zM584 1585l32 166q3 12 19 12h158q14 0 19 -7.5
t-3 -20.5l-109 -156q-7 -14 -20 -14h-78q-7 0 -13 5t-5 15z" />
    <glyph glyph-name="uni0145" unicode="&#x145;" horiz-adv-x="1216" 
d="M752 1333q0 8 5.5 13.5t12.5 5.5h236q7 0 12.5 -5.5t5.5 -13.5v-1315q0 -8 -5 -13t-13 -5h-228q-15 0 -18 10l-299 674v-666q0 -7 -5.5 -12.5t-13.5 -5.5h-233q-16 0 -16 18v1315q0 19 16 19h242q9 0 14 -11l287 -661v653zM594 -150q74 0 128 -50t54 -124q0 -16 -10 -51
l-117 -303q-3 -14 -16 -14h-139q-13 0 -17.5 8t-1.5 18l66 164q-55 18 -93 66.5t-38 107.5q0 74 54 126t130 52z" />
    <glyph glyph-name="uni0146" unicode="&#x146;" horiz-adv-x="1216" 
d="M752 1333q0 8 5.5 13.5t12.5 5.5h236q7 0 12.5 -5.5t5.5 -13.5v-1315q0 -8 -5 -13t-13 -5h-228q-15 0 -18 10l-299 674v-666q0 -7 -5.5 -12.5t-13.5 -5.5h-233q-16 0 -16 18v1315q0 19 16 19h242q9 0 14 -11l287 -661v653zM594 -150q74 0 128 -50t54 -124q0 -16 -10 -51
l-117 -303q-3 -14 -16 -14h-139q-13 0 -17.5 8t-1.5 18l66 164q-55 18 -93 66.5t-38 107.5q0 74 54 126t130 52z" />
    <glyph glyph-name="Ncaron" unicode="&#x147;" horiz-adv-x="1216" 
d="M752 1333q0 8 5.5 13.5t12.5 5.5h236q7 0 12.5 -5.5t5.5 -13.5v-1315q0 -8 -5 -13t-13 -5h-228q-15 0 -18 10l-299 674v-666q0 -7 -5.5 -12.5t-13.5 -5.5h-233q-16 0 -16 18v1315q0 19 16 19h242q9 0 14 -11l287 -661v653zM911 1780q9 0 14.5 -11t-1.5 -20l-156 -199
q-9 -6 -16 -6h-217q-7 0 -13 6l-160 199q-6 7 -1.5 19t14.5 12h160q7 0 18 -11l88 -122l90 122q11 11 17 11h163z" />
    <glyph glyph-name="ncaron" unicode="&#x148;" horiz-adv-x="1216" 
d="M752 1333q0 8 5.5 13.5t12.5 5.5h236q7 0 12.5 -5.5t5.5 -13.5v-1315q0 -8 -5 -13t-13 -5h-228q-15 0 -18 10l-299 674v-666q0 -7 -5.5 -12.5t-13.5 -5.5h-233q-16 0 -16 18v1315q0 19 16 19h242q9 0 14 -11l287 -661v653zM911 1780q9 0 14.5 -11t-1.5 -20l-156 -199
q-9 -6 -16 -6h-217q-7 0 -13 6l-160 199q-6 7 -1.5 19t14.5 12h160q7 0 18 -11l88 -122l90 122q11 11 17 11h163z" />
    <glyph glyph-name="napostrophe" unicode="&#x149;" horiz-adv-x="1216" 
d="M98 1686h119q8 0 14 -7t5 -18l-25 -174q-5 -19 -16 -19h-74q-16 0 -19 19l-24 176q-3 9 3 16t17 7zM752 1333q0 8 5.5 13.5t12.5 5.5h236q7 0 12.5 -5.5t5.5 -13.5v-1315q0 -8 -5 -13t-13 -5h-228q-15 0 -18 10l-299 674v-666q0 -7 -5.5 -12.5t-13.5 -5.5h-233
q-16 0 -16 18v1315q0 19 16 19h242q9 0 14 -11l287 -661v653z" />
    <glyph glyph-name="Omacron" unicode="&#x14c;" horiz-adv-x="1269" 
d="M637 1370q263 0 377 -123q90 -100 90 -301v-538q0 -209 -90 -306q-119 -122 -377 -122q-263 0 -379 122q-92 103 -92 306v538q0 200 92 303q112 121 379 121zM831 469v410q0 217 -184 217h-24q-183 0 -183 -217v-410q0 -64 16 -109.5t44 -68t57.5 -32t65.5 -9.5h24
q181 0 184 219zM395 1741h492q4 0 9 -6t5 -9v-180q0 -14 -14 -14h-492q-20 0 -20 14v180q0 15 20 15z" />
    <glyph glyph-name="omacron" unicode="&#x14d;" horiz-adv-x="1269" 
d="M637 1370q263 0 377 -123q90 -100 90 -301v-538q0 -209 -90 -306q-119 -122 -377 -122q-263 0 -379 122q-92 103 -92 306v538q0 200 92 303q112 121 379 121zM831 469v410q0 217 -184 217h-24q-183 0 -183 -217v-410q0 -64 16 -109.5t44 -68t57.5 -32t65.5 -9.5h24
q181 0 184 219zM395 1741h492q4 0 9 -6t5 -9v-180q0 -14 -14 -14h-492q-20 0 -20 14v180q0 15 20 15z" />
    <glyph glyph-name="Obreve" unicode="&#x14e;" horiz-adv-x="1269" 
d="M637 1370q263 0 377 -123q90 -100 90 -301v-538q0 -209 -90 -306q-119 -122 -377 -122q-263 0 -379 122q-92 103 -92 306v538q0 200 92 303q112 121 379 121zM831 469v410q0 217 -184 217h-24q-183 0 -183 -217v-410q0 -64 16 -109.5t44 -68t57.5 -32t65.5 -9.5h24
q181 0 184 219zM707 1821h163q9 0 14 -6.5t5 -14.5q0 -101 -70.5 -170t-173.5 -69q-99 0 -172.5 68.5t-73.5 170.5q0 21 19 21h164q16 0 16 -17q0 -20 12 -33.5t35 -13.5q18 0 30.5 13t12.5 34q0 17 19 17z" />
    <glyph glyph-name="obreve" unicode="&#x14f;" horiz-adv-x="1269" 
d="M637 1370q263 0 377 -123q90 -100 90 -301v-538q0 -209 -90 -306q-119 -122 -377 -122q-263 0 -379 122q-92 103 -92 306v538q0 200 92 303q112 121 379 121zM831 469v410q0 217 -184 217h-24q-183 0 -183 -217v-410q0 -64 16 -109.5t44 -68t57.5 -32t65.5 -9.5h24
q181 0 184 219zM707 1821h163q9 0 14 -6.5t5 -14.5q0 -101 -70.5 -170t-173.5 -69q-99 0 -172.5 68.5t-73.5 170.5q0 21 19 21h164q16 0 16 -17q0 -20 12 -33.5t35 -13.5q18 0 30.5 13t12.5 34q0 17 19 17z" />
    <glyph glyph-name="Ohungarumlaut" unicode="&#x150;" horiz-adv-x="1269" 
d="M637 1370q263 0 377 -123q90 -100 90 -301v-538q0 -209 -90 -306q-119 -122 -377 -122q-263 0 -379 122q-92 103 -92 306v538q0 200 92 303q112 121 379 121zM831 469v410q0 217 -184 217h-24q-183 0 -183 -217v-410q0 -64 16 -109.5t44 -68t57.5 -32t65.5 -9.5h24
q181 0 184 219zM580 1540h-68q-10 0 -16.5 4t-3.5 15l24 178q3 18 19 18h120q11 0 15 -7t0 -17l-72 -183q-2 -8 -18 -8zM707 1755h116q11 0 15.5 -7t1.5 -17l-70 -183q-2 -8 -18 -8h-72q-8 0 -13.5 5t-4.5 14l24 178q1 10 5.5 14t15.5 4z" />
    <glyph glyph-name="ohungarumlaut" unicode="&#x151;" horiz-adv-x="1269" 
d="M637 1370q263 0 377 -123q90 -100 90 -301v-538q0 -209 -90 -306q-119 -122 -377 -122q-263 0 -379 122q-92 103 -92 306v538q0 200 92 303q112 121 379 121zM831 469v410q0 217 -184 217h-24q-183 0 -183 -217v-410q0 -64 16 -109.5t44 -68t57.5 -32t65.5 -9.5h24
q181 0 184 219zM580 1540h-68q-10 0 -16.5 4t-3.5 15l24 178q3 18 19 18h120q11 0 15 -7t0 -17l-72 -183q-2 -8 -18 -8zM707 1755h116q11 0 15.5 -7t1.5 -17l-70 -183q-2 -8 -18 -8h-72q-8 0 -13.5 5t-4.5 14l24 178q1 10 5.5 14t15.5 4z" />
    <glyph glyph-name="OE" unicode="&#x152;" horiz-adv-x="1708" 
d="M588 1352h971q7 0 12.5 -5.5t5.5 -13.5v-219q0 -8 -5.5 -13t-12.5 -5h-441v-279h344q17 0 17 -18v-224q0 -18 -17 -18h-344v-301h441q7 0 12.5 -5t5.5 -13v-220q0 -8 -5.5 -13t-12.5 -5h-971q-189 0 -297.5 105t-108.5 298v543q0 190 106 298t300 108zM848 256v840h-189
q-96 0 -151 -54t-55 -157v-420q0 -93 56 -151t150 -58h189z" />
    <glyph glyph-name="oe" unicode="&#x153;" horiz-adv-x="1708" 
d="M588 1352h971q7 0 12.5 -5.5t5.5 -13.5v-219q0 -8 -5.5 -13t-12.5 -5h-441v-279h344q17 0 17 -18v-224q0 -18 -17 -18h-344v-301h441q7 0 12.5 -5t5.5 -13v-220q0 -8 -5.5 -13t-12.5 -5h-971q-189 0 -297.5 105t-108.5 298v543q0 190 106 298t300 108zM848 256v840h-189
q-96 0 -151 -54t-55 -157v-420q0 -93 56 -151t150 -58h189z" />
    <glyph glyph-name="Racute" unicode="&#x154;" horiz-adv-x="1167" 
d="M961 535q-46 -94 -127 -132l172 -378q4 -9 -1 -17t-14 -8h-252q-11 0 -14 10l-160 348h-104v-340q0 -7 -5.5 -12.5t-13.5 -5.5h-235q-14 0 -14 18v1315q0 19 14 19h426q172 0 268 -95.5t96 -273.5v-258q0 -117 -36 -190zM729 788v134q0 43 -7.5 71t-20.5 45.5t-40.5 26.5
t-58 11.5t-82.5 2.5h-59v-452h59h41t36.5 1.5t33.5 4.5t27.5 8.5t24.5 13.5t18 20t15 28t8.5 37.5t4.5 47.5zM512 1585l33 166q3 12 18 12h158q14 0 19 -7.5t-3 -20.5l-108 -156q-7 -14 -21 -14h-78q-7 0 -13 5t-5 15z" />
    <glyph glyph-name="racute" unicode="&#x155;" horiz-adv-x="1167" 
d="M961 535q-46 -94 -127 -132l172 -378q4 -9 -1 -17t-14 -8h-252q-11 0 -14 10l-160 348h-104v-340q0 -7 -5.5 -12.5t-13.5 -5.5h-235q-14 0 -14 18v1315q0 19 14 19h426q172 0 268 -95.5t96 -273.5v-258q0 -117 -36 -190zM729 788v134q0 43 -7.5 71t-20.5 45.5t-40.5 26.5
t-58 11.5t-82.5 2.5h-59v-452h59h41t36.5 1.5t33.5 4.5t27.5 8.5t24.5 13.5t18 20t15 28t8.5 37.5t4.5 47.5zM512 1585l33 166q3 12 18 12h158q14 0 19 -7.5t-3 -20.5l-108 -156q-7 -14 -21 -14h-78q-7 0 -13 5t-5 15z" />
    <glyph glyph-name="uni0156" unicode="&#x156;" horiz-adv-x="1167" 
d="M961 535q-46 -94 -127 -132l172 -378q4 -9 -1 -17t-14 -8h-252q-11 0 -14 10l-160 348h-104v-340q0 -7 -5.5 -12.5t-13.5 -5.5h-235q-14 0 -14 18v1315q0 19 14 19h426q172 0 268 -95.5t96 -273.5v-258q0 -117 -36 -190zM729 788v134q0 43 -7.5 71t-20.5 45.5t-40.5 26.5
t-58 11.5t-82.5 2.5h-59v-452h59h41t36.5 1.5t33.5 4.5t27.5 8.5t24.5 13.5t18 20t15 28t8.5 37.5t4.5 47.5zM557 -145q74 0 128 -50t54 -124q0 -17 -10 -52l-117 -303q-4 -14 -16 -14h-139q-13 0 -17.5 8t-1.5 18l66 164q-55 18 -93 66.5t-38 107.5q0 75 54.5 127t129.5 52
z" />
    <glyph glyph-name="uni0157" unicode="&#x157;" horiz-adv-x="1167" 
d="M961 535q-46 -94 -127 -132l172 -378q4 -9 -1 -17t-14 -8h-252q-11 0 -14 10l-160 348h-104v-340q0 -7 -5.5 -12.5t-13.5 -5.5h-235q-14 0 -14 18v1315q0 19 14 19h426q172 0 268 -95.5t96 -273.5v-258q0 -117 -36 -190zM729 788v134q0 43 -7.5 71t-20.5 45.5t-40.5 26.5
t-58 11.5t-82.5 2.5h-59v-452h59h41t36.5 1.5t33.5 4.5t27.5 8.5t24.5 13.5t18 20t15 28t8.5 37.5t4.5 47.5zM557 -145q74 0 128 -50t54 -124q0 -17 -10 -52l-117 -303q-4 -14 -16 -14h-139q-13 0 -17.5 8t-1.5 18l66 164q-55 18 -93 66.5t-38 107.5q0 75 54.5 127t129.5 52
z" />
    <glyph glyph-name="Rcaron" unicode="&#x158;" horiz-adv-x="1167" 
d="M961 535q-46 -94 -127 -132l172 -378q4 -9 -1 -17t-14 -8h-252q-11 0 -14 10l-160 348h-104v-340q0 -7 -5.5 -12.5t-13.5 -5.5h-235q-14 0 -14 18v1315q0 19 14 19h426q172 0 268 -95.5t96 -273.5v-258q0 -117 -36 -190zM729 788v134q0 43 -7.5 71t-20.5 45.5t-40.5 26.5
t-58 11.5t-82.5 2.5h-59v-452h59h41t36.5 1.5t33.5 4.5t27.5 8.5t24.5 13.5t18 20t15 28t8.5 37.5t4.5 47.5zM856 1780q9 0 14 -11t-2 -20l-155 -199q-9 -6 -17 -6h-217q-6 0 -12 6l-160 199q-6 7 -2 19t14 12h160q8 0 19 -11l88 -122l90 122q11 11 16 11h164z" />
    <glyph glyph-name="rcaron" unicode="&#x159;" horiz-adv-x="1167" 
d="M961 535q-46 -94 -127 -132l172 -378q4 -9 -1 -17t-14 -8h-252q-11 0 -14 10l-160 348h-104v-340q0 -7 -5.5 -12.5t-13.5 -5.5h-235q-14 0 -14 18v1315q0 19 14 19h426q172 0 268 -95.5t96 -273.5v-258q0 -117 -36 -190zM729 788v134q0 43 -7.5 71t-20.5 45.5t-40.5 26.5
t-58 11.5t-82.5 2.5h-59v-452h59h41t36.5 1.5t33.5 4.5t27.5 8.5t24.5 13.5t18 20t15 28t8.5 37.5t4.5 47.5zM856 1780q9 0 14 -11t-2 -20l-155 -199q-9 -6 -17 -6h-217q-6 0 -12 6l-160 199q-6 7 -2 19t14 12h160q8 0 19 -11l88 -122l90 122q11 11 16 11h164z" />
    <glyph glyph-name="Sacute" unicode="&#x15a;" horiz-adv-x="1126" 
d="M653 829q55 -26 98 -50t95 -62t85.5 -78t57 -95t23.5 -116q0 -166 -78 -281q-112 -167 -359 -167q-91 0 -177 28t-159.5 91.5t-103.5 154.5q-3 10 6 16l189 162q16 12 26 -4q2 -5 23 -47q25 -51 76.5 -89t109.5 -38q57 0 103.5 33t46.5 100q0 27 -15 52t-34.5 42t-52 35
t-54 27.5t-53.5 21.5q-167 67 -266 154q-125 116 -125 266q0 92 40 167.5t106 121.5t146 71t166 25q265 0 394 -274q7 -14 -6 -23l-183 -127q-11 -5 -20 6q-54 77 -103.5 112.5t-109.5 35.5q-19 0 -41 -4t-46.5 -13t-40.5 -28.5t-16 -46.5q0 -26 17 -49.5t49 -43t60.5 -32.5
t69 -30t56.5 -24zM557 1585l33 166q3 12 18 12h158q14 0 19 -7.5t-3 -20.5l-108 -156q-7 -14 -21 -14h-78q-7 0 -13 5t-5 15z" />
    <glyph glyph-name="sacute" unicode="&#x15b;" horiz-adv-x="1126" 
d="M557 1585l35 166q3 12 16 12h160q12 0 17.5 -7.5t-3.5 -20.5l-108 -158q-9 -12 -25 -12h-74q-22 0 -18 20zM653 829q55 -26 98 -50t95 -62t85.5 -78t57 -95t23.5 -116q0 -166 -78 -281q-112 -167 -359 -167q-91 0 -177 28t-159.5 91.5t-103.5 154.5q-3 10 6 16l189 162
q16 12 26 -4q2 -5 23 -47q25 -51 76.5 -89t109.5 -38q57 0 103.5 33t46.5 100q0 27 -15 52t-34.5 42t-52 35t-54 27.5t-53.5 21.5q-167 67 -266 154q-125 116 -125 266q0 92 40 167.5t106 121.5t146 71t166 25q265 0 394 -274q7 -14 -6 -23l-183 -127q-11 -5 -20 6
q-54 77 -103.5 112.5t-109.5 35.5q-19 0 -41 -4t-46.5 -13t-40.5 -28.5t-16 -46.5q0 -26 17 -49.5t49 -43t60.5 -32.5t69 -30t56.5 -24z" />
    <glyph glyph-name="Scircumflex" unicode="&#x15c;" horiz-adv-x="1126" 
d="M653 829q55 -26 98 -50t95 -62t85.5 -78t57 -95t23.5 -116q0 -166 -78 -281q-112 -167 -359 -167q-91 0 -177 28t-159.5 91.5t-103.5 154.5q-3 10 6 16l189 162q16 12 26 -4q2 -5 23 -47q25 -51 76.5 -89t109.5 -38q57 0 103.5 33t46.5 100q0 27 -15 52t-34.5 42t-52 35
t-54 27.5t-53.5 21.5q-167 67 -266 154q-125 116 -125 266q0 92 40 167.5t106 121.5t146 71t166 25q265 0 394 -274q7 -14 -6 -23l-183 -127q-11 -5 -20 6q-54 77 -103.5 112.5t-109.5 35.5q-19 0 -41 -4t-46.5 -13t-40.5 -28.5t-16 -46.5q0 -26 17 -49.5t49 -43t60.5 -32.5
t69 -30t56.5 -24zM274 1536q-12 0 -17.5 10t3.5 21l180 196q9 9 13 9h217q5 0 16 -11l135 -198q5 -5 1 -16t-15 -11h-164q-13 0 -16 10l-74 123l-109 -127q-3 -6 -12 -6h-158z" />
    <glyph glyph-name="scircumflex" unicode="&#x15d;" horiz-adv-x="1126" 
d="M653 829q55 -26 98 -50t95 -62t85.5 -78t57 -95t23.5 -116q0 -166 -78 -281q-112 -167 -359 -167q-91 0 -177 28t-159.5 91.5t-103.5 154.5q-3 10 6 16l189 162q16 12 26 -4q2 -5 23 -47q25 -51 76.5 -89t109.5 -38q57 0 103.5 33t46.5 100q0 27 -15 52t-34.5 42t-52 35
t-54 27.5t-53.5 21.5q-167 67 -266 154q-125 116 -125 266q0 92 40 167.5t106 121.5t146 71t166 25q265 0 394 -274q7 -14 -6 -23l-183 -127q-11 -5 -20 6q-54 77 -103.5 112.5t-109.5 35.5q-19 0 -41 -4t-46.5 -13t-40.5 -28.5t-16 -46.5q0 -26 17 -49.5t49 -43t60.5 -32.5
t69 -30t56.5 -24zM274 1536q-12 0 -17.5 10t3.5 21l180 196q9 9 13 9h217q5 0 16 -11l135 -198q5 -5 1 -16t-15 -11h-164q-13 0 -16 10l-74 123l-109 -127q-3 -6 -12 -6h-158z" />
    <glyph glyph-name="Scedilla" unicode="&#x15e;" horiz-adv-x="1177" 
d="M684 829q59 -26 104.5 -50t100 -62t90 -78t60 -95t24.5 -116q0 -167 -82 -281q-102 -136 -283 -159v-49h19q86 0 123 -37l10 -11q24 -32 24 -135v-35q0 -198 -200 -198h-101q-8 0 -14 5.5t-6 10.5v148q0 18 20 18h23q94 0 94 27q0 22 -41 22q-81 0 -112 29
q-25 31 -25 137v68q-129 19 -232 86.5t-143 179.5q-4 12 6 20l203 158q18 14 25 -4l22 -47q29 -51 83.5 -89t115.5 -38t109.5 33t48.5 100q0 27 -15.5 52t-36.5 42t-55 35t-57 27.5t-56 21.5q-178 67 -282 154q-133 115 -133 266q0 74 27.5 138t74.5 108.5t109.5 76.5
t132.5 47t143 15q277 0 414 -274q9 -12 -4 -21l-193 -125q-14 -10 -22 4l-29 37q-84 109 -197 109q-21 0 -44 -4t-48.5 -13t-42 -28.5t-16.5 -46.5q0 -26 17.5 -49.5t51.5 -43t62.5 -32.5t72.5 -30t60 -24z" />
    <glyph glyph-name="scedilla" unicode="&#x15f;" horiz-adv-x="1177" 
d="M684 829q59 -26 104.5 -50t100 -62t90 -78t60 -95t24.5 -116q0 -167 -82 -281q-102 -136 -283 -159v-49h19q86 0 123 -37l10 -11q24 -32 24 -135v-35q0 -198 -200 -198h-101q-8 0 -14 5.5t-6 10.5v148q0 18 20 18h23q94 0 94 27q0 22 -41 22q-81 0 -112 29
q-25 31 -25 137v68q-129 19 -232 86.5t-143 179.5q-4 12 6 20l203 158q18 14 25 -4l22 -47q29 -51 83.5 -89t115.5 -38t109.5 33t48.5 100q0 27 -15.5 52t-36.5 42t-55 35t-57 27.5t-56 21.5q-178 67 -282 154q-133 115 -133 266q0 74 27.5 138t74.5 108.5t109.5 76.5
t132.5 47t143 15q277 0 414 -274q9 -12 -4 -21l-193 -125q-14 -10 -22 4l-29 37q-84 109 -197 109q-21 0 -44 -4t-48.5 -13t-42 -28.5t-16.5 -46.5q0 -26 17.5 -49.5t51.5 -43t62.5 -32.5t72.5 -30t60 -24z" />
    <glyph glyph-name="Scaron" unicode="&#x160;" horiz-adv-x="1126" 
d="M883 1780q9 0 14 -11t-2 -20l-156 -199q-9 -6 -16 -6h-217q-6 0 -12 6l-160 199q-6 7 -2 19t14 12h160q7 0 18 -11l88 -122l90 122q11 11 17 11h164zM653 829q55 -26 98 -50t95 -62t85.5 -78t57 -95t23.5 -116q0 -166 -78 -281q-112 -167 -359 -167q-91 0 -177 28
t-159.5 91.5t-103.5 154.5q-3 10 6 16l189 162q16 12 26 -4q2 -5 23 -47q25 -51 76.5 -89t109.5 -38q57 0 103.5 33t46.5 100q0 27 -15 52t-34.5 42t-52 35t-54 27.5t-53.5 21.5q-167 67 -266 154q-125 116 -125 266q0 92 40 167.5t106 121.5t146 71t166 25q265 0 394 -274
q7 -14 -6 -23l-183 -127q-11 -5 -20 6q-54 77 -103.5 112.5t-109.5 35.5q-19 0 -41 -4t-46.5 -13t-40.5 -28.5t-16 -46.5q0 -26 17 -49.5t49 -43t60.5 -32.5t69 -30t56.5 -24z" />
    <glyph glyph-name="scaron" unicode="&#x161;" horiz-adv-x="1126" 
d="M883 1780q9 0 14 -11t-2 -20l-156 -199q-9 -6 -16 -6h-217q-6 0 -12 6l-160 199q-6 7 -2 19t14 12h160q7 0 18 -11l88 -122l90 122q11 11 17 11h164zM653 829q55 -26 98 -50t95 -62t85.5 -78t57 -95t23.5 -116q0 -166 -78 -281q-112 -167 -359 -167q-91 0 -177 28
t-159.5 91.5t-103.5 154.5q-3 10 6 16l189 162q16 12 26 -4q2 -5 23 -47q25 -51 76.5 -89t109.5 -38q57 0 103.5 33t46.5 100q0 27 -15 52t-34.5 42t-52 35t-54 27.5t-53.5 21.5q-167 67 -266 154q-125 116 -125 266q0 92 40 167.5t106 121.5t146 71t166 25q265 0 394 -274
q7 -14 -6 -23l-183 -127q-11 -5 -20 6q-54 77 -103.5 112.5t-109.5 35.5q-19 0 -41 -4t-46.5 -13t-40.5 -28.5t-16 -46.5q0 -26 17 -49.5t49 -43t60.5 -32.5t69 -30t56.5 -24z" />
    <glyph glyph-name="uni0162" unicode="&#x162;" horiz-adv-x="1079" 
d="M113 1096q-8 0 -13.5 5.5t-5.5 12.5v219q0 7 6 13t13 6h854q7 0 12.5 -5.5t5.5 -13.5v-219q0 -8 -5.5 -13t-12.5 -5h-291v-1078q0 -7 -5.5 -12.5t-13.5 -5.5h-235q-8 0 -13.5 5.5t-5.5 12.5v1078h-290zM543 -115q74 0 128 -50t54 -124q0 -16 -10 -51l-117 -303
q-4 -14 -16 -14h-140q-13 0 -17 8t-1 18l65 164q-55 18 -93 66.5t-38 107.5q0 74 54.5 126t130.5 52z" />
    <glyph glyph-name="uni0163" unicode="&#x163;" horiz-adv-x="1079" 
d="M113 1096q-8 0 -13.5 5.5t-5.5 12.5v219q0 7 6 13t13 6h854q7 0 12.5 -5.5t5.5 -13.5v-219q0 -8 -5.5 -13t-12.5 -5h-291v-1078q0 -7 -5.5 -12.5t-13.5 -5.5h-235q-8 0 -13.5 5.5t-5.5 12.5v1078h-290zM543 -115q74 0 128 -50t54 -124q0 -16 -10 -51l-117 -303
q-4 -14 -16 -14h-140q-13 0 -17 8t-1 18l65 164q-55 18 -93 66.5t-38 107.5q0 74 54.5 126t130.5 52z" />
    <glyph glyph-name="Tcaron" unicode="&#x164;" horiz-adv-x="1079" 
d="M113 1096q-8 0 -13.5 5.5t-5.5 12.5v219q0 7 6 13t13 6h854q7 0 12.5 -5.5t5.5 -13.5v-219q0 -8 -5.5 -13t-12.5 -5h-291v-1078q0 -7 -5.5 -12.5t-13.5 -5.5h-235q-8 0 -13.5 5.5t-5.5 12.5v1078h-290zM799 1780q9 0 14 -11t-2 -20l-156 -199q-9 -6 -16 -6h-217
q-6 0 -12 6l-160 199q-6 7 -2 19t14 12h160q7 0 18 -11l88 -122l90 122q11 11 17 11h164z" />
    <glyph glyph-name="tcaron" unicode="&#x165;" horiz-adv-x="1079" 
d="M113 1096q-8 0 -13.5 5.5t-5.5 12.5v219q0 7 6 13t13 6h854q7 0 12.5 -5.5t5.5 -13.5v-219q0 -8 -5.5 -13t-12.5 -5h-291v-1078q0 -7 -5.5 -12.5t-13.5 -5.5h-235q-8 0 -13.5 5.5t-5.5 12.5v1078h-290zM799 1780q9 0 14 -11t-2 -20l-156 -199q-9 -6 -16 -6h-217
q-6 0 -12 6l-160 199q-6 7 -2 19t14 12h160q7 0 18 -11l88 -122l90 122q11 11 17 11h164z" />
    <glyph glyph-name="Tbar" unicode="&#x166;" horiz-adv-x="1079" 
d="M94 1333q0 7 6 13t13 6h854q7 0 12.5 -5.5t5.5 -13.5v-219q0 -8 -5.5 -13t-12.5 -5h-291v-256h203q16 0 16 -19v-182q0 -16 -16 -16h-203v-605q0 -7 -5.5 -12.5t-13.5 -5.5h-235q-8 0 -13.5 5.5t-5.5 12.5v605h-198q-19 0 -19 16v182q0 7 6 13t13 6h198v256h-290
q-8 0 -13.5 5.5t-5.5 12.5v219z" />
    <glyph glyph-name="tbar" unicode="&#x167;" horiz-adv-x="1079" 
d="M94 1333q0 7 6 13t13 6h854q7 0 12.5 -5.5t5.5 -13.5v-219q0 -8 -5.5 -13t-12.5 -5h-291v-256h203q16 0 16 -19v-182q0 -16 -16 -16h-203v-605q0 -7 -5.5 -12.5t-13.5 -5.5h-235q-8 0 -13.5 5.5t-5.5 12.5v605h-198q-19 0 -19 16v182q0 7 6 13t13 6h198v256h-290
q-8 0 -13.5 5.5t-5.5 12.5v219z" />
    <glyph glyph-name="Utilde" unicode="&#x168;" horiz-adv-x="1290" 
d="M844 473v860q0 8 5.5 13.5t12.5 5.5h234q7 0 12.5 -5.5t5.5 -13.5v-925q0 -218 -117.5 -323t-349.5 -105q-227 0 -348 101t-121 327v925q0 7 6 13t13 6h235q8 0 13.5 -6t5.5 -13v-860q0 -64 16.5 -108.5t44.5 -67t58 -32t65 -9.5h24q93 0 139 57.5t46 159.5zM762 1800
q76 0 130 -68t54 -151q0 -20 -18 -20h-135q-19 0 -19 16q0 17 -13 30t-32 13q-18 0 -41.5 -20t-55 -40t-67.5 -20q-87 0 -135.5 66t-48.5 153q0 21 20 21h134q16 0 16 -17q0 -13 11.5 -31t35.5 -18q13 0 37 20t57.5 41.5t69.5 24.5z" />
    <glyph glyph-name="utilde" unicode="&#x169;" horiz-adv-x="1290" 
d="M844 473v860q0 8 5.5 13.5t12.5 5.5h234q7 0 12.5 -5.5t5.5 -13.5v-925q0 -218 -117.5 -323t-349.5 -105q-227 0 -348 101t-121 327v925q0 7 6 13t13 6h235q8 0 13.5 -6t5.5 -13v-860q0 -64 16.5 -108.5t44.5 -67t58 -32t65 -9.5h24q93 0 139 57.5t46 159.5zM762 1800
q76 0 130 -68t54 -151q0 -20 -18 -20h-135q-19 0 -19 16q0 17 -13 30t-32 13q-18 0 -41.5 -20t-55 -40t-67.5 -20q-87 0 -135.5 66t-48.5 153q0 21 20 21h134q16 0 16 -17q0 -13 11.5 -31t35.5 -18q13 0 37 20t57.5 41.5t69.5 24.5z" />
    <glyph glyph-name="Umacron" unicode="&#x16a;" horiz-adv-x="1290" 
d="M844 473v860q0 8 5.5 13.5t12.5 5.5h234q7 0 12.5 -5.5t5.5 -13.5v-925q0 -218 -117.5 -323t-349.5 -105q-227 0 -348 101t-121 327v925q0 7 6 13t13 6h235q8 0 13.5 -6t5.5 -13v-860q0 -64 16.5 -108.5t44.5 -67t58 -32t65 -9.5h24q93 0 139 57.5t46 159.5zM416 1741
h491q4 0 9.5 -6t5.5 -9v-180q0 -14 -15 -14h-491q-21 0 -21 14v180q0 15 21 15z" />
    <glyph glyph-name="umacron" unicode="&#x16b;" horiz-adv-x="1290" 
d="M844 473v860q0 8 5.5 13.5t12.5 5.5h234q7 0 12.5 -5.5t5.5 -13.5v-925q0 -218 -117.5 -323t-349.5 -105q-227 0 -348 101t-121 327v925q0 7 6 13t13 6h235q8 0 13.5 -6t5.5 -13v-860q0 -64 16.5 -108.5t44.5 -67t58 -32t65 -9.5h24q93 0 139 57.5t46 159.5zM416 1741
h491q4 0 9.5 -6t5.5 -9v-180q0 -14 -15 -14h-491q-21 0 -21 14v180q0 15 21 15z" />
    <glyph glyph-name="Ubreve" unicode="&#x16c;" horiz-adv-x="1290" 
d="M844 473v860q0 8 5.5 13.5t12.5 5.5h234q7 0 12.5 -5.5t5.5 -13.5v-925q0 -218 -117.5 -323t-349.5 -105q-227 0 -348 101t-121 327v925q0 7 6 13t13 6h235q8 0 13.5 -6t5.5 -13v-860q0 -64 16.5 -108.5t44.5 -67t58 -32t65 -9.5h24q93 0 139 57.5t46 159.5zM707 1821
h163q9 0 14 -6.5t5 -14.5q0 -101 -70.5 -170t-173.5 -69q-99 0 -172.5 68.5t-73.5 170.5q0 21 19 21h164q16 0 16 -17q0 -20 12 -33.5t35 -13.5q18 0 30.5 13t12.5 34q0 17 19 17z" />
    <glyph glyph-name="ubreve" unicode="&#x16d;" horiz-adv-x="1290" 
d="M844 473v860q0 8 5.5 13.5t12.5 5.5h234q7 0 12.5 -5.5t5.5 -13.5v-925q0 -218 -117.5 -323t-349.5 -105q-227 0 -348 101t-121 327v925q0 7 6 13t13 6h235q8 0 13.5 -6t5.5 -13v-860q0 -64 16.5 -108.5t44.5 -67t58 -32t65 -9.5h24q93 0 139 57.5t46 159.5zM707 1821
h163q9 0 14 -6.5t5 -14.5q0 -101 -70.5 -170t-173.5 -69q-99 0 -172.5 68.5t-73.5 170.5q0 21 19 21h164q16 0 16 -17q0 -20 12 -33.5t35 -13.5q18 0 30.5 13t12.5 34q0 17 19 17z" />
    <glyph glyph-name="Uring" unicode="&#x16e;" horiz-adv-x="1290" 
d="M844 473v860q0 8 5.5 13.5t12.5 5.5h234q7 0 12.5 -5.5t5.5 -13.5v-925q0 -218 -117.5 -323t-349.5 -105q-227 0 -348 101t-121 327v925q0 7 6 13t13 6h235q8 0 13.5 -6t5.5 -13v-860q0 -64 16.5 -108.5t44.5 -67t58 -32t65 -9.5h24q93 0 139 57.5t46 159.5zM846 1757
v-53q0 -93 -53.5 -142t-151.5 -49q-201 0 -209 191v53q0 95 54.5 143t154.5 48q194 0 205 -191zM709 1733q0 65 -62 71h-14q-62 0 -62 -71q0 -31 15.5 -52t46.5 -24h14q62 0 62 76z" />
    <glyph glyph-name="uring" unicode="&#x16f;" horiz-adv-x="1290" 
d="M844 473v860q0 8 5.5 13.5t12.5 5.5h234q7 0 12.5 -5.5t5.5 -13.5v-925q0 -218 -117.5 -323t-349.5 -105q-227 0 -348 101t-121 327v925q0 7 6 13t13 6h235q8 0 13.5 -6t5.5 -13v-860q0 -64 16.5 -108.5t44.5 -67t58 -32t65 -9.5h24q93 0 139 57.5t46 159.5zM846 1757
v-53q0 -93 -53.5 -142t-151.5 -49q-201 0 -209 191v53q0 95 54.5 143t154.5 48q194 0 205 -191zM709 1733q0 65 -62 71h-14q-62 0 -62 -71q0 -31 15.5 -52t46.5 -24h14q62 0 62 76z" />
    <glyph glyph-name="Uhungarumlaut" unicode="&#x170;" horiz-adv-x="1290" 
d="M844 473v860q0 8 5.5 13.5t12.5 5.5h234q7 0 12.5 -5.5t5.5 -13.5v-925q0 -218 -117.5 -323t-349.5 -105q-227 0 -348 101t-121 327v925q0 7 6 13t13 6h235q8 0 13.5 -6t5.5 -13v-860q0 -64 16.5 -108.5t44.5 -67t58 -32t65 -9.5h24q93 0 139 57.5t46 159.5zM580 1540
h-68q-10 0 -16.5 4t-3.5 15l24 178q3 18 19 18h120q11 0 15 -7t0 -17l-72 -183q-2 -8 -18 -8zM707 1755h116q11 0 15.5 -7t1.5 -17l-70 -183q-2 -8 -18 -8h-72q-8 0 -13.5 5t-4.5 14l24 178q1 10 5.5 14t15.5 4z" />
    <glyph glyph-name="uhungarumlaut" unicode="&#x171;" horiz-adv-x="1290" 
d="M844 473v860q0 8 5.5 13.5t12.5 5.5h234q7 0 12.5 -5.5t5.5 -13.5v-925q0 -218 -117.5 -323t-349.5 -105q-227 0 -348 101t-121 327v925q0 7 6 13t13 6h235q8 0 13.5 -6t5.5 -13v-860q0 -64 16.5 -108.5t44.5 -67t58 -32t65 -9.5h24q93 0 139 57.5t46 159.5zM580 1540
h-68q-10 0 -16.5 4t-3.5 15l24 178q3 18 19 18h120q11 0 15 -7t0 -17l-72 -183q-2 -8 -18 -8zM707 1755h116q11 0 15.5 -7t1.5 -17l-70 -183q-2 -8 -18 -8h-72q-8 0 -13.5 5t-4.5 14l24 178q1 10 5.5 14t15.5 4z" />
    <glyph glyph-name="Uogonek" unicode="&#x172;" horiz-adv-x="1292" 
d="M848 471v862q0 19 14 19h236q6 0 12 -6t6 -13v-930q0 -196 -95 -301t-296 -120v-74q0 -84 -27 -124t-112 -40q-14 0 -22 -1t-13.5 -5.5t-5.5 -13.5q0 -29 92 -29h29q6 0 10 -4.5t4 -9.5v-152q0 -18 -16 -18h-101q-96 0 -149.5 48.5t-53.5 147.5v39q0 94 27 133
q45 47 133 47h17v58q-359 44 -359 419v930q0 7 5.5 13t11.5 6h237q6 0 12.5 -6t6.5 -13v-862q0 -91 47 -154t139 -63h22q90 0 139.5 59t49.5 158z" />
    <glyph glyph-name="uogonek" unicode="&#x173;" horiz-adv-x="1292" 
d="M848 471v862q0 19 14 19h236q6 0 12 -6t6 -13v-930q0 -196 -95 -301t-296 -120v-74q0 -84 -27 -124t-112 -40q-14 0 -22 -1t-13.5 -5.5t-5.5 -13.5q0 -29 92 -29h29q6 0 10 -4.5t4 -9.5v-152q0 -18 -16 -18h-101q-96 0 -149.5 48.5t-53.5 147.5v39q0 94 27 133
q45 47 133 47h17v58q-359 44 -359 419v930q0 7 5.5 13t11.5 6h237q6 0 12.5 -6t6.5 -13v-862q0 -91 47 -154t139 -63h22q90 0 139.5 59t49.5 158z" />
    <glyph glyph-name="Wcircumflex" unicode="&#x174;" horiz-adv-x="1789" 
d="M1647 1352q9 0 14 -7t2 -16l-352 -1317q-3 -12 -19 -12h-225q-12 0 -18 12l-140 518l-188 -520q-3 -10 -14 -10h-218q-13 0 -16 12l-350 1319q-2 8 3 14.5t15 6.5h236q10 0 14 -13l227 -868l170 514l-94 344q-3 9 3 16t14 7h254q11 0 16 -13l188 -835l226 835q4 13 16 13
h236zM637 1536q-12 0 -17.5 10t3.5 21l180 196q9 9 12 9h217q6 0 17 -11l135 -198q5 -5 0.5 -16t-15.5 -11h-163q-14 0 -17 10l-74 123l-108 -127q-3 -6 -12 -6h-158z" />
    <glyph glyph-name="wcircumflex" unicode="&#x175;" horiz-adv-x="1789" 
d="M1647 1352q9 0 14 -7t2 -16l-352 -1317q-3 -12 -19 -12h-225q-12 0 -18 12l-140 518l-188 -520q-3 -10 -14 -10h-218q-13 0 -16 12l-350 1319q-2 8 3 14.5t15 6.5h236q10 0 14 -13l227 -868l170 514l-94 344q-3 9 3 16t14 7h254q11 0 16 -13l188 -835l226 835q4 13 16 13
h236zM637 1536q-12 0 -17.5 10t3.5 21l180 196q9 9 12 9h217q6 0 17 -11l135 -198q5 -5 0.5 -16t-15.5 -11h-163q-14 0 -17 10l-74 123l-108 -127q-3 -6 -12 -6h-158z" />
    <glyph glyph-name="Ycircumflex" unicode="&#x176;" horiz-adv-x="1046" 
d="M524 997l174 344q7 11 17 11h229q9 0 14.5 -7.5t2.5 -15.5l-297 -690v-621q0 -7 -5.5 -12.5t-13.5 -5.5h-242q-5 0 -9.5 5.5t-4.5 12.5v621l-305 686q-3 11 1.5 19t14.5 8h230q9 0 16 -11zM274 1536q-12 0 -17.5 10t3.5 21l180 196q9 9 13 9h217q5 0 16 -11l135 -198
q5 -5 1 -16t-15 -11h-164q-13 0 -16 10l-74 123l-109 -127q-3 -6 -12 -6h-158z" />
    <glyph glyph-name="ycircumflex" unicode="&#x177;" horiz-adv-x="1046" 
d="M524 997l174 344q7 11 17 11h229q9 0 14.5 -7.5t2.5 -15.5l-297 -690v-621q0 -7 -5.5 -12.5t-13.5 -5.5h-242q-5 0 -9.5 5.5t-4.5 12.5v621l-305 686q-3 11 1.5 19t14.5 8h230q9 0 16 -11zM274 1536q-12 0 -17.5 10t3.5 21l180 196q9 9 13 9h217q5 0 16 -11l135 -198
q5 -5 1 -16t-15 -11h-164q-13 0 -16 10l-74 123l-109 -127q-3 -6 -12 -6h-158z" />
    <glyph glyph-name="Ydieresis" unicode="&#x178;" horiz-adv-x="1046" 
d="M524 997l174 344q7 11 17 11h229q9 0 14.5 -7.5t2.5 -15.5l-297 -690v-621q0 -7 -5.5 -12.5t-13.5 -5.5h-242q-5 0 -9.5 5.5t-4.5 12.5v621l-305 686q-3 11 1.5 19t14.5 8h230q9 0 16 -11zM317 1661q0 40 30 69t73 29q40 0 68 -29t28 -69t-28.5 -71t-67.5 -31
q-42 0 -72.5 31t-30.5 71zM649 1559q-39 0 -67.5 31t-28.5 71t28 69t68 29q42 0 71.5 -29t29.5 -69q0 -41 -29.5 -71.5t-71.5 -30.5z" />
    <glyph glyph-name="Zacute" unicode="&#x179;" horiz-adv-x="1208" 
d="M522 256h482q8 0 13 -5t5 -13v-220q0 -8 -5 -13t-13 -5h-791q-18 0 -18 18v228q0 2 2 8l493 842h-483q-8 0 -13.5 5.5t-5.5 12.5v219q0 7 6 13t13 6h797q14 0 14 -17v-229q0 -6 -2 -8zM557 1585l33 166q3 12 18 12h158q14 0 19 -7.5t-3 -20.5l-108 -156q-7 -14 -21 -14
h-78q-7 0 -13 5t-5 15z" />
    <glyph glyph-name="zacute" unicode="&#x17a;" horiz-adv-x="1208" 
d="M522 256h482q8 0 13 -5t5 -13v-220q0 -8 -5 -13t-13 -5h-791q-18 0 -18 18v228q0 2 2 8l493 842h-483q-8 0 -13.5 5.5t-5.5 12.5v219q0 7 6 13t13 6h797q14 0 14 -17v-229q0 -6 -2 -8zM557 1585l33 166q3 12 18 12h158q14 0 19 -7.5t-3 -20.5l-108 -156q-7 -14 -21 -14
h-78q-7 0 -13 5t-5 15z" />
    <glyph glyph-name="Zdotaccent" unicode="&#x17b;" horiz-adv-x="1208" 
d="M522 256h482q8 0 13 -5t5 -13v-220q0 -8 -5 -13t-13 -5h-791q-18 0 -18 18v228q0 2 2 8l493 842h-483q-8 0 -13.5 5.5t-5.5 12.5v219q0 7 6 13t13 6h797q14 0 14 -17v-229q0 -6 -2 -8zM596 1757q41 0 69.5 -29t28.5 -69q0 -41 -29 -72t-69 -31q-41 0 -71.5 31.5
t-30.5 71.5t30.5 69t71.5 29z" />
    <glyph glyph-name="zdotaccent" unicode="&#x17c;" horiz-adv-x="1208" 
d="M522 256h482q8 0 13 -5t5 -13v-220q0 -8 -5 -13t-13 -5h-791q-18 0 -18 18v228q0 2 2 8l493 842h-483q-8 0 -13.5 5.5t-5.5 12.5v219q0 7 6 13t13 6h797q14 0 14 -17v-229q0 -6 -2 -8zM596 1757q41 0 69.5 -29t28.5 -69q0 -41 -29 -72t-69 -31q-41 0 -71.5 31.5
t-30.5 71.5t30.5 69t71.5 29z" />
    <glyph glyph-name="Zcaron" unicode="&#x17d;" horiz-adv-x="1208" 
d="M522 256h482q8 0 13 -5t5 -13v-220q0 -8 -5 -13t-13 -5h-791q-18 0 -18 18v228q0 2 2 8l493 842h-483q-8 0 -13.5 5.5t-5.5 12.5v219q0 7 6 13t13 6h797q14 0 14 -17v-229q0 -6 -2 -8zM889 1780q9 0 14 -11t-2 -20l-156 -199q-9 -6 -16 -6h-217q-6 0 -12 6l-160 199
q-6 7 -2 19t14 12h160q7 0 18 -11l88 -122l91 122q11 11 16 11h164z" />
    <glyph glyph-name="zcaron" unicode="&#x17e;" horiz-adv-x="1208" 
d="M522 256h482q8 0 13 -5t5 -13v-220q0 -8 -5 -13t-13 -5h-791q-18 0 -18 18v228q0 2 2 8l493 842h-483q-8 0 -13.5 5.5t-5.5 12.5v219q0 7 6 13t13 6h797q14 0 14 -17v-229q0 -6 -2 -8zM889 1780q9 0 14 -11t-2 -20l-156 -199q-9 -6 -16 -6h-217q-6 0 -12 6l-160 199
q-6 7 -2 19t14 12h160q7 0 18 -11l88 -122l91 122q11 11 16 11h164z" />
    <glyph glyph-name="uni0218" unicode="&#x218;" horiz-adv-x="1126" 
d="M653 829q55 -26 98 -50t95 -62t85.5 -78t57 -95t23.5 -116q0 -166 -78 -281q-112 -167 -359 -167q-91 0 -177 28t-159.5 91.5t-103.5 154.5q-3 10 6 16l189 162q16 12 26 -4q2 -5 23 -47q25 -51 76.5 -89t109.5 -38q57 0 103.5 33t46.5 100q0 27 -15 52t-34.5 42t-52 35
t-54 27.5t-53.5 21.5q-167 67 -266 154q-125 116 -125 266q0 92 40 167.5t106 121.5t146 71t166 25q265 0 394 -274q7 -14 -6 -23l-183 -127q-11 -5 -20 6q-54 77 -103.5 112.5t-109.5 35.5q-19 0 -41 -4t-46.5 -13t-40.5 -28.5t-16 -46.5q0 -26 17 -49.5t49 -43t60.5 -32.5
t69 -30t56.5 -24zM563 -141q74 0 128 -50t54 -124q0 -17 -10 -52l-117 -303q-4 -14 -16 -14h-139q-13 0 -17.5 8.5t-1.5 18.5l66 163q-55 18 -93 66.5t-38 108.5q0 74 54 126t130 52z" />
    <glyph glyph-name="uni0219" unicode="&#x219;" horiz-adv-x="1126" 
d="M653 829q55 -26 98 -50t95 -62t85.5 -78t57 -95t23.5 -116q0 -166 -78 -281q-112 -167 -359 -167q-91 0 -177 28t-159.5 91.5t-103.5 154.5q-3 10 6 16l189 162q16 12 26 -4q2 -5 23 -47q25 -51 76.5 -89t109.5 -38q57 0 103.5 33t46.5 100q0 27 -15 52t-34.5 42t-52 35
t-54 27.5t-53.5 21.5q-167 67 -266 154q-125 116 -125 266q0 92 40 167.5t106 121.5t146 71t166 25q265 0 394 -274q7 -14 -6 -23l-183 -127q-11 -5 -20 6q-54 77 -103.5 112.5t-109.5 35.5q-19 0 -41 -4t-46.5 -13t-40.5 -28.5t-16 -46.5q0 -26 17 -49.5t49 -43t60.5 -32.5
t69 -30t56.5 -24zM563 -141q74 0 128 -50t54 -124q0 -17 -10 -52l-117 -303q-4 -14 -16 -14h-139q-13 0 -17.5 8.5t-1.5 18.5l66 163q-55 18 -93 66.5t-38 108.5q0 74 54 126t130 52z" />
    <glyph glyph-name="uni021A" unicode="&#x21a;" horiz-adv-x="1198" 
d="M96 1096q-8 0 -13 5t-5 13v219q0 8 5.5 13.5t12.5 5.5h854q8 0 13.5 -6t5.5 -13v-219q0 -7 -5.5 -12.5t-13.5 -5.5h-291v-1078q0 -8 -5.5 -13t-12.5 -5h-235q-8 0 -13.5 5.5t-5.5 12.5v1078h-291zM526 -115q74 0 128.5 -50t54.5 -124q0 -13 -11 -51l-116 -303
q-4 -14 -17 -14h-139q-13 0 -17 8t-1 18l65 164q-55 18 -93 66.5t-38 107.5q0 74 54 126t130 52z" />
    <glyph glyph-name="uni021B" unicode="&#x21b;" horiz-adv-x="1198" 
d="M96 1096q-8 0 -13 5t-5 13v219q0 8 5.5 13.5t12.5 5.5h854q8 0 13.5 -6t5.5 -13v-219q0 -7 -5.5 -12.5t-13.5 -5.5h-291v-1078q0 -8 -5.5 -13t-12.5 -5h-235q-8 0 -13.5 5.5t-5.5 12.5v1078h-291zM526 -115q74 0 128.5 -50t54.5 -124q0 -13 -11 -51l-116 -303
q-4 -14 -17 -14h-139q-13 0 -17 8t-1 18l65 164q-55 18 -93 66.5t-38 107.5q0 74 54 126t130 52z" />
    <glyph glyph-name="uni0237" unicode="&#x237;" horiz-adv-x="1171" 
d="M602 1352h236q7 0 12.5 -5.5t5.5 -13.5v-981q0 -151 -107 -260.5t-262 -109.5h-51q-128 0 -243 92q-105 98 -160 217q-6 15 6 24l215 150q6 5 14 3.5t11 -9.5q11 -31 20.5 -53.5t26.5 -53t35 -49.5t45 -33t57 -14q36 0 61.5 22.5t37.5 59.5t17 72t5 73v850q0 8 5.5 13.5
t12.5 5.5z" />
    <glyph glyph-name="circumflex" unicode="&#x2c6;" horiz-adv-x="880" 
d="M203 1176q-12 0 -18 10t3 20l181 197q8 8 12 8h217q6 0 16 -10l136 -199q5 -4 0.5 -15t-15.5 -11h-164q-13 0 -16 10l-74 123l-108 -127q-3 -6 -13 -6h-157z" />
    <glyph glyph-name="caron" unicode="&#x2c7;" horiz-adv-x="880" 
d="M735 1411q9 0 14.5 -11t-1.5 -20l-156 -198q-9 -6 -17 -6h-217q-6 0 -12 6l-160 198q-6 8 -1.5 19.5t14.5 11.5h159q9 0 19 -10l88 -123l90 123q10 10 16 10h164z" />
    <glyph glyph-name="uni02C9" unicode="&#x2c9;" horiz-adv-x="837" 
d="M201 1413h491q4 0 9.5 -5.5t5.5 -8.5v-180q0 -7 -5 -11t-10 -4h-491q-21 0 -21 15v180q0 14 21 14z" />
    <glyph glyph-name="breve" unicode="&#x2d8;" horiz-adv-x="800" 
d="M492 1417h163q9 0 14 -6t5 -14q0 -101 -70.5 -170.5t-173.5 -69.5q-99 0 -172.5 69t-73.5 171q0 20 19 20h164q16 0 16 -16q0 -20 12 -33.5t35 -13.5q18 0 30.5 13t12.5 34q0 16 19 16z" />
    <glyph glyph-name="dotaccent" unicode="&#x2d9;" horiz-adv-x="673" 
d="M342 1493q41 0 69.5 -29t28.5 -69q0 -41 -29 -72t-69 -31q-41 0 -71.5 31.5t-30.5 71.5t30.5 69t71.5 29z" />
    <glyph glyph-name="ring" unicode="&#x2da;" horiz-adv-x="720" 
d="M596 1292v-53q0 -93 -53.5 -141.5t-151.5 -48.5q-201 0 -209 190v53q0 95 54.5 143t154.5 48q194 0 205 -191zM459 1268q0 65 -62 71h-14q-61 0 -61 -71q0 -70 61 -76h14q62 0 62 76z" />
    <glyph glyph-name="ogonek" unicode="&#x2db;" horiz-adv-x="673" 
d="M399 -215q-30 0 -30 -27q0 -22 30 -22h66h24q23 0 23 -15v-149q0 -21 -18 -21h-107q-97 0 -151 49.5t-54 147.5v39q0 87 34.5 134.5t123.5 47.5h20v74q0 7 5.5 12.5t11.5 5.5h149q6 0 12.5 -5.5t6.5 -12.5v-94q0 -34 -2 -56t-10 -44.5t-22.5 -35t-39.5 -20.5t-61 -8h-11z
" />
    <glyph glyph-name="tilde" unicode="&#x2dc;" horiz-adv-x="880" 
d="M563 1432q76 0 130.5 -68.5t54.5 -151.5q0 -8 -5 -14t-14 -6h-135q-19 0 -19 16q0 17 -13 30t-32 13q-18 0 -41.5 -20t-54.5 -40t-67 -20q-87 0 -136 66.5t-49 153.5q0 20 21 20h133q16 0 16 -16q0 -13 11.5 -31t35.5 -18q13 0 37 20t57.5 41.5t69.5 24.5z" />
    <glyph glyph-name="hungarumlaut" unicode="&#x2dd;" horiz-adv-x="659" 
d="M270 1190h-67q-10 0 -17 3.5t-4 14.5l25 178q3 19 18 19h121q10 0 14.5 -7.5t-0.5 -17.5l-71 -182q-2 -8 -19 -8zM397 1405h117q11 0 15 -7.5t1 -17.5l-69 -182q-2 -8 -19 -8h-71q-8 0 -14 5t-5 13l25 178q2 11 6 15t14 4z" />
    <glyph glyph-name="Wgrave" unicode="&#x1e80;" horiz-adv-x="1789" 
d="M1647 1352q9 0 14 -7t2 -16l-352 -1317q-3 -12 -19 -12h-225q-12 0 -18 12l-140 518l-188 -520q-3 -10 -14 -10h-218q-13 0 -16 12l-350 1319q-2 8 3 14.5t15 6.5h236q10 0 14 -13l227 -868l170 514l-94 344q-3 9 3 16t14 7h254q11 0 16 -13l188 -835l226 835q4 13 16 13
h236zM813 1599l-94 175q-3 8 1.5 16t14.5 8h133q13 0 17 -18l26 -170q3 -21 -18 -21h-64q-9 0 -16 10z" />
    <glyph glyph-name="wgrave" unicode="&#x1e81;" horiz-adv-x="1789" 
d="M1647 1352q9 0 14 -7t2 -16l-352 -1317q-3 -12 -19 -12h-225q-12 0 -18 12l-140 518l-188 -520q-3 -10 -14 -10h-218q-13 0 -16 12l-350 1319q-2 8 3 14.5t15 6.5h236q10 0 14 -13l227 -868l170 514l-94 344q-3 9 3 16t14 7h254q11 0 16 -13l188 -835l226 835q4 13 16 13
h236zM813 1599l-94 175q-3 8 1.5 16t14.5 8h133q13 0 17 -18l26 -170q3 -21 -18 -21h-64q-9 0 -16 10z" />
    <glyph glyph-name="Wacute" unicode="&#x1e82;" horiz-adv-x="1789" 
d="M1647 1352q9 0 14 -7t2 -16l-352 -1317q-3 -12 -19 -12h-225q-12 0 -18 12l-140 518l-188 -520q-3 -10 -14 -10h-218q-13 0 -16 12l-350 1319q-2 8 3 14.5t15 6.5h236q10 0 14 -13l227 -868l170 514l-94 344q-3 9 3 16t14 7h254q11 0 16 -13l188 -835l226 835q4 13 16 13
h236zM811 1610l33 166q3 12 18 12h158q14 0 19 -8t-3 -21l-108 -155q-8 -15 -21 -15h-78q-7 0 -13 5.5t-5 15.5z" />
    <glyph glyph-name="wacute" unicode="&#x1e83;" horiz-adv-x="1789" 
d="M1647 1352q9 0 14 -7t2 -16l-352 -1317q-3 -12 -19 -12h-225q-12 0 -18 12l-140 518l-188 -520q-3 -10 -14 -10h-218q-13 0 -16 12l-350 1319q-2 8 3 14.5t15 6.5h236q10 0 14 -13l227 -868l170 514l-94 344q-3 9 3 16t14 7h254q11 0 16 -13l188 -835l226 835q4 13 16 13
h236zM811 1610l33 166q3 12 18 12h158q14 0 19 -8t-3 -21l-108 -155q-8 -15 -21 -15h-78q-7 0 -13 5.5t-5 15.5z" />
    <glyph glyph-name="Wdieresis" unicode="&#x1e84;" horiz-adv-x="1789" 
d="M1647 1352q9 0 14 -7t2 -16l-352 -1317q-3 -12 -19 -12h-225q-12 0 -18 12l-140 518l-188 -520q-3 -10 -14 -10h-218q-13 0 -16 12l-350 1319q-2 8 3 14.5t15 6.5h236q10 0 14 -13l227 -868l170 514l-94 344q-3 9 3 16t14 7h254q11 0 16 -13l188 -835l226 835q4 13 16 13
h236zM672 1720q0 40 30 69.5t72 29.5q39 0 67.5 -29.5t28.5 -69.5t-28.5 -71t-67.5 -31q-42 0 -72 31t-30 71zM1004 1618q-39 0 -68 31t-29 71t28.5 69.5t68.5 29.5q42 0 71 -29.5t29 -69.5q0 -41 -29 -71.5t-71 -30.5z" />
    <glyph glyph-name="wdieresis" unicode="&#x1e85;" horiz-adv-x="1789" 
d="M1647 1352q9 0 14 -7t2 -16l-352 -1317q-3 -12 -19 -12h-225q-12 0 -18 12l-140 518l-188 -520q-3 -10 -14 -10h-218q-13 0 -16 12l-350 1319q-2 8 3 14.5t15 6.5h236q10 0 14 -13l227 -868l170 514l-94 344q-3 9 3 16t14 7h254q11 0 16 -13l188 -835l226 835q4 13 16 13
h236zM672 1720q0 40 30 69.5t72 29.5q39 0 67.5 -29.5t28.5 -69.5t-28.5 -71t-67.5 -31q-42 0 -72 31t-30 71zM1004 1618q-39 0 -68 31t-29 71t28.5 69.5t68.5 29.5q42 0 71 -29.5t29 -69.5q0 -41 -29 -71.5t-71 -30.5z" />
    <glyph glyph-name="endash" unicode="&#x2013;" horiz-adv-x="1017" 
d="M872 864q19 0 19 -14v-180q0 -5 -6.5 -10t-12.5 -5h-673q-5 0 -11 4t-6 11v180q0 14 17 14h673z" />
    <glyph glyph-name="emdash" unicode="&#x2014;" horiz-adv-x="1329" 
d="M1200 672q0 -8 -5.5 -13.5t-12.5 -5.5h-979q-8 0 -14.5 5t-6.5 14v176q0 6 7 12t14 6h979q8 0 13 -5t5 -13v-176z" />
    <glyph glyph-name="quoteleft" unicode="&#x2018;" horiz-adv-x="464" 
d="M203 1425h119q8 0 13.5 -6.5t4.5 -17.5l-25 -174q-5 -19 -16 -19h-74q-15 0 -18 19l-25 176q-3 9 3.5 15.5t17.5 6.5z" />
    <glyph glyph-name="quoteright" unicode="&#x2019;" horiz-adv-x="464" 
d="M203 1425h119q8 0 13.5 -6.5t4.5 -17.5l-25 -174q-5 -19 -16 -19h-74q-15 0 -18 19l-25 176q-3 9 3.5 15.5t17.5 6.5z" />
    <glyph glyph-name="quotesinglbase" unicode="&#x201a;" horiz-adv-x="673" 
d="M287 342q74 0 128 -50t54 -124q0 -16 -10 -51l-117 -303q-4 -15 -16 -15h-140q-13 0 -17 8.5t-1 18.5l65 164q-55 18 -93 66.5t-38 107.5q0 74 54.5 126t130.5 52z" />
    <glyph glyph-name="quotedblleft" unicode="&#x201c;" horiz-adv-x="636" 
d="M203 1405h119q10 0 15 -6.5t3 -14.5l-25 -182q0 -4 -4.5 -8t-11.5 -4h-74q-16 0 -18 12l-25 182q-3 9 3 15t18 6zM510 1384l-25 -182q-2 -12 -20 -12h-68q-18 0 -20 12l-25 182q-1 9 5 15t14 6h121q9 0 14.5 -6.5t3.5 -14.5z" />
    <glyph glyph-name="quotedblright" unicode="&#x201d;" horiz-adv-x="636" 
d="M203 1405h119q10 0 15 -6.5t3 -14.5l-25 -182q0 -4 -4.5 -8t-11.5 -4h-74q-16 0 -18 12l-25 182q-3 9 3 15t18 6zM510 1384l-25 -182q-2 -12 -20 -12h-68q-18 0 -20 12l-25 182q-1 9 5 15t14 6h121q9 0 14.5 -6.5t3.5 -14.5z" />
    <glyph glyph-name="quotedblbase" unicode="&#x201e;" horiz-adv-x="636" 
d="M203 272h119q10 0 15 -6t3 -14l-25 -182q0 -4 -4.5 -8.5t-11.5 -4.5h-74q-15 0 -18 13l-25 182q-3 9 3 14.5t18 5.5zM510 252l-25 -182q-3 -13 -20 -13h-68q-17 0 -20 13l-25 182q-1 9 5 14.5t14 5.5h121q9 0 14.5 -6t3.5 -14z" />
    <glyph glyph-name="bullet" unicode="&#x2022;" horiz-adv-x="673" 
d="M299 526q-72 0 -125 54t-53 129q0 74 52.5 126t125.5 52q76 0 130 -52t54 -126q0 -75 -54.5 -129t-129.5 -54z" />
    <glyph glyph-name="ellipsis" unicode="&#x2026;" horiz-adv-x="1568" 
d="M299 -18q-72 0 -125 53.5t-53 128.5q0 74 52.5 126t125.5 52q76 0 130 -52t54 -126q0 -75 -54.5 -128.5t-129.5 -53.5zM752 -18q-72 0 -125.5 53.5t-53.5 128.5q0 74 53 126t126 52q76 0 130 -52t54 -126q0 -75 -54.5 -128.5t-129.5 -53.5zM1194 -18q-72 0 -125 53.5
t-53 128.5q0 74 52.5 126t125.5 52q76 0 130 -52t54 -126q0 -75 -54.5 -128.5t-129.5 -53.5z" />
    <glyph glyph-name="guilsinglleft" unicode="&#x2039;" horiz-adv-x="860" 
d="M195 492q-13 3 -13 18v246q0 12 11 16l512 324q7 6 16.5 1.5t9.5 -14.5v-235q0 -14 -6 -17l-322 -184l318 -133q10 -3 10 -12v-236q0 -12 -8.5 -18t-17.5 0z" />
    <glyph glyph-name="guilsinglright" unicode="&#x203a;" horiz-adv-x="860" 
d="M729 510q0 -15 -8 -18l-514 -244q-9 -3 -17 1.5t-8 16.5v236q0 9 13 12l315 133l-317 184q-11 8 -11 17v235q0 6 9.5 12t17.5 1l510 -320q10 -6 10 -20v-246z" />
    <glyph glyph-name="fraction" unicode="&#x2044;" horiz-adv-x="1083" 
d="M881 1702l-500 -1352q-3 -10 -19 -10h-237q-8 0 -12 6.5t0 15.5l501 1352q4 15 15 15h235q10 0 15 -9t2 -18z" />
    <glyph glyph-name="Euro" unicode="&#x20ac;" horiz-adv-x="1353" 
d="M653 1372q112 0 194.5 -19.5t145 -63.5t94 -120.5t31.5 -185.5v-39q0 -8 -6 -14t-14 -6h-234q-12 0 -16 18q0 29 -4 41q-25 115 -180 115h-29q-93 0 -137.5 -61t-44.5 -156v-47h274q7 0 12.5 -4.5t5.5 -10.5v-223q0 -7 -6 -12.5t-12 -5.5h-274v-105q0 -97 47 -156
t135 -59h29q97 0 140.5 45t43.5 137v62q0 14 16 14h234q20 0 20 -16v-131q0 -196 -92 -285q-69 -59 -145 -76q-88 -28 -228 -28q-475 0 -475 428v538q0 225 122.5 325.5t352.5 100.5z" />
    <glyph glyph-name="trademark" unicode="&#x2122;" horiz-adv-x="1202" 
d="M39 1417q-8 0 -8 10v109q0 10 8 10h428q8 0 8 -10v-109q0 -10 -8 -10h-145v-538q0 -9 -11 -9h-116q-11 0 -11 9v538h-145zM1147 1546q8 0 8 -10v-657q0 -9 -8 -9h-113q-2 0 -5 3t-3 6v378l-113 -380q-3 -7 -8 -7h-80q-8 0 -8 7l-106 389v-387q0 -3 -3 -6t-6 -3h-114
q-6 0 -6 9v657q0 10 6 10h143q4 0 10 -6l123 -416l137 416q0 6 7 6h139z" />
    <glyph glyph-name="minus" unicode="&#x2212;" horiz-adv-x="837" 
d="M203 811h491q4 0 9.5 -5.5t5.5 -8.5v-181q0 -14 -15 -14h-491q-21 0 -21 14v181q0 14 21 14z" />
    <glyph glyph-name="uni2215" unicode="&#x2215;" horiz-adv-x="1083" 
d="M952 1333l-499 -1351q-3 -11 -19 -11h-237q-8 0 -12.5 7t-0.5 16l502 1352q4 14 14 14h236q10 0 14.5 -8.5t1.5 -18.5z" />
    <glyph glyph-name="uni2219" unicode="&#x2219;" horiz-adv-x="673" 
d="M299 526q-72 0 -125 54t-53 129q0 74 52.5 126t125.5 52q76 0 130 -52t54 -126q0 -75 -54.5 -129t-129.5 -54z" />
    <glyph glyph-name="lessequal" unicode="&#x2264;" horiz-adv-x="1017" 
d="M760 461l-512 244q-10 3 -10 14v252q0 11 8 14l512 324q9 4 19.5 -2t10.5 -15v-233q0 -5 -3.5 -10t-6.5 -5l-319 -184l317 -131q3 0 7.5 -6.5t4.5 -11.5v-236q0 -8 -10 -14t-18 0zM199 184q-5 0 -11 6t-6 13v176q0 7 6 12.5t11 5.5h673q6 0 12.5 -5.5t6.5 -12.5v-176
q0 -7 -6.5 -13t-12.5 -6h-673z" />
    <glyph glyph-name="greaterequal" unicode="&#x2265;" horiz-adv-x="1017" 
d="M829 705l-512 -244q-8 -6 -18 0t-10 14v236q0 5 4.5 11.5t7.5 6.5l317 131l-319 184q-3 0 -6.5 5t-3.5 10v233q0 9 10.5 15t19.5 2l512 -324q9 -3 9 -14v-252q0 -11 -11 -14zM872 184h-673q-5 0 -11 6t-6 13v176q0 7 6 12.5t11 5.5h673q6 0 12.5 -5.5t6.5 -12.5v-176
q0 -7 -6.5 -13t-12.5 -6z" />
    <glyph glyph-name="A.salt1" 
d="M731 1339l354 -1319q2 -8 -3.5 -14t-14.5 -6h-233q-12 0 -15 12l-108 400l-293 -195l-56 -205q0 -12 -14 -12h-235q-9 0 -15 6t-4 14l355 1319q4 13 14 13h254q6 0 10 -4t4 -9zM512 571l131 88l-55 203z" />
    <glyph glyph-name="B.salt1" horiz-adv-x="1167" 
d="M934 1018q0 -115 -115 -230q54 -70 83 -112t61.5 -101t46.5 -116.5t14 -122.5q0 -75 -20 -132.5t-56.5 -95.5t-90 -62.5t-117 -35t-142.5 -10.5h-389q-16 0 -16 18v1315q0 19 16 19h297q79 0 152 -19t136.5 -57t101.5 -104.5t38 -153.5zM463 1096v-287q34 18 56.5 31.5
t56 38.5t51.5 54.5t18 61.5q0 49 -35 75t-88 26h-59zM731 356q9 21 9.5 43.5t-9 46t-19.5 43t-30 43.5t-32.5 38t-33.5 36l-8 8l-145 -104v-254h72q153 0 196 100z" />
    <glyph glyph-name="G.salt1" horiz-adv-x="1376" 
d="M676 657q0 12 8 17l512 299q7 6 16 0t9 -17v-227q0 -11 -9 -14l-108 -62v-245q0 -222 -117 -325t-350 -103q-226 0 -348.5 101t-122.5 327v538q0 219 118.5 321.5t352.5 102.5q50 0 99 -5t103.5 -17t100.5 -34.5t83.5 -54t59 -79.5t21.5 -107q0 -12 -8 -16l-236 -144
q-8 -6 -17 -1t-9 14q-6 40 -7 45q-37 125 -180 125h-24q-92 0 -137.5 -58t-45.5 -159v-406q0 -64 16 -108.5t44 -67t57.5 -32t65.5 -9.5h24q91 0 137.5 58t46.5 159v21l-131 -76q-8 -6 -16 -0.5t-8 14.5v225z" />
    <glyph glyph-name="H.salt1" horiz-adv-x="1249" 
d="M786 1333q0 8 5 13.5t12 5.5h235q8 0 13.5 -6t5.5 -13v-1315q0 -7 -5.5 -12.5t-13.5 -5.5h-235q-17 0 -17 18v547l-325 -188v-359q0 -7 -5.5 -12.5t-13.5 -5.5h-233q-16 0 -16 18v1315q0 19 16 19h233q8 0 13.5 -6t5.5 -13v-633l325 193v440z" />
    <glyph glyph-name="M.salt1" horiz-adv-x="1421" 
d="M956 1343q7 9 17 9h237q8 0 13.5 -6t5.5 -13v-1315q0 -7 -5.5 -12.5t-13.5 -5.5h-233q-16 0 -16 18v863l-236 -334q-6 -7 -14.5 -7t-14.5 7l-235 301v-830q0 -7 -5.5 -12.5t-13.5 -5.5h-233q-16 0 -16 18v1315q0 19 16 19h242q3 0 5.5 -1.5t3.5 -3t4 -5.5t5 -7l252 -340z
" />
    <glyph glyph-name="P.salt1" horiz-adv-x="1067" 
d="M606 1352q154 0 262 -105q105 -108 105 -274q0 -78 -12.5 -144t-32.5 -118t-57.5 -100.5t-74 -84.5t-96 -76.5t-110 -70t-129.5 -72.5v-289q0 -7 -5.5 -12.5t-13.5 -5.5h-233q-16 0 -16 18v1315q0 19 16 19h397zM461 647q227 140 227 287q0 68 -43 115t-110 47h-74v-449z
" />
    <glyph glyph-name="Q.salt1" horiz-adv-x="1251" 
d="M623 1370q228 0 346 -99.5t118 -324.5v-538q0 -127 -43 -222t-149 -155l86 -121q5 -9 0.5 -19t-14.5 -10h-232q-10 0 -16 8l-62 91h-34q-229 0 -350 100.5t-121 327.5v538q0 221 117.5 320t353.5 104zM817 473v406q0 217 -184 217h-27q-182 0 -182 -217v-406
q0 -64 16 -108.5t44 -67t57.5 -32t64.5 -9.5h27q177 0 184 217z" />
    <glyph glyph-name="R.salt1" horiz-adv-x="1161" 
d="M975 973q0 -147 -43.5 -261t-151.5 -206l221 -483q3 -8 -2 -15.5t-14 -7.5h-244q-11 0 -16 10l-162 350l-102 -55v-287q0 -7 -5.5 -12.5t-13.5 -5.5h-233q-16 0 -16 18v1315q0 19 16 19h397q155 0 262 -109.5t107 -269.5zM463 647q227 138 227 287q0 64 -43 113t-110 49
h-74v-449z" />
    <glyph glyph-name="a.salt1" 
d="M731 1339l354 -1319q2 -8 -3.5 -14t-14.5 -6h-233q-12 0 -15 12l-108 400l-293 -195l-56 -205q0 -12 -14 -12h-235q-9 0 -15 6t-4 14l355 1319q4 13 14 13h254q6 0 10 -4t4 -9zM512 571l131 88l-55 203z" />
    <glyph glyph-name="b.salt1" horiz-adv-x="1167" 
d="M934 1018q0 -115 -115 -230q54 -70 83 -112t61.5 -101t46.5 -116.5t14 -122.5q0 -75 -20 -132.5t-56.5 -95.5t-90 -62.5t-117 -35t-142.5 -10.5h-389q-16 0 -16 18v1315q0 19 16 19h297q79 0 152 -19t136.5 -57t101.5 -104.5t38 -153.5zM463 1096v-287q34 18 56.5 31.5
t56 38.5t51.5 54.5t18 61.5q0 49 -35 75t-88 26h-59zM731 356q9 21 9.5 43.5t-9 46t-19.5 43t-30 43.5t-32.5 38t-33.5 36l-8 8l-145 -104v-254h72q153 0 196 100z" />
    <glyph glyph-name="g.salt1" horiz-adv-x="1376" 
d="M676 657q0 12 8 17l512 299q7 6 16 0t9 -17v-227q0 -11 -9 -14l-108 -62v-245q0 -222 -117 -325t-350 -103q-226 0 -348.5 101t-122.5 327v538q0 219 118.5 321.5t352.5 102.5q50 0 99 -5t103.5 -17t100.5 -34.5t83.5 -54t59 -79.5t21.5 -107q0 -12 -8 -16l-236 -144
q-8 -6 -17 -1t-9 14q-6 40 -7 45q-37 125 -180 125h-24q-92 0 -137.5 -58t-45.5 -159v-406q0 -64 16 -108.5t44 -67t57.5 -32t65.5 -9.5h24q91 0 137.5 58t46.5 159v21l-131 -76q-8 -6 -16 -0.5t-8 14.5v225z" />
    <glyph glyph-name="h.salt1" horiz-adv-x="1249" 
d="M786 1333q0 8 5 13.5t12 5.5h235q8 0 13.5 -6t5.5 -13v-1315q0 -7 -5.5 -12.5t-13.5 -5.5h-235q-17 0 -17 18v547l-325 -188v-359q0 -7 -5.5 -12.5t-13.5 -5.5h-233q-16 0 -16 18v1315q0 19 16 19h233q8 0 13.5 -6t5.5 -13v-633l325 193v440z" />
    <glyph glyph-name="m.salt1" horiz-adv-x="1421" 
d="M956 1343q7 9 17 9h237q8 0 13.5 -6t5.5 -13v-1315q0 -7 -5.5 -12.5t-13.5 -5.5h-233q-16 0 -16 18v863l-236 -334q-6 -7 -14.5 -7t-14.5 7l-235 301v-830q0 -7 -5.5 -12.5t-13.5 -5.5h-233q-16 0 -16 18v1315q0 19 16 19h242q3 0 5.5 -1.5t3.5 -3t4 -5.5t5 -7l252 -340z
" />
    <glyph glyph-name="p.salt1" horiz-adv-x="1067" 
d="M606 1352q154 0 262 -105q105 -108 105 -274q0 -78 -12.5 -144t-32.5 -118t-57.5 -100.5t-74 -84.5t-96 -76.5t-110 -70t-129.5 -72.5v-289q0 -7 -5.5 -12.5t-13.5 -5.5h-233q-16 0 -16 18v1315q0 19 16 19h397zM461 647q227 140 227 287q0 68 -43 115t-110 47h-74v-449z
" />
    <glyph glyph-name="q.salt1" horiz-adv-x="1251" 
d="M623 1370q228 0 346 -99.5t118 -324.5v-538q0 -127 -43 -222t-149 -155l86 -121q5 -9 0.5 -19t-14.5 -10h-232q-10 0 -16 8l-62 91h-34q-229 0 -350 100.5t-121 327.5v538q0 221 117.5 320t353.5 104zM817 473v406q0 217 -184 217h-27q-182 0 -182 -217v-406
q0 -64 16 -108.5t44 -67t57.5 -32t64.5 -9.5h27q177 0 184 217z" />
    <glyph glyph-name="r.salt1" horiz-adv-x="1161" 
d="M975 973q0 -147 -43.5 -261t-151.5 -206l221 -483q3 -8 -2 -15.5t-14 -7.5h-244q-11 0 -16 10l-162 350l-102 -55v-287q0 -7 -5.5 -12.5t-13.5 -5.5h-233q-16 0 -16 18v1315q0 19 16 19h397q155 0 262 -109.5t107 -269.5zM463 647q227 138 227 287q0 64 -43 113t-110 49
h-74v-449z" />
    <glyph glyph-name="A.titl" 
d="M449 1339q4 13 14 13h254q10 0 14 -13l354 -1316q2 -9 -3.5 -16t-14.5 -7h-233q-12 0 -15 12l-80 287h-299l-78 -287q-3 -12 -14 -12h-235q-9 0 -15 7t-4 16z" />
    <glyph glyph-name="B.titl" horiz-adv-x="1177" 
d="M965 1001q0 -128 -41 -200q110 -104 110 -359q0 -271 -121 -366q-97 -76 -305 -76h-399q-16 0 -16 18v1315q0 19 16 19h328q211 0 303 -60q125 -79 125 -291z" />
    <glyph glyph-name="D.titl" horiz-adv-x="1292" 
d="M721 1352q207 0 313 -115q92 -103 92 -291v-543q0 -188 -105.5 -295.5t-299.5 -107.5h-512q-16 0 -16 18v1315q0 19 16 19h512z" />
    <glyph glyph-name="O.titl" horiz-adv-x="1269" 
d="M637 1370q263 0 377 -123q90 -100 90 -301v-538q0 -209 -90 -306q-119 -122 -377 -122q-263 0 -379 122q-92 103 -92 306v538q0 200 92 303q112 121 379 121z" />
    <glyph glyph-name="P.titl" horiz-adv-x="1093" 
d="M633 1352q172 0 268 -95.5t96 -273.5v-258q0 -166 -97 -266.5t-267 -100.5h-172v-340q0 -7 -5.5 -12.5t-13.5 -5.5h-235q-14 0 -14 18v1315q0 19 14 19h426z" />
    <glyph glyph-name="Q.titl" horiz-adv-x="1251" 
d="M623 1370q224 0 344 -100t120 -324v-538q0 -180 -76 -283t-253 -137v-127q0 -7 -7 -14t-14 -7h-233q-8 0 -14.5 7t-6.5 14v127q-171 32 -251 134.5t-80 285.5v538q0 222 118 323t353 101z" />
    <glyph glyph-name="R.titl" horiz-adv-x="1167" 
d="M961 535q-46 -94 -127 -132l172 -378q4 -9 -1 -17t-14 -8h-252q-11 0 -14 10l-160 348h-104v-340q0 -7 -5.5 -12.5t-13.5 -5.5h-235q-14 0 -14 18v1315q0 19 14 19h426q172 0 268 -95.5t96 -273.5v-258q0 -117 -36 -190z" />
    <glyph glyph-name="a.titl" 
d="M449 1339q4 13 14 13h254q10 0 14 -13l354 -1316q2 -9 -3.5 -16t-14.5 -7h-233q-12 0 -15 12l-80 287h-299l-78 -287q-3 -12 -14 -12h-235q-9 0 -15 7t-4 16z" />
    <glyph glyph-name="b.titl" horiz-adv-x="1177" 
d="M965 1001q0 -128 -41 -200q110 -104 110 -359q0 -271 -121 -366q-97 -76 -305 -76h-399q-16 0 -16 18v1315q0 19 16 19h328q211 0 303 -60q125 -79 125 -291z" />
    <glyph glyph-name="d.titl" horiz-adv-x="1292" 
d="M721 1352q207 0 313 -115q92 -103 92 -291v-543q0 -188 -105.5 -295.5t-299.5 -107.5h-512q-16 0 -16 18v1315q0 19 16 19h512z" />
    <glyph glyph-name="o.titl" horiz-adv-x="1269" 
d="M637 1370q263 0 377 -123q90 -100 90 -301v-538q0 -209 -90 -306q-119 -122 -377 -122q-263 0 -379 122q-92 103 -92 306v538q0 200 92 303q112 121 379 121z" />
    <glyph glyph-name="p.titl" horiz-adv-x="1093" 
d="M633 1352q172 0 268 -95.5t96 -273.5v-258q0 -166 -97 -266.5t-267 -100.5h-172v-340q0 -7 -5.5 -12.5t-13.5 -5.5h-235q-14 0 -14 18v1315q0 19 14 19h426z" />
    <glyph glyph-name="q.titl" horiz-adv-x="1251" 
d="M623 1370q224 0 344 -100t120 -324v-538q0 -180 -76 -283t-253 -137v-127q0 -7 -7 -14t-14 -7h-233q-8 0 -14.5 7t-6.5 14v127q-171 32 -251 134.5t-80 285.5v538q0 222 118 323t353 101z" />
    <glyph glyph-name="r.titl" horiz-adv-x="1167" 
d="M961 535q-46 -94 -127 -132l172 -378q4 -9 -1 -17t-14 -8h-252q-11 0 -14 10l-160 348h-104v-340q0 -7 -5.5 -12.5t-13.5 -5.5h-235q-14 0 -14 18v1315q0 19 14 19h426q172 0 268 -95.5t96 -273.5v-258q0 -117 -36 -190z" />
    </font>
</defs>
</svg>
