<svg width="16" height="16" viewBox="0 0 16 16" fill="none" xmlns="http://www.w3.org/2000/svg">
<path d="M6.99765 13.9978C10.8622 13.9978 13.9951 10.8649 13.9951 7.00033C13.9951 3.13572 10.8623 0.00289917 6.99765 0.00289917C3.13305 0.00289917 0.000192642 3.13575 0.000192642 7.00036C0.000192642 10.865 3.13308 13.9978 6.99765 13.9978ZM6.99765 2.00218C9.75808 2.00218 11.9958 4.23993 11.9958 7.00036C11.9958 9.76079 9.75808 11.9985 6.99765 11.9985C4.23723 11.9985 1.99948 9.76079 1.99948 7.00036C1.99948 4.23993 4.23726 2.00218 6.99765 2.00218Z" fill="#2E3044"/>
<path d="M14.9946 15.9971C15.2603 15.9986 15.5157 15.8943 15.7043 15.7072C16.0963 15.3184 16.0989 14.6855 15.7101 14.2935C15.7082 14.2915 15.7062 14.2896 15.7043 14.2877L11.9457 10.5291C11.5399 10.1371 10.8932 10.1483 10.5012 10.5541C10.1092 10.9598 10.1204 11.6065 10.5262 11.9985L14.2848 15.7072C14.4735 15.8943 14.7288 15.9986 14.9946 15.9971Z" fill="#2E3044"/>
</svg>
